<?xml version="1.0" encoding="utf-8"?>
<!-- Generator: Adobe Illustrator 23.0.2, SVG Export Plug-In . SVG Version: 6.00 Build 0)  -->
<svg version="1.1" id="Layer_1" xmlns="http://www.w3.org/2000/svg" xmlns:xlink="http://www.w3.org/1999/xlink" x="0px" y="0px"
	 viewBox="0 0 304.8 95.8" style="enable-background:new 0 0 304.8 95.8;" xml:space="preserve">
<style type="text/css">
	.st0{fill:#FFFFFF;}
	.st1{fill:#F1592B;}
	.st2{font-family:'ArialMT';}
	.st3{font-size:6.5665px;}
</style>
<g>
	<path id="alive-copy-3_1_" class="st0" d="M62.3,38.3v57.5H45.1v-5.9c-4.2,4.7-9.9,7-17.1,7c-5.1,0-9.8-1.4-14.1-4
		S6.3,86.6,3.7,82.1C1.2,77.5,0,72.5,0,67.1s1.3-10.4,3.7-15c2.5-4.6,6-8.2,10.2-10.9c4.3-2.6,8.9-4,14.1-4c7.2,0,13,2.3,17.1,7
		v-5.9L62.3,38.3L62.3,38.3z M41.8,77.2c2.8-2.8,4.1-6.2,4.1-10.2c0-4.1-1.4-7.5-4.1-10.3s-6.2-4.2-10.3-4.2c-4,0-7.3,1.4-10.1,4.2
		S17.3,63,17.3,67s1.4,7.4,4.1,10.2c2.7,2.8,6.1,4.2,10.1,4.2C35.6,81.3,39,80,41.8,77.2z M70.5,3.8h17.3v91.9H70.5V3.8z M97.9,25.6
		C96,23.7,95,21.5,95,18.8s1-4.9,2.9-6.8s4.1-2.8,6.8-2.8s4.9,1,6.8,2.8s2.9,4.1,2.9,6.8c0,2.6-1,4.9-2.9,6.8
		c-1.9,1.9-4.2,2.9-6.8,2.9C102.1,28.5,99.8,27.5,97.9,25.6z M96.1,38.3h17.1v57.5H96.1V38.3z M180.4,38.3l-23.1,57.5H141
		l-22.8-57.5h18.4l12.6,38.8l12.7-38.8C161.8,38.3,180.4,38.3,180.4,38.3z M237.5,70.4h-42c0.6,3.9,2.1,7,4.5,9.2
		c2.5,2.2,5.5,3.4,9,3.4c2.9,0,5.5-0.6,7.7-2c2.2-1.3,4-3.2,5.2-5.7l13.9,5.7c-2.1,4.9-5.6,8.7-10.3,11.5
		c-4.8,2.9-10.1,4.2-15.9,4.2c-6.8,0-12.5-1.3-17.3-3.9c-4.7-2.6-8.3-6.1-10.7-10.7c-2.4-4.5-3.6-9.6-3.6-15.3
		c0-5.6,1.3-10.7,3.8-15.2s6.2-8.1,10.8-10.8c4.7-2.6,10.1-4,16.2-4c5.7,0,10.7,1.2,15,3.6c4.4,2.4,7.7,5.8,10.3,10.3
		c2.5,4.5,3.7,9.6,3.7,15.5L237.5,70.4z M196.5,59.1h23.4c-1.9-5.7-5.7-8.5-11.5-8.5C202.6,50.5,198.7,53.4,196.5,59.1z"/>
	<path id="_x35_-copy-3_1_" class="st1" d="M273.6,20.2c2.5,1.5,4.6,3.7,6.1,6.7c1.5,2.9,2.2,6.3,2.2,10.1c0,4.1-1,7.9-2.8,11.1
		s-4.3,5.7-7.5,7.4c-3.2,1.8-6.7,2.6-10.5,2.6c-3.6,0-7-0.7-10.1-2.1s-5.7-3.5-7.6-6.1c-1.9-2.7-2.9-5.7-3-9.2l12.1-0.2
		c0.4,2.1,1.4,3.7,3.1,4.9c1.7,1.1,3.7,1.8,5.9,1.8c2.5,0,4.5-0.9,6.2-2.7s2.5-4.1,2.5-7.2c0-2.9-0.9-5.3-2.5-7
		c-1.7-1.8-3.7-2.6-6.1-2.6c-1.7,0-3.3,0.5-4.9,1.4c-1.6,1-2.9,2.2-3.8,3.9l-11.8-0.1L247,0h33v10.2h-24.8l-1.8,11.1
		c1.4-1,2.9-1.8,4.9-2.5c2-0.6,4.2-1,6.7-1C268.2,17.8,271.1,18.6,273.6,20.2z"/>
	<text transform="matrix(1 0 0 1 282.2217 4.6826)" class="st0 st2 st3">TM</text>
</g>
</svg>
