<?xml version="1.0" encoding="utf-8"?>
<!-- Generator: Adobe Illustrator 23.0.2, SVG Export Plug-In . SVG Version: 6.00 Build 0)  -->
<svg version="1.1" id="Layer_1" xmlns="http://www.w3.org/2000/svg" xmlns:xlink="http://www.w3.org/1999/xlink" x="0px" y="0px"
	 viewBox="0 0 377.2 134.4" style="enable-background:new 0 0 377.2 134.4;" xml:space="preserve">
<style type="text/css">
	.st0{fill:#FFFFFF;}
	.st1{fill:#F1592B;}
	.st2{font-family:'ArialMT';}
	.st3{font-size:6.5665px;}
</style>
<g>
	<path id="alive-copy-3_1_" class="st0" d="M104.3,57.3v57.5H87.1v-5.9c-4.2,4.7-9.9,7-17.1,7c-5.1,0-9.8-1.4-14.1-4
		c-4.3-2.6-7.6-6.3-10.2-10.8c-2.5-4.6-3.7-9.6-3.7-15s1.3-10.4,3.7-15c2.5-4.6,6-8.2,10.2-10.9c4.3-2.6,8.9-4,14.1-4
		c7.2,0,13,2.3,17.1,7v-5.9L104.3,57.3L104.3,57.3z M83.8,96.2c2.8-2.8,4.1-6.2,4.1-10.2c0-4.1-1.4-7.5-4.1-10.3s-6.2-4.2-10.3-4.2
		c-4,0-7.3,1.4-10.1,4.2S59.3,82,59.3,86c0,4,1.4,7.4,4.1,10.2s6.1,4.2,10.1,4.2C77.6,100.3,81,99,83.8,96.2z M112.5,22.8h17.3v91.9
		h-17.3V22.8z M139.9,44.6c-1.9-1.9-2.9-4.1-2.9-6.8c0-2.7,1-4.9,2.9-6.8s4.1-2.8,6.8-2.8c2.7,0,4.9,1,6.8,2.8s2.9,4.1,2.9,6.8
		c0,2.6-1,4.9-2.9,6.8c-1.9,1.9-4.2,2.9-6.8,2.9C144.1,47.5,141.8,46.5,139.9,44.6z M138.1,57.3h17.1v57.5h-17.1V57.3z M222.4,57.3
		l-23.1,57.5H183l-22.8-57.5h18.4l12.6,38.8l12.7-38.8C203.8,57.3,222.4,57.3,222.4,57.3z M279.5,89.4h-42c0.6,3.9,2.1,7,4.5,9.2
		c2.5,2.2,5.5,3.4,9,3.4c2.9,0,5.5-0.6,7.7-2c2.2-1.3,4-3.2,5.2-5.7l13.9,5.7c-2.1,4.9-5.6,8.7-10.3,11.5
		c-4.8,2.9-10.1,4.2-15.9,4.2c-6.8,0-12.5-1.3-17.3-3.9c-4.7-2.6-8.3-6.1-10.7-10.7c-2.4-4.5-3.6-9.6-3.6-15.3
		c0-5.6,1.3-10.7,3.8-15.2c2.5-4.5,6.2-8.1,10.8-10.8c4.7-2.6,10.1-4,16.2-4c5.7,0,10.7,1.2,15,3.6c4.4,2.4,7.7,5.8,10.3,10.3
		c2.5,4.5,3.7,9.6,3.7,15.5L279.5,89.4z M238.5,78.1h23.4c-1.9-5.7-5.7-8.5-11.5-8.5C244.6,69.5,240.7,72.4,238.5,78.1z"/>
	<path id="_x35_-copy-3_1_" class="st1" d="M315.6,39.2c2.5,1.5,4.6,3.7,6.1,6.7c1.5,2.9,2.2,6.3,2.2,10.1c0,4.1-1,7.9-2.8,11.1
		c-1.8,3.2-4.3,5.7-7.5,7.4c-3.2,1.8-6.7,2.6-10.5,2.6c-3.6,0-7-0.7-10.1-2.1c-3.1-1.4-5.7-3.5-7.6-6.1c-1.9-2.7-2.9-5.7-3-9.2
		l12.1-0.2c0.4,2.1,1.4,3.7,3.1,4.9c1.7,1.1,3.7,1.8,5.9,1.8c2.5,0,4.5-0.9,6.2-2.7c1.7-1.8,2.5-4.1,2.5-7.2c0-2.9-0.9-5.3-2.5-7
		c-1.7-1.8-3.7-2.6-6.1-2.6c-1.7,0-3.3,0.5-4.9,1.4c-1.6,1-2.9,2.2-3.8,3.9l-11.8-0.1L289,19h33v10.2h-24.8l-1.8,11.1
		c1.4-1,2.9-1.8,4.9-2.5c2-0.6,4.2-1,6.7-1C310.2,36.8,313.1,37.6,315.6,39.2z"/>
	<text transform="matrix(1 0 0 1 324.2217 23.6826)" class="st0 st2 st3">TM</text>
</g>
</svg>
