<?xml version="1.0" encoding="utf-8"?>
<!-- Generator: Adobe Illustrator 23.0.2, SVG Export Plug-In . SVG Version: 6.00 Build 0)  -->
<svg version="1.1" id="Layer_1" xmlns="http://www.w3.org/2000/svg" xmlns:xlink="http://www.w3.org/1999/xlink" x="0px" y="0px"
	 viewBox="0 0 384 188" style="enable-background:new 0 0 384 188;" xml:space="preserve">
<style type="text/css">
	.st0{fill:#FFFFFF;}
	.st1{fill:#F1592B;}
	.st2{font-family:'MyriadPro-Regular';}
	.st3{font-size:8.251px;}
</style>
<path id="alive-copy-3" class="st0" d="M88.4,53.1v72.2H66.8v-7.4c-5.3,5.9-12.4,8.8-21.5,8.8c-6.4,0-12.3-1.7-17.7-5
	s-9.6-7.9-12.8-13.6c-3.2-5.8-4.7-12.1-4.7-18.9s1.6-13.1,4.7-18.9C18,64.5,22.3,60,27.6,56.6c5.4-3.3,11.2-5,17.7-5
	c9.1,0,16.3,2.9,21.5,8.8V53h21.6V53.1z M62.6,102c3.5-3.5,5.2-7.8,5.2-12.8c0-5.1-1.7-9.4-5.2-12.9c-3.5-3.5-7.8-5.3-12.9-5.3
	c-5,0-9.2,1.8-12.7,5.3s-5.2,7.8-5.2,12.9c0,5,1.7,9.3,5.2,12.8s7.7,5.3,12.7,5.3C54.8,107.2,59.1,105.5,62.6,102z M98.7,9.8h21.7
	v115.5H98.7V9.8z M133.1,37.2c-2.4-2.4-3.6-5.2-3.6-8.5c0-3.4,1.2-6.2,3.6-8.6c2.4-2.4,5.2-3.5,8.5-3.5c3.4,0,6.2,1.2,8.6,3.5
	s3.6,5.2,3.6,8.6c0,3.3-1.2,6.1-3.7,8.5c-2.4,2.4-5.3,3.6-8.5,3.6S135.5,39.6,133.1,37.2z M130.8,53.1h21.5v72.2h-21.5V53.1z
	 M236.7,53.1l-29,72.2h-20.4l-28.7-72.2h23.1l15.8,48.8l15.9-48.8C213.4,53.1,236.7,53.1,236.7,53.1z M308.5,93.4h-52.8
	c0.7,4.9,2.6,8.8,5.7,11.6c3.1,2.8,6.9,4.3,11.3,4.3c3.6,0,6.9-0.8,9.7-2.5c2.8-1.6,5-4,6.5-7.1l17.5,7.2c-2.7,6.1-7,10.9-13,14.4
	c-6,3.6-12.7,5.3-20,5.3c-8.5,0-15.7-1.6-21.7-4.9c-5.9-3.3-10.4-7.7-13.4-13.4c-3-5.7-4.5-12.1-4.5-19.2c0-7,1.6-13.4,4.8-19.1
	s7.8-10.2,13.6-13.6c5.9-3.3,12.7-5,20.3-5c7.1,0,13.4,1.5,18.8,4.5c5.5,3,9.7,7.3,12.9,12.9s4.7,12.1,4.7,19.5L308.5,93.4z
	 M257,79.2h29.4c-2.4-7.1-7.2-10.7-14.5-10.7S259.7,72.1,257,79.2z"/>
<path id="_x35_-copy-3" class="st1" d="M353.9,30.4c3.2,1.9,5.8,4.7,7.7,8.4c1.9,3.6,2.8,7.9,2.8,12.7c0,5.2-1.2,9.9-3.5,13.9
	s-5.4,7.1-9.4,9.3c-4,2.2-8.4,3.3-13.2,3.3c-4.5,0-8.8-0.9-12.7-2.7c-3.9-1.8-7.1-4.4-9.5-7.7c-2.4-3.4-3.7-7.2-3.8-11.6l15.2-0.2
	c0.5,2.7,1.8,4.7,3.9,6.2c2.1,1.4,4.6,2.2,7.4,2.2c3.1,0,5.7-1.1,7.8-3.4c2.1-2.2,3.1-5.2,3.1-9c0-3.6-1.1-6.6-3.2-8.8
	s-4.7-3.3-7.7-3.3c-2.1,0-4.2,0.6-6.2,1.8s-3.6,2.8-4.8,4.9L313,46.3L320.4,5h41.5v12.8h-31.1l-2.2,13.9c1.7-1.3,3.7-2.3,6.2-3.1
	c2.5-0.8,5.3-1.2,8.4-1.2C347.1,27.4,350.7,28.4,353.9,30.4z"/>
<text transform="matrix(1 0 0 1 364.7328 10.9172)" class="st0 st2 st3">TM</text>
</svg>
