<?xml version="1.0" encoding="utf-8"?>
<!-- Generator: Adobe Illustrator 23.0.1, SVG Export Plug-In . SVG Version: 6.00 Build 0)  -->
<svg version="1.1" id="Layer_1" xmlns="http://www.w3.org/2000/svg" xmlns:xlink="http://www.w3.org/1999/xlink" x="0px" y="0px"
	 viewBox="0 0 384 188" style="enable-background:new 0 0 384 188;" xml:space="preserve">
<style type="text/css">
	.st0{fill:#757576;}
	.st1{fill:#F1592B;}
	.st2{fill:#6F6E6E;}
	.st3{font-family:'NeueEinstellung-Bold';}
	.st4{font-size:8.251px;}
</style>
<g>
	<path id="alive-copy-3" class="st0" d="M86.7,81.9v72.2H65.1v-7.4c-5.3,5.9-12.4,8.8-21.5,8.8c-6.4,0-12.3-1.7-17.7-5
		c-5.4-3.3-9.6-7.9-12.8-13.6c-3.2-5.8-4.7-12.1-4.7-18.9s1.6-13.1,4.7-18.9c3.2-5.8,7.5-10.3,12.8-13.7c5.4-3.3,11.2-5,17.7-5
		c9.1,0,16.3,2.9,21.5,8.8v-7.4h21.6V81.9z M60.9,130.8c3.5-3.5,5.2-7.8,5.2-12.8c0-5.1-1.7-9.4-5.2-12.9s-7.8-5.3-12.9-5.3
		c-5,0-9.2,1.8-12.7,5.3s-5.2,7.8-5.2,12.9c0,5,1.7,9.3,5.2,12.8c3.5,3.5,7.7,5.3,12.7,5.3C53.1,136,57.4,134.3,60.9,130.8z
		 M97,38.6h21.7v115.5H97V38.6z M131.4,66c-2.4-2.4-3.6-5.2-3.6-8.5c0-3.4,1.2-6.2,3.6-8.6c2.4-2.4,5.2-3.5,8.5-3.5
		c3.4,0,6.2,1.2,8.6,3.5c2.4,2.3,3.6,5.2,3.6,8.6c0,3.3-1.2,6.1-3.7,8.5c-2.4,2.4-5.3,3.6-8.5,3.6S133.8,68.4,131.4,66z M129.1,81.9
		h21.5v72.2h-21.5V81.9z M235,81.9l-29,72.2h-20.4l-28.7-72.2H180l15.8,48.8l15.9-48.8C211.7,81.9,235,81.9,235,81.9z M306.8,122.2
		H254c0.7,4.9,2.6,8.8,5.7,11.6c3.1,2.8,6.9,4.3,11.3,4.3c3.6,0,6.9-0.8,9.7-2.5c2.8-1.6,5-4,6.5-7.1l17.5,7.2
		c-2.7,6.1-7,10.9-13,14.4c-6,3.6-12.7,5.3-20,5.3c-8.5,0-15.7-1.6-21.7-4.9c-5.9-3.3-10.4-7.7-13.4-13.4c-3-5.7-4.5-12.1-4.5-19.2
		c0-7,1.6-13.4,4.8-19.1s7.8-10.2,13.6-13.6c5.9-3.3,12.7-5,20.3-5c7.1,0,13.4,1.5,18.8,4.5c5.5,3,9.7,7.3,12.9,12.9
		c3.2,5.6,4.7,12.1,4.7,19.5L306.8,122.2z M255.3,108h29.4c-2.4-7.1-7.2-10.7-14.5-10.7S258,100.9,255.3,108z"/>
	<path id="_x35_-copy-3" class="st1" d="M352.2,59.2c3.2,1.9,5.8,4.7,7.7,8.4c1.9,3.6,2.8,7.9,2.8,12.7c0,5.2-1.2,9.9-3.5,13.9
		s-5.4,7.1-9.4,9.3c-4,2.2-8.4,3.3-13.2,3.3c-4.5,0-8.8-0.9-12.7-2.7c-3.9-1.8-7.1-4.4-9.5-7.7c-2.4-3.4-3.7-7.2-3.8-11.6l15.2-0.2
		c0.5,2.7,1.8,4.7,3.9,6.2c2.1,1.4,4.6,2.2,7.4,2.2c3.1,0,5.7-1.1,7.8-3.4c2.1-2.2,3.1-5.2,3.1-9c0-3.6-1.1-6.6-3.2-8.8
		c-2.1-2.2-4.7-3.3-7.7-3.3c-2.1,0-4.2,0.6-6.2,1.8c-2,1.2-3.6,2.8-4.8,4.9l-14.8-0.1l7.4-41.3h41.5v12.8h-31.1l-2.2,13.9
		c1.7-1.3,3.7-2.3,6.2-3.1c2.5-0.8,5.3-1.2,8.4-1.2C345.4,56.2,349,57.2,352.2,59.2z"/>
	<text transform="matrix(1 0 0 1 363.0046 39.7186)" class="st2 st3 st4">TM</text>
</g>
</svg>
