<svg id="Layer_1" data-name="Layer 1" xmlns="http://www.w3.org/2000/svg" viewBox="0 0 359.87 210.5"><defs><style>.cls-1{fill:#17183d;}</style></defs><title>arrively</title><path class="cls-1" d="M28.56,155.1h6.09l18.07,39H45.38l-4.71-10.5H22.12l-4.65,10.5h-7Zm-4,23.08H38.28L31.6,163.09h-.35Z"/><path class="cls-1" d="M63.87,194.05v-39H85.34c5.19,0,8.77,1.43,11.28,4.11a11.37,11.37,0,0,1,3.1,7.82c0,5.25-3.46,9.24-8.59,11.15l9.3,15.87H92.74l-8.35-15H70.55v15Zm6.68-33v12.05h16A6.36,6.36,0,0,0,93,167a5.58,5.58,0,0,0-1.61-3.88c-1.85-1.91-4-2.09-6.09-2.09Z"/><path class="cls-1" d="M113.55,194.05v-39H135c5.19,0,8.77,1.43,11.28,4.11a11.37,11.37,0,0,1,3.1,7.82c0,5.25-3.46,9.24-8.59,11.15l9.3,15.87h-7.69l-8.35-15H120.23v15Zm6.68-33v12.05h16a6.36,6.36,0,0,0,6.5-6.08,5.58,5.58,0,0,0-1.61-3.88c-1.85-1.91-4-2.09-6.09-2.09Z"/><path class="cls-1" d="M163.23,194.05v-39h6.68v39Z"/><path class="cls-1" d="M223.17,155.1l-18.07,39H199L181,155.1h7.63l13.48,30.42h.36L215.9,155.1Z"/><path class="cls-1" d="M255.86,176.69h-15v11.39h26.36v6h-33v-39h31.61v6H240.89v9.67h15Z"/><path class="cls-1" d="M286.45,155.1v33h23.92v6h-30.6v-39Z"/><path class="cls-1" d="M349.38,155.1l-16,21v18h-6.68v-18l-16-21h8.47l11.15,15,11.15-15Z"/><path class="cls-1" d="M157.67,113.72h-4a6.81,6.81,0,0,1-4.15-1.15,4.15,4.15,0,0,1-1.49-3.5,9.05,9.05,0,0,1,.5-2.78l21.72-61.06-1.71-5-25.16,64.46a14.5,14.5,0,0,1-5.63,7.16c-1.67,1-3.71,1.54-8.58,1.65v1.66h28.53Z"/><path class="cls-1" d="M166.91,78.23c-.12,1.39-.92,2.09-1.16,2.78h23.93l8.79,24.5a12.12,12.12,0,0,1,.5,3.33c0,3-1.95,4.88-5.35,4.88h-6.73v1.39h41.75v-1.66a24.2,24.2,0,0,1-4.52-.55,5.91,5.91,0,0,1-3.41-2.49,22.29,22.29,0,0,1-2.52-5.07s-33.41-86.95-35.76-93.22h-2.27l-7.82,20.61,16.39,45.5Z"/></svg>