<?xml version="1.0" encoding="UTF-8"?>
<svg viewBox="0 0 361 91" version="1.1" xmlns="http://www.w3.org/2000/svg">

    <g id="Page-1" stroke="none" stroke-width="1" fill="none" fill-rule="evenodd">
        <g id="01_budwesier_gardens_styleguide-v3" transform="translate(-210.000000, -48.000000)">
            <g id="overstates" transform="translate(-18.000000, 0.000000)">
                <g id="header" transform="translate(17.000000, 0.000000)">
                    <g id="budweiser-5A" transform="translate(211.000000, 48.000000)">
                        <g id="Group">
                            <path d="M158.783004,40.9601212 C153.428926,45.4004549 150.812248,47.1205571 149.556726,47.7682313 C148.687518,48.2170846 148.298185,48.19901 148.204625,48.123699 C148.138227,48.0634502 148.074847,47.7863059 148.289131,47.1085074 C148.865585,45.325144 157.129095,34.5255533 165.875498,23.0873258 C169.98009,17.7312108 174.223514,12.1883246 177.92972,7.23587637 L178.415631,6.58820217 L168.676279,6.93463256 C168.676279,6.93463256 154.518453,26.2865351 153.652264,27.4704232 C152.849454,25.4520897 150.688507,24.3164005 147.570827,24.3073632 C142.421979,24.3073632 134.176577,28.1873835 126.561955,34.1881603 C125.897977,34.7153369 124.591147,35.8058395 122.946292,37.1825237 C118.443313,40.9540963 111.637536,46.6566416 109.054058,48.1628607 C108.314628,48.5936394 107.795517,48.6207513 107.641595,48.4610921 C107.496727,48.3225199 107.496727,47.903791 107.828716,47.298291 C108.278411,46.4909575 109.117438,45.4908281 110.176785,44.2225916 L110.206965,44.1804175 C110.206965,44.1804175 110.490665,43.8369996 110.883016,43.3670592 L126.516683,24.6116195 L116.409125,25.0815598 L116.303492,25.2231444 C106.416254,37.6765636 96.4324366,46.7199028 90.8791647,48.2803458 C89.4093585,48.6990747 89.1105683,48.4610921 89.062279,48.391806 C88.9747546,48.3044453 88.9868269,47.9881393 89.2524182,47.3856517 C89.9737399,45.8041217 100.470631,33.4651751 104.955502,28.1873835 L107.991693,24.6116195 L107.101358,24.6417438 L97.4676389,25.0755349 L97.362006,25.19302 C92.0049095,30.7569932 84.3751968,36.9415287 80.4124544,40.065427 C80.8048051,38.9176881 80.9919262,37.7368124 80.9919262,36.5529242 C80.9919262,35.197327 80.7384073,33.8507672 80.2253333,32.5765059 C79.1991852,30.088232 77.3068474,28.0939979 74.8199474,26.8588983 C80.1649716,25.8798559 84.4898839,23.7741617 87.3932793,20.7436489 C89.9073421,18.1198153 91.3439494,14.7519095 91.3499856,11.5014888 C91.3499856,6.61832656 87.3027369,1.42187079 79.8088379,1.42187079 C75.4145097,1.42187079 69.9457441,2.47622414 62.666129,10.1940906 C61.5796193,9.73017514 60.5142361,9.32349599 59.4548892,8.98610292 C61.0816356,6.55807779 61.4256971,4.79278905 61.5192576,3.38296801 L61.5494384,2.96423911 L52.5374439,2.96423911 C52.5374439,2.96423911 50.0626162,5.69953293 49.7849527,6.01583893 C41.0325133,3.49744066 32.8263468,2.20510471 25.4048818,2.19606739 C17.7570606,2.19606739 11.2681831,3.68722426 6.63240832,6.50987878 C2.53385222,8.99514023 0.188802076,12.4022078 0.176729745,15.8665116 C0.173711663,21.2708256 6.02577373,26.7504505 19.1212339,26.7926247 C24.0195819,26.8046744 29.2348286,26.04554 33.9551097,24.6628309 C32.4822854,26.4130575 30.6955805,28.4344034 28.8153151,30.5702221 C23.0326689,37.1072128 16.4773936,44.5087733 14.7238876,48.8978956 C14.1353615,50.3619405 13.8456256,51.7566994 13.8456256,52.991799 C13.8456256,54.7420256 14.4311336,56.2120954 15.5749869,57.2393368 C17.5639033,59.0196877 20.8837941,59.0046255 24.2549923,57.2242746 C26.9078869,55.7993913 30.4118808,53.0339731 34.3957497,49.2262514 C34.4259305,51.0969754 35.1653608,52.9646871 36.4993533,54.476931 C38.1472263,56.3416302 41.5304969,58.5738469 48.2276221,58.5738469 C62.6118035,58.5738469 72.1972337,50.8650177 83.2977413,41.9331387 C83.2977413,41.9331387 84.1216778,41.2794396 84.9244878,40.64984 C83.0442224,43.6080543 83.0412043,45.1443977 83.0412043,45.9607684 C83.0412043,48.9942936 85.0814281,52.0458934 89.6508051,52.0458934 C92.6175802,52.0458934 96.8519501,49.8829629 101.928365,45.7709848 C101.907238,46.0029426 101.88913,46.2318879 101.88913,46.4517958 C101.88913,48.2984204 102.667795,49.9944231 104.083276,51.045764 C106.081246,52.5158338 108.791485,52.3893114 111.534922,50.6902963 C113.75623,49.3166245 120.254162,44.0689573 122.898002,41.9060267 C122.768225,42.6139497 122.698809,43.3278975 122.698809,44.0358205 C122.698809,46.1565769 123.272245,48.1688856 124.355736,49.5907564 C125.581078,51.2054232 127.425126,52.0579432 129.67058,52.0579432 C133.047814,52.0579432 137.076954,50.1962564 141.36565,46.6566416 C141.353577,46.7922014 141.353577,46.9367984 141.353577,47.0813954 C141.353577,48.123699 141.567861,49.4220598 142.431033,50.4583386 C143.324385,51.5277541 144.715721,52.0579432 146.565806,52.0579432 C150.489313,52.0699929 153.567757,49.6359429 158.692462,45.5902385 C158.72566,45.5631266 161.598875,43.2947607 164.294023,41.0083202 L165.401659,40.0563897 C165.869462,39.6738101 168.296,37.7036755 167.007279,36.2878296 C165.881534,35.0617673 164.143119,36.4173645 162.890614,37.5259417 L158.783004,40.9601212 Z M20.3737382,22.7077586 C15.5085891,22.7077586 11.4432319,21.8913878 8.62434281,20.3490195 C6.17064169,19.0145094 4.82759496,17.1919844 4.82759496,15.2218498 C4.82759496,12.8661232 6.78331245,10.513409 10.1907277,8.77221981 C13.018671,7.32926195 18.209773,5.61217222 26.8777061,5.61217222 L26.8897784,5.61217222 C32.4943577,5.60614735 39.2367541,6.62133899 47.458011,8.71197105 C46.10591,10.2844638 42.0526252,14.9657926 39.7317197,17.6558998 C39.7317197,17.6558998 38.2679496,19.3549149 38.1472263,19.4904747 C33.0074317,21.5660445 26.2107098,22.7981317 20.3737382,22.7077586 Z M20.2862138,54.552242 C20.1383277,54.3986076 20.0598576,54.1937618 20.0598576,53.9256548 C20.0598576,53.1755577 20.7147815,51.9675701 22.0095389,50.3438659 C24.3787337,47.3495024 27.131225,44.3340518 30.9490994,40.1678499 C35.8263209,34.8388469 42.4993014,27.5457342 52.4046483,15.8725365 C53.3161092,15.2489618 56.0263474,13.0950685 57.5414248,11.537638 C58.5313559,11.8599689 59.48507,12.245561 60.5293265,12.6793521 C51.6712542,23.7741617 33.3605474,46.734965 24.4209869,52.991799 C22.4381066,54.3714957 20.7419443,55.0161574 20.2862138,54.552242 Z M43.3504007,40.9902455 C45.8614453,39.0140861 48.9670523,37.9175586 52.2748708,37.7850114 C52.9358308,37.754887 53.4247602,37.3783322 53.5334112,36.8180187 C53.636026,36.2787923 53.3402539,35.5527947 52.4348291,35.1551529 C51.3151205,34.6581006 49.8392781,34.5195284 48.0103201,34.8960832 C49.3624211,33.2543044 51.2396684,30.8925529 53.3643986,28.2295576 C57.2245261,23.3735074 61.3774077,18.062579 64.6640996,14.3241433 C67.1419454,15.5562305 67.7546162,15.8906111 68.4276486,16.43285 C68.7837823,16.722044 69.4024892,17.1799346 69.8733101,17.451054 C71.222393,18.2132009 72.1791252,18.035467 72.6318376,17.3908053 C72.7767055,17.16186 72.831031,16.7130067 72.831031,16.4087505 C72.831031,15.848437 72.5684578,15.360422 71.844118,14.7910712 C70.6549935,13.848178 68.9678854,12.8058745 66.9518062,11.8659938 C72.0463296,6.19357278 76.8450808,5.48866226 78.7404367,5.49468714 C83.3520668,5.49468714 84.0341535,9.13069995 84.0341535,11.3117051 C84.0341535,14.8422826 81.0311613,19.692308 73.6881665,22.5601491 C70.0121419,24.0091318 67.5342961,23.8404353 65.6027233,23.4759303 C64.1027363,22.9849029 62.6570747,22.7318581 61.3170461,22.7318581 C59.9800355,22.7318581 58.8452365,23.0692511 58.0363904,23.7048756 C57.3180867,24.2621766 56.8412297,25.0393857 56.8231212,25.852744 C56.7989765,27.0034953 57.731564,28.1964208 59.6902996,28.1964208 C60.2727895,28.1964208 60.7194657,28.0729109 61.2385759,27.922289 C62.0293136,27.6933437 63.0645159,27.4222242 65.1711375,27.4222242 C71.1529771,27.4222242 72.7374705,31.3173067 72.7374705,33.6248343 C72.7314343,42.1078601 58.9931225,54.0130155 45.6773423,54.0009658 C40.730705,54.0009658 38.9681448,51.3711073 38.9681448,48.9099454 C38.9681448,45.9667933 40.6733614,43.0959398 43.3504007,40.9902455 Z M130.597131,48.2743209 C130.165545,48.2743209 129.84261,48.1628607 129.652471,47.9610273 C129.444224,47.7411194 129.335573,47.3495024 129.365753,46.8795621 C129.480441,44.5840842 132.558885,38.9779369 136.953213,34.2694961 C140.828431,30.1876424 144.833426,27.8409531 147.920925,27.8409531 C148.705626,27.8409531 149.384695,28.0939979 149.783082,28.4976646 C149.99133,28.7175726 150.090926,28.9465179 150.090926,29.2055876 L150.090926,29.2417369 C149.94304,31.937869 146.294178,37.7729616 139.814355,43.2676488 C136.126258,46.397572 132.67659,48.2743209 130.597131,48.2743209 L130.597131,48.2743209 Z" id="Fill-1" fill="#FFFFFF"></path>
                            <path d="M276.418808,45.2227211 C274.224662,47.4730124 272.220655,48.4851916 271.194507,48.4851916 C271.049639,48.4851916 270.983241,48.4610921 270.947024,48.4610921 C270.95306,48.3677065 271.025494,48.1357488 271.408791,47.539286 C272.027498,46.5662685 272.226691,46.0631913 272.226691,45.4546788 C272.226691,43.9605095 270.805174,42.7856587 268.98527,42.7856587 C268.638191,42.7856587 268.300166,42.8338577 267.977231,42.9031437 C269.510417,41.5595963 271.342393,39.872631 273.264911,38.1103547 C276.436916,35.1822648 279.995235,31.9017197 282.614931,29.841212 C282.566642,38.0139567 278.305109,43.303798 276.418808,45.2227211 Z M240.183709,27.6933437 L240.183709,27.6933437 C240.908048,27.5005476 241.457339,27.5095849 241.638424,27.7294929 C241.704822,27.8108287 241.741039,27.922289 241.741039,28.0578487 C241.741039,28.307881 241.650497,28.6422617 241.463376,29.0248413 C240.053931,32.0945158 234.573093,37.170474 226.602337,39.2972553 C230.80049,32.7452024 237.09621,28.5157393 240.183709,27.6933437 Z M315.994924,27.5638088 C316.20619,27.5638088 316.414438,27.6451447 316.526107,27.7686546 C316.601559,27.8409531 316.637776,27.9343387 316.63174,28.0277243 C316.526107,30.356339 310.71328,36.8662177 301.477947,39.3243673 C306.080523,32.1276526 313.483879,27.5638088 315.994924,27.5638088 Z M360.022712,26.0816893 C359.58509,25.0695101 358.320514,24.4308732 356.708858,24.4308732 C351.916143,24.4308732 349.477532,27.2414779 346.900089,32.082466 C345.698893,32.9108865 344.419226,33.9019786 343.100324,34.9593444 C344.500714,32.5825307 345.161674,30.6395081 345.161674,28.967605 C345.173746,26.2895475 343.100324,24.4308732 340.145621,24.4308732 C335.642642,24.4308732 328.803667,30.4708116 322.20312,36.3239789 C319.468737,38.7369418 316.873186,41.0263948 314.503991,42.8459074 C309.158967,46.9608979 305.437671,48.7171493 302.072509,48.7171493 C300.880367,48.7171493 300.098683,48.4369926 299.667098,47.8525796 C299.389434,47.4820497 299.241548,46.9608979 299.241548,46.2981615 C299.241548,45.5902385 299.407542,44.6955444 299.736513,43.6080543 C306.162011,42.3518676 312.0352,40.1678499 316.260515,37.4415934 C320.29871,34.8478842 322.619615,31.8987073 322.619615,29.3351224 C322.619615,26.4913808 319.87316,24.4971468 315.937581,24.4971468 C310.299802,24.4971468 302.30792,28.3952417 294.56352,34.9051205 C294.497122,34.9713942 289.287912,39.6105489 286.197395,42.1259347 C286.556547,40.4721062 286.622945,38.7550164 286.622945,37.7729616 C286.628981,36.4836381 286.517312,35.3238494 286.39357,34.1068244 C286.245684,32.6819412 286.097798,31.2088589 286.103835,29.2688488 C286.103835,27.9102392 286.233612,27.8590278 287.286923,27.5457342 L287.32314,27.5457342 C287.600804,27.4915103 291.156105,26.7173137 291.162141,24.0211816 C291.162141,22.4215769 289.921709,21.3943355 288.008245,21.3943355 C286.010274,21.3943355 284.223569,22.7077586 282.702456,25.2833932 C277.810144,29.2688488 274.037541,32.7180904 270.699541,35.7425783 L267.22271,38.8845513 C263.519523,42.1650964 258.292204,46.4548083 254.371715,48.2351592 C253.194662,48.7593235 251.884815,48.9551319 251.583006,48.6207513 C251.432102,48.4610921 251.51359,48.0453756 251.815399,47.5031368 C252.968306,45.3341813 269.776008,25.5695748 269.945021,25.3737663 L270.536565,24.6809055 L260.018547,25.2623061 L259.91895,25.3406295 C255.415971,28.7868587 252.0659,31.8474958 248.824479,34.7906479 L245.4231,37.8603223 C245.4231,37.8723721 244.952279,38.2880885 244.952279,38.2880885 C240.560969,42.1861835 233.20892,48.6990747 227.196899,48.6960623 C226.013811,48.6960623 225.186856,48.3797562 224.74018,47.7531691 C224.462517,47.3615522 224.320667,46.8373879 224.320667,46.1927262 C224.320667,45.4787783 224.50477,44.6051713 224.839777,43.5960045 C239.181705,40.7974495 247.740987,34.152011 247.740987,29.3049981 C247.740987,25.488239 243.373822,24.4790722 241.068007,24.4790722 C235.372885,24.4790722 227.57416,28.2747442 219.675838,34.8840335 L217.363986,36.8782675 C216.211079,37.8964716 215.209075,38.7821284 214.294596,39.4237777 C211.333857,41.454161 209.206109,41.9843501 208.080364,42.1078601 C213.681926,36.5499117 217.40624,30.9648515 217.412276,28.0488114 C217.412276,26.3708833 216.564194,25.1116842 215.073262,24.5995697 C213.280521,23.9790075 211.110519,24.6327065 209.915359,26.1509753 C208.783578,27.5638088 208.400281,29.1814881 207.956623,31.0642619 C207.621616,32.5011949 207.238319,34.1339364 206.435509,35.9685112 C203.076384,43.743614 194.547282,48.123699 189.842092,48.6267762 C188.659003,48.756311 187.850157,48.6207513 187.60871,48.2441965 C187.430644,47.9670522 187.533258,47.4730124 187.886374,46.8675123 C189.006083,45.0028131 192.172051,41.309564 196.167993,36.6191978 C198.998954,33.2934661 202.21623,29.5158687 205.530085,25.4460648 L206.082394,24.7682662 L195.989926,25.2562812 L195.884293,25.3858161 C185.906512,37.9356333 175.874406,47.0090969 170.345278,48.4791667 C169.026376,48.8225847 168.73664,48.659913 168.676279,48.5936394 C168.21753,48.123699 169.421745,46.5783183 170.215501,45.5721639 L170.245682,45.5330022 C173.287909,41.6198451 180.667121,32.9048616 184.638917,28.2295576 L187.566457,24.7622414 L186.661033,24.8044155 L177.259705,25.2623061 L177.166145,25.3496668 C174.920691,27.0968809 159.465091,40.5293425 158.810167,41.1017057 C157.18342,42.4542905 155.713614,43.6381786 154.41282,44.6322832 L160.092852,44.6322832 C161.185398,43.7526513 162.788,42.4542905 164.327222,41.1438799 C163.25882,42.8820567 162.609933,44.4937111 162.606915,46.1264525 C162.606915,49.7684902 165.262827,52.2176024 169.219533,52.2236273 C172.228562,52.2236273 176.538384,49.9914106 181.711377,45.7619475 C181.711377,45.8041217 181.699305,45.8372585 181.699305,45.8734077 C181.699305,47.4730124 182.236524,49.0033309 183.208346,50.1329952 C184.340127,51.4464183 186.030253,52.1332541 188.085568,52.1332541 C192.594583,52.1422915 198.220289,49.8377763 204.368123,45.4787783 C207.202102,45.8252087 212.643705,45.0871614 217.101413,41.7252804 C217.077269,42.0325491 217.05916,42.3187307 217.05916,42.6320243 C217.05916,44.9546141 217.843861,47.2832288 219.26236,48.9973061 C220.484684,50.4764132 222.754282,52.2326646 226.602337,52.2326646 C231.253202,52.2326646 235.828615,50.1751694 242.359746,45.132348 C243.814462,43.9665344 245.525715,42.5537009 247.445215,40.9209595 C246.373796,42.6440741 245.558914,44.4455121 245.552877,46.150552 C245.552877,49.7925897 248.172573,52.2386895 252.062881,52.2386895 C255.403899,52.2386895 259.070869,49.9642987 264.865588,45.4908281 C264.675448,45.9426938 264.569816,46.445771 264.569816,46.9608979 C264.569816,49.3979603 266.616076,52.2386895 272.356469,52.2507392 C279.005304,52.2507392 283.773875,48.6990747 291.961933,41.9271138 C291.943824,42.1861835 291.928734,42.4482656 291.928734,42.7103477 C291.928734,45.0329375 292.710417,47.3223905 294.168151,49.0304429 C295.399529,50.5065376 297.669127,52.2507392 301.487001,52.2507392 C307.330009,52.2567641 312.735395,48.6388259 316.791698,45.4908281 C318.590475,44.0900444 320.980797,41.9602506 323.503914,39.7189966 C329.153764,34.688225 336.185896,28.4344034 339.225106,28.0759233 C339.686872,28.0216994 339.834758,28.1060477 339.843812,28.1331596 C339.861921,28.1602716 339.849849,28.2958313 339.744216,28.4705527 C338.742212,29.9406225 333.533002,35.8118644 328.49884,41.50236 C325.049172,45.3884052 321.801715,49.0635797 319.87316,51.3409829 L319.260489,52.0549308 L329.781525,51.2234978 L329.88414,51.1270998 C334.184908,46.9608979 339.050057,42.3729546 343.112396,39.0833722 C342.852841,39.7551459 342.710991,40.3967952 342.710991,41.0083202 C342.710991,41.6379197 342.861895,42.2404074 343.145595,42.7736089 C343.930296,44.1924673 345.668712,44.9787136 348.049979,44.9787136 C351.481539,44.9787136 356.225965,42.038574 357.38189,40.188937 C357.894964,39.3755787 357.846675,38.5652328 357.252113,38.0320313 C356.65755,37.4928049 355.679692,37.4235188 355.054949,37.8904467 L354.221958,38.5351085 C352.495615,39.9027554 350.337686,41.6017705 347.902093,41.6017705 C346.546974,41.6017705 346.55301,40.7884122 346.55301,40.5203052 C346.55301,38.1374666 349.205905,35.2997499 351.704877,33.8417299 C357.040847,30.8262793 358.377857,29.8592867 359.238011,28.9344682 C360.448262,27.62707 360.252087,26.5938037 360.022712,26.0816893 L360.022712,26.0816893 Z" id="Fill-2" fill="#FFFFFF"></path>
                            <path d="M268.774005,14.0831482 C268.780041,11.7153719 271.680418,9.3084338 274.360475,9.3084338 C276.394663,9.3084338 278.027446,10.5555832 278.027446,12.7426133 C278.027446,14.9537428 275.504329,17.5323899 272.57377,17.5323899 C270.310209,17.5323899 268.774005,16.0683449 268.774005,14.0831482" id="Fill-3" fill="#FFFFFF"></path>
                            <path d="M340.528917,49.388923 C340.875997,49.4039852 341.123479,49.3226494 341.123479,48.9099454 C341.123479,48.4972413 340.676803,48.4972413 340.368959,48.4972413 L339.587275,48.4972413 L339.587275,49.388923 L340.528917,49.388923 Z M341.648626,51.2325351 L340.91825,51.2325351 L340.205982,49.8709131 L339.587275,49.8709131 L339.587275,51.2325351 L338.962532,51.2325351 L338.962532,48.0212761 L340.504773,48.0212761 C340.788472,48.0212761 341.141588,48.027301 341.383035,48.1809353 C341.660698,48.3677065 341.754259,48.6840125 341.754259,49.0183931 C341.754259,49.5967812 341.43736,49.8377763 340.875997,49.8709131 L341.648626,51.2325351 Z M342.593286,49.6028061 C342.593286,48.2803458 341.506776,47.2049054 340.175802,47.2049054 C338.835773,47.2049054 337.764354,48.2803458 337.764354,49.6028061 C337.764354,50.9584033 338.835773,52.0217939 340.175802,52.0217939 C341.506776,52.0217939 342.593286,50.9584033 342.593286,49.6028061 Z M337.20299,49.6028061 C337.20299,47.979102 338.530947,46.6566416 340.175802,46.6566416 C341.808584,46.6566416 343.145595,47.979102 343.145595,49.6028061 C343.145595,51.2506098 341.808584,52.5821074 340.175802,52.5821074 C338.530947,52.5821074 337.20299,51.2506098 337.20299,49.6028061 L337.20299,49.6028061 Z" id="Fill-4" fill="#FFFFFF"></path>
                            <path d="M340.528917,49.388923 C340.875997,49.4039852 341.123479,49.3226494 341.123479,48.9099454 C341.123479,48.4972413 340.676803,48.4972413 340.368959,48.4972413 L339.587275,48.4972413 L339.587275,49.388923 L340.528917,49.388923 Z M341.648626,51.2325351 L340.91825,51.2325351 L340.205982,49.8709131 L339.587275,49.8709131 L339.587275,51.2325351 L338.962532,51.2325351 L338.962532,48.0212761 L340.504773,48.0212761 C340.788472,48.0212761 341.141588,48.027301 341.383035,48.1809353 C341.660698,48.3677065 341.754259,48.6840125 341.754259,49.0183931 C341.754259,49.5967812 341.43736,49.8377763 340.875997,49.8709131 L341.648626,51.2325351 Z M342.593286,49.6028061 C342.593286,48.2803458 341.506776,47.2049054 340.175802,47.2049054 C338.835773,47.2049054 337.764354,48.2803458 337.764354,49.6028061 C337.764354,50.9584033 338.835773,52.0217939 340.175802,52.0217939 C341.506776,52.0217939 342.593286,50.9584033 342.593286,49.6028061 Z M337.20299,49.6028061 C337.20299,47.979102 338.530947,46.6566416 340.175802,46.6566416 C341.808584,46.6566416 343.145595,47.979102 343.145595,49.6028061 C343.145595,51.2506098 341.808584,52.5821074 340.175802,52.5821074 C338.530947,52.5821074 337.20299,51.2506098 337.20299,49.6028061 Z" id="Stroke-5" stroke="#FFFFFF" stroke-width="0.021"></path>
                            <path d="M92.0884864,89.3237412 C81.7334452,89.3237412 76.1379201,83.8320665 76.1379201,76.5479911 C76.1379201,69.369351 81.8300238,63.8294773 91.4245082,63.8294773 C97.4938723,63.8294773 101.0703,65.9351716 102.340913,65.9351716 C102.760426,65.9351716 103.092415,65.7062263 103.514947,65.1880869 L104.082346,65.4230571 L100.179966,72.7462942 L99.567295,72.511324 C99.6608555,72.3727518 99.7061268,72.2311672 99.7061268,72.0895827 C99.7061268,70.7731472 96.2745669,69.3181396 92.0884864,69.3181396 C86.7223356,69.3181396 83.1941971,72.3727518 83.1941971,76.6895757 C83.1941971,81.1027975 86.4869252,83.8802655 91.9919078,83.8802655 C94.2494335,83.8802655 96.2745669,83.4555117 98.3389354,82.5126186 L98.3389354,80.0695312 L93.2112131,80.0695312 C92.3208788,80.0695312 92.0884864,80.2623273 91.8500579,81.2473945 L91.1890978,81.2473945 L91.1890978,74.484471 L91.8500579,74.484471 C92.0884864,75.4665258 92.3208788,75.6563094 93.2112131,75.6563094 L106.526993,75.6563094 L106.526993,76.3612199 C105.543098,76.5992025 105.307688,76.8793593 105.307688,77.7740534 L105.307688,83.2175291 C105.307688,84.1092108 105.543098,84.3441809 106.526993,84.5791511 L106.526993,85.2388751 C101.58941,87.6759375 97.3550405,89.3237412 92.0884864,89.3237412" id="Fill-9" fill="#FFFFFF"></path>
                            <path d="M127.258202,79.5544043 L122.978561,68.7066146 L118.976584,79.5544043 L127.258202,79.5544043 Z M129.328607,88.2452883 C129.941278,88.0976788 130.221959,87.823547 130.221959,87.3987932 C130.221959,87.163823 130.131417,86.8324548 129.941278,86.3143155 L128.954365,83.6452953 L117.473579,83.6452953 L116.489684,86.3143155 C116.347834,86.6456837 116.302563,86.8806538 116.302563,87.115624 C116.302563,87.7211241 116.631534,88.0585171 117.292494,88.2452883 L117.292494,88.8989874 L108.866007,88.8989874 L108.866007,88.2452883 C110.233199,87.5403778 110.559152,86.3143155 111.075244,84.8623203 L117.567139,67.1100224 C117.853857,66.3599253 117.992689,65.8478109 117.992689,65.6580273 C117.992689,65.1368755 117.808586,64.9531167 117.292494,64.9019053 L117.292494,64.2451938 L129.564017,64.2451938 L129.564017,64.9019053 C129.050943,64.9531167 128.863822,65.1368755 128.863822,65.6580273 C128.863822,65.793587 129.002654,66.3599253 129.280318,67.1100224 L137.145441,86.8806538 C137.374815,87.4861539 137.516665,87.9109077 138.364746,88.2452883 L138.364746,88.8989874 L129.328607,88.8989874 L129.328607,88.2452883 L129.328607,88.2452883 Z" id="Fill-10" fill="#FFFFFF"></path>
                            <path d="M149.794225,74.8128267 L155.863589,74.8128267 C159.536595,74.8128267 161.320282,74.0597172 161.320282,71.9961971 C161.320282,69.7428934 159.536595,69.2277664 155.67345,69.2277664 L149.794225,69.2277664 L149.794225,74.8128267 Z M141.657474,88.2452883 C142.644387,88.0103181 142.837545,87.775348 142.837545,86.8806538 L142.837545,66.2695522 C142.837545,65.3718456 142.644387,65.1368755 141.657474,64.9019053 L141.657474,64.2451938 L158.827346,64.2451938 C165.18041,64.2451938 168.56368,67.3028185 168.56368,72.0383712 C168.56368,75.894292 166.402733,78.4789639 162.213634,79.6959889 L165.886641,85.4678204 C166.825265,86.9740394 167.483207,87.9591067 168.750801,88.2452883 L168.750801,88.8989874 L158.827346,88.8989874 L158.827346,88.2452883 C159.343438,88.0976788 159.627138,87.823547 159.627138,87.4409673 C159.627138,87.0222384 159.252896,86.6456837 158.920906,86.1335692 L154.879694,79.7923869 L149.794225,79.7923869 L149.794225,86.8806538 C149.794225,87.775348 150.029635,88.0103181 151.016548,88.2452883 L151.016548,88.8989874 L141.657474,88.8989874 L141.657474,88.2452883 L141.657474,88.2452883 Z" id="Fill-11" fill="#FFFFFF"></path>
                            <path d="M182.68227,83.1693301 L187.242593,83.1693301 C192.554418,83.1693301 195.234476,81.2925811 195.234476,76.5028045 C195.234476,71.6196423 192.463876,69.8814655 187.242593,69.8814655 L182.68227,69.8814655 L182.68227,83.1693301 Z M198.388372,67.0166369 C200.881308,69.0831694 202.390349,72.4661374 202.390349,76.5479911 C202.390349,80.6810562 200.881308,84.0610118 198.388372,86.1335692 C195.475922,88.5224326 191.993055,88.8989874 187.290882,88.8989874 L174.539484,88.8989874 L174.539484,88.2452883 C175.526397,88.0103181 175.716536,87.775348 175.716536,86.8806538 L175.716536,66.2695522 C175.716536,65.3718456 175.526397,65.1368755 174.539484,64.9019053 L174.539484,64.2451938 L187.290882,64.2451938 C191.993055,64.2451938 195.475922,64.624761 198.388372,67.0166369 L198.388372,67.0166369 Z" id="Fill-12" fill="#FFFFFF"></path>
                            <path d="M230.899157,81.855907 L231.557099,81.855907 L231.557099,90.0768507 L230.899157,90.0768507 C230.663747,89.088771 230.425318,88.8989874 229.538002,88.8989874 L207.23739,88.8989874 L207.23739,88.2452883 C208.227321,88.0103181 208.414442,87.775348 208.414442,86.8806538 L208.414442,66.2695522 C208.414442,65.3718456 208.227321,65.1368755 207.23739,64.9019053 L207.23739,64.2451938 L229.577237,64.2451938 C230.473608,64.2451938 230.709018,64.0162485 230.944428,63.0281688 L231.605389,63.0281688 L231.605389,71.2461 L230.944428,71.2461 C230.709018,70.2580203 230.473608,70.0230501 229.577237,70.0230501 L215.377159,70.0230501 L215.377159,73.5476027 L223.888151,73.5476027 C224.784522,73.5476027 225.019932,73.3608315 225.258361,72.3727518 L225.958556,72.3727518 L225.958556,80.0695312 L225.258361,80.0695312 C225.019932,79.084464 224.784522,78.8494938 223.888151,78.8494938 L215.377159,78.8494938 L215.377159,83.072932 L229.538002,83.072932 C230.425318,83.072932 230.663747,82.8439868 230.899157,81.855907" id="Fill-13" fill="#FFFFFF"></path>
                            <path d="M246.701837,88.2452883 L246.701837,88.8989874 L238.377966,88.8989874 L238.377966,88.2452883 C239.367897,88.0103181 239.558036,87.775348 239.558036,86.8806538 L239.558036,66.2695522 C239.558036,65.3718456 239.367897,65.1368755 238.377966,64.9019053 L238.377966,64.2451938 L249.20081,64.2451938 L249.20081,64.9019053 C248.53985,65.0947013 248.265204,65.3718456 248.265204,65.7062263 C248.265204,66.0285572 248.588139,66.3147388 249.013689,66.7846791 L259.404947,78.1445833 L259.404947,66.2695522 C259.404947,65.3718456 259.175573,65.1368755 258.185642,64.9019053 L258.185642,64.2451938 L266.648345,64.2451938 L266.648345,64.9019053 C265.66445,65.1368755 265.42904,65.3718456 265.42904,66.2695522 L265.42904,86.8806538 C265.42904,87.775348 265.66445,88.0103181 266.648345,88.2452883 L266.648345,88.8989874 L257.711803,88.8989874 L257.711803,88.2452883 C258.366727,88.0585171 258.650426,87.775348 258.650426,87.4409673 C258.650426,87.115624 258.327491,86.7872683 257.901942,86.3143155 L245.53384,72.7884683 L245.53384,86.8806538 C245.53384,87.775348 245.717943,88.0103181 246.701837,88.2452883" id="Fill-14" fill="#FFFFFF"></path>
                            <path d="M293.418737,71.2461 C293.418737,69.9296645 289.145132,68.4716445 284.527466,68.4716445 C280.625085,68.4716445 278.415849,69.6946943 278.415849,71.1466895 C278.415849,73.0776624 281.144196,72.9812643 286.413768,73.267446 C294.037444,73.6861749 297.701396,75.701496 297.701396,80.6810562 C297.701396,85.4678204 292.905663,89.1761317 284.959052,89.1761317 C276.677433,89.1761317 272.678474,86.9740394 272.162382,86.9740394 C271.830393,86.9740394 271.594982,87.2511837 271.217722,87.7211241 L270.605051,87.4409673 L274.042647,79.9309591 L274.655318,80.2141283 C274.555721,80.3557129 274.507432,80.4912726 274.507432,80.6328572 C274.507432,82.322835 279.076809,84.3923799 284.959052,84.3923799 C288.906704,84.3923799 291.070669,83.1693301 291.070669,81.4341657 C291.070669,78.7079092 288.058623,78.7561082 283.450011,78.5693371 C275.826334,78.2921927 272.014496,76.0358766 272.014496,71.5714433 C272.014496,67.1582214 276.580855,63.8716515 284.104935,63.8716515 C289.797038,63.8716515 293.705455,65.8929974 295.163189,65.8929974 C295.682299,65.8929974 295.962981,65.8478109 296.29497,65.2814725 L296.901605,65.5646417 L293.895594,72.1377817 L293.282924,71.8546125 C293.328195,71.5714433 293.418737,71.3816597 293.418737,71.2461" id="Fill-15" fill="#FFFFFF"></path>
                            <path d="M92.0884864,89.3237412 C81.7334452,89.3237412 76.1379201,83.8320665 76.1379201,76.5479911 C76.1379201,69.369351 81.8300238,63.8294773 91.4245082,63.8294773 C97.4938723,63.8294773 101.0703,65.9351716 102.340913,65.9351716 C102.760426,65.9351716 103.092415,65.7062263 103.514947,65.1880869 L104.082346,65.4230571 L100.179966,72.7462942 L99.567295,72.511324 C99.6608555,72.3727518 99.7061268,72.2311672 99.7061268,72.0895827 C99.7061268,70.7731472 96.2745669,69.3181396 92.0884864,69.3181396 C86.7223356,69.3181396 83.1941971,72.3727518 83.1941971,76.6895757 C83.1941971,81.1027975 86.4869252,83.8802655 91.9919078,83.8802655 C94.2494335,83.8802655 96.2745669,83.4555117 98.3389354,82.5126186 L98.3389354,80.0695312 L93.2112131,80.0695312 C92.3208788,80.0695312 92.0884864,80.2623273 91.8500579,81.2473945 L91.1890978,81.2473945 L91.1890978,74.484471 L91.8500579,74.484471 C92.0884864,75.4665258 92.3208788,75.6563094 93.2112131,75.6563094 L106.526993,75.6563094 L106.526993,76.3612199 C105.543098,76.5992025 105.307688,76.8793593 105.307688,77.7740534 L105.307688,83.2175291 C105.307688,84.1092108 105.543098,84.3441809 106.526993,84.5791511 L106.526993,85.2388751 C101.58941,87.6759375 97.3550405,89.3237412 92.0884864,89.3237412" id="Fill-16" fill="#FFFFFF"></path>
                            <path d="M127.258202,79.5544043 L122.978561,68.7066146 L118.976584,79.5544043 L127.258202,79.5544043 Z M129.328607,88.2452883 C129.941278,88.0976788 130.221959,87.823547 130.221959,87.3987932 C130.221959,87.163823 130.131417,86.8324548 129.941278,86.3143155 L128.954365,83.6452953 L117.473579,83.6452953 L116.489684,86.3143155 C116.347834,86.6456837 116.302563,86.8806538 116.302563,87.115624 C116.302563,87.7211241 116.631534,88.0585171 117.292494,88.2452883 L117.292494,88.8989874 L108.866007,88.8989874 L108.866007,88.2452883 C110.233199,87.5403778 110.559152,86.3143155 111.075244,84.8623203 L117.567139,67.1100224 C117.853857,66.3599253 117.992689,65.8478109 117.992689,65.6580273 C117.992689,65.1368755 117.808586,64.9531167 117.292494,64.9019053 L117.292494,64.2451938 L129.564017,64.2451938 L129.564017,64.9019053 C129.050943,64.9531167 128.863822,65.1368755 128.863822,65.6580273 C128.863822,65.793587 129.002654,66.3599253 129.280318,67.1100224 L137.145441,86.8806538 C137.374815,87.4861539 137.516665,87.9109077 138.364746,88.2452883 L138.364746,88.8989874 L129.328607,88.8989874 L129.328607,88.2452883 L129.328607,88.2452883 Z" id="Fill-17" fill="#FFFFFF"></path>
                            <path d="M149.794225,74.8128267 L155.863589,74.8128267 C159.536595,74.8128267 161.320282,74.0597172 161.320282,71.9961971 C161.320282,69.7428934 159.536595,69.2277664 155.67345,69.2277664 L149.794225,69.2277664 L149.794225,74.8128267 Z M141.657474,88.2452883 C142.644387,88.0103181 142.837545,87.775348 142.837545,86.8806538 L142.837545,66.2695522 C142.837545,65.3718456 142.644387,65.1368755 141.657474,64.9019053 L141.657474,64.2451938 L158.827346,64.2451938 C165.18041,64.2451938 168.56368,67.3028185 168.56368,72.0383712 C168.56368,75.894292 166.402733,78.4789639 162.213634,79.6959889 L165.886641,85.4678204 C166.825265,86.9740394 167.483207,87.9591067 168.750801,88.2452883 L168.750801,88.8989874 L158.827346,88.8989874 L158.827346,88.2452883 C159.343438,88.0976788 159.627138,87.823547 159.627138,87.4409673 C159.627138,87.0222384 159.252896,86.6456837 158.920906,86.1335692 L154.879694,79.7923869 L149.794225,79.7923869 L149.794225,86.8806538 C149.794225,87.775348 150.029635,88.0103181 151.016548,88.2452883 L151.016548,88.8989874 L141.657474,88.8989874 L141.657474,88.2452883 L141.657474,88.2452883 Z" id="Fill-18" fill="#FFFFFF"></path>
                            <path d="M182.68227,83.1693301 L187.242593,83.1693301 C192.554418,83.1693301 195.234476,81.2925811 195.234476,76.5028045 C195.234476,71.6196423 192.463876,69.8814655 187.242593,69.8814655 L182.68227,69.8814655 L182.68227,83.1693301 Z M198.388372,67.0166369 C200.881308,69.0831694 202.390349,72.4661374 202.390349,76.5479911 C202.390349,80.6810562 200.881308,84.0610118 198.388372,86.1335692 C195.475922,88.5224326 191.993055,88.8989874 187.290882,88.8989874 L174.539484,88.8989874 L174.539484,88.2452883 C175.526397,88.0103181 175.716536,87.775348 175.716536,86.8806538 L175.716536,66.2695522 C175.716536,65.3718456 175.526397,65.1368755 174.539484,64.9019053 L174.539484,64.2451938 L187.290882,64.2451938 C191.993055,64.2451938 195.475922,64.624761 198.388372,67.0166369 L198.388372,67.0166369 Z" id="Fill-19" fill="#FFFFFF"></path>
                            <path d="M230.899157,81.855907 L231.557099,81.855907 L231.557099,90.0768507 L230.899157,90.0768507 C230.663747,89.088771 230.425318,88.8989874 229.538002,88.8989874 L207.23739,88.8989874 L207.23739,88.2452883 C208.227321,88.0103181 208.414442,87.775348 208.414442,86.8806538 L208.414442,66.2695522 C208.414442,65.3718456 208.227321,65.1368755 207.23739,64.9019053 L207.23739,64.2451938 L229.577237,64.2451938 C230.473608,64.2451938 230.709018,64.0162485 230.944428,63.0281688 L231.605389,63.0281688 L231.605389,71.2461 L230.944428,71.2461 C230.709018,70.2580203 230.473608,70.0230501 229.577237,70.0230501 L215.377159,70.0230501 L215.377159,73.5476027 L223.888151,73.5476027 C224.784522,73.5476027 225.019932,73.3608315 225.258361,72.3727518 L225.958556,72.3727518 L225.958556,80.0695312 L225.258361,80.0695312 C225.019932,79.084464 224.784522,78.8494938 223.888151,78.8494938 L215.377159,78.8494938 L215.377159,83.072932 L229.538002,83.072932 C230.425318,83.072932 230.663747,82.8439868 230.899157,81.855907" id="Fill-20" fill="#FFFFFF"></path>
                            <path d="M246.701837,88.2452883 L246.701837,88.8989874 L238.377966,88.8989874 L238.377966,88.2452883 C239.367897,88.0103181 239.558036,87.775348 239.558036,86.8806538 L239.558036,66.2695522 C239.558036,65.3718456 239.367897,65.1368755 238.377966,64.9019053 L238.377966,64.2451938 L249.20081,64.2451938 L249.20081,64.9019053 C248.53985,65.0947013 248.265204,65.3718456 248.265204,65.7062263 C248.265204,66.0285572 248.588139,66.3147388 249.013689,66.7846791 L259.404947,78.1445833 L259.404947,66.2695522 C259.404947,65.3718456 259.175573,65.1368755 258.185642,64.9019053 L258.185642,64.2451938 L266.648345,64.2451938 L266.648345,64.9019053 C265.66445,65.1368755 265.42904,65.3718456 265.42904,66.2695522 L265.42904,86.8806538 C265.42904,87.775348 265.66445,88.0103181 266.648345,88.2452883 L266.648345,88.8989874 L257.711803,88.8989874 L257.711803,88.2452883 C258.366727,88.0585171 258.650426,87.775348 258.650426,87.4409673 C258.650426,87.115624 258.327491,86.7872683 257.901942,86.3143155 L245.53384,72.7884683 L245.53384,86.8806538 C245.53384,87.775348 245.717943,88.0103181 246.701837,88.2452883" id="Fill-21" fill="#FFFFFF"></path>
                            <path d="M293.418737,71.2461 C293.418737,69.9296645 289.145132,68.4716445 284.527466,68.4716445 C280.625085,68.4716445 278.415849,69.6946943 278.415849,71.1466895 C278.415849,73.0776624 281.144196,72.9812643 286.413768,73.267446 C294.037444,73.6861749 297.701396,75.701496 297.701396,80.6810562 C297.701396,85.4678204 292.905663,89.1761317 284.959052,89.1761317 C276.677433,89.1761317 272.678474,86.9740394 272.162382,86.9740394 C271.830393,86.9740394 271.594982,87.2511837 271.217722,87.7211241 L270.605051,87.4409673 L274.042647,79.9309591 L274.655318,80.2141283 C274.555721,80.3557129 274.507432,80.4912726 274.507432,80.6328572 C274.507432,82.322835 279.076809,84.3923799 284.959052,84.3923799 C288.906704,84.3923799 291.070669,83.1693301 291.070669,81.4341657 C291.070669,78.7079092 288.058623,78.7561082 283.450011,78.5693371 C275.826334,78.2921927 272.014496,76.0358766 272.014496,71.5714433 C272.014496,67.1582214 276.580855,63.8716515 284.104935,63.8716515 C289.797038,63.8716515 293.705455,65.8929974 295.163189,65.8929974 C295.682299,65.8929974 295.962981,65.8478109 296.29497,65.2814725 L296.901605,65.5646417 L293.895594,72.1377817 L293.282924,71.8546125 C293.328195,71.5714433 293.418737,71.3816597 293.418737,71.2461" id="Fill-22" fill="#FFFFFF"></path>
                            <path d="M159.181391,39.8063574 C153.821276,44.2557285 151.192526,45.9788431 149.949076,46.6325421 C149.076851,47.0723581 148.681482,47.0572959 148.593957,46.9729476 C148.52756,46.9217362 148.458144,46.6445919 148.669409,45.9607684 C149.248881,44.1713802 157.518427,33.3717895 166.270867,21.9215122 C170.384513,16.5593724 174.627937,11.001424 178.331125,6.04596331 L178.823072,5.3892518 L169.074666,5.74773194 C169.074666,5.74773194 154.910804,25.1237339 154.041596,26.3106346 C153.238786,24.2862761 151.071803,23.1415497 147.951106,23.1415497 C142.793203,23.1415497 134.535729,27.02157 126.918088,33.0434338 C126.248074,33.5645856 124.956335,34.6581006 123.299407,36.0468346 C118.790392,39.8184071 111.981598,45.5239649 109.395101,47.0241591 C108.649635,47.4639751 108.136561,47.4940994 107.976602,47.3284153 C107.828716,47.1988805 107.828716,46.7681019 108.166742,46.1626018 C108.616436,45.3552684 109.458481,44.349114 110.511792,43.0808776 L110.541973,43.0447283 C110.541973,43.0447283 110.82869,42.7073353 111.227077,42.2404074 L126.872817,23.439781 L116.750168,23.927796 L116.641517,24.0693806 C106.754279,36.537862 96.7734799,45.6022883 91.2020995,47.1627312 C89.7232391,47.5754353 89.4153946,47.3284153 89.3821957,47.2802163 C89.2916533,47.1808059 89.3007075,46.8554626 89.5693169,46.2680371 C90.2876205,44.6744574 100.799602,32.3053864 105.281455,27.042657 L108.323682,23.4518308 L107.427311,23.4849676 L97.7875556,23.927796 L97.6758866,24.0272065 C92.3067177,29.6122667 84.6890774,35.8118644 80.7172807,38.9417876 C81.1035953,37.7789865 81.2997707,36.5890734 81.2997707,35.417235 C81.2997707,34.0526005 81.0462517,32.7090531 80.5150692,31.4347918 C79.5009935,28.9465179 77.6026195,26.9522839 75.1217557,25.7081469 C80.4637618,24.7291045 84.8007464,22.6264227 87.7011238,19.5928975 C90.2212227,16.9570142 91.6517938,13.5830835 91.6517938,10.3296503 C91.6517938,5.452513 87.6075632,0.253044802 80.0985738,0.253044802 C75.7012275,0.253044802 70.2264258,1.31041058 62.9437926,9.03731437 C61.8542648,8.55833671 60.7949178,8.16069487 59.7295347,7.82028937 C61.3562812,5.40130155 61.6912883,3.62998794 61.7939031,2.22317933 L61.824084,1.801438 L52.7909629,1.801438 C52.7909629,1.801438 50.3221713,4.53974425 50.0414897,4.85906269 C41.2739599,2.33463954 33.0647753,1.05435334 25.6342561,1.05435334 C17.9864349,1.05435334 11.482467,2.54249778 6.83763794,5.3651523 C2.73606375,7.83535156 0.387995524,11.2544688 0.387995524,14.7247975 C0.375923194,20.1411613 6.23402143,25.6268111 19.3536263,25.6569355 C24.2549923,25.6750101 29.4732571,24.9098508 34.2056105,23.5331666 C32.7176958,25.2864056 30.930991,27.310764 29.0507255,29.4345329 C23.2680794,35.9926107 16.7158221,43.4062209 14.95628,47.7923308 C14.3647358,49.2654131 14.0719818,50.654147 14.0719818,51.8922591 C14.0719818,53.6545354 14.6484356,55.1215928 15.8103974,56.1458217 C17.7993138,57.93521 21.1282588,57.9231602 24.4934209,56.1307595 C27.1614058,54.6998514 30.6623816,51.9344332 34.6553048,48.1116493 C34.6824676,49.9823733 35.4158616,51.8621347 36.7558903,53.3773911 C38.4097995,55.2451027 41.7930701,57.4773194 48.5022676,57.4773194 C62.9015394,57.4773194 72.4899877,49.7504156 83.6116219,40.8064868 C83.6116219,40.8064868 84.4325404,40.1558002 85.2262961,39.508126 C83.3550849,42.47839 83.3550849,44.011721 83.3550849,44.8280917 C83.3550849,47.8616169 85.3953087,50.9252665 89.9707218,50.9252665 C92.9405151,50.9252665 97.1809211,48.7502861 102.263372,44.6413205 C102.236209,44.8732783 102.215083,45.0992111 102.215083,45.325144 C102.215083,47.1717686 103.002802,48.8677712 104.418283,49.9160997 C106.42229,51.3921944 109.132528,51.2626595 111.875965,49.5756942 C114.10331,48.1869602 120.60426,42.9302557 123.251118,40.7643127 C123.127377,41.4782605 123.057961,42.1952208 123.057961,42.8971189 C123.057961,45.0329375 123.628378,47.0331964 124.71187,48.4580796 C125.943248,50.0847962 127.784278,50.9252665 130.038786,50.9252665 C133.41602,50.9252665 137.451197,49.0635797 141.74291,45.5239649 C141.736874,45.6504873 141.733856,45.7950843 141.733856,45.9396814 C141.733856,46.9849974 141.951158,48.2863707 142.817347,49.3166245 C143.7107,50.38604 145.099018,50.9252665 146.943066,50.9252665 C150.875628,50.9252665 153.95709,48.4851916 159.081794,44.4364747 C159.139138,44.4093628 162.012352,42.1409969 164.695428,39.8605812 L165.812118,38.9146757 C166.270867,38.5200463 168.712496,36.5499117 167.408684,35.1280409 C166.288975,33.8959538 164.544524,35.2485385 163.289001,36.3631406 L159.181391,39.8063574 Z M20.6031125,21.5750818 C15.722873,21.5750818 11.6605339,20.7677484 8.83862667,19.2193552 C6.38492556,17.8727954 5.02678841,16.0532828 5.02678841,14.0801358 C5.02678841,11.7123594 6.99156015,9.35964525 10.4080296,7.62448089 C13.2359729,6.18453547 18.4361292,4.4644333 27.1100984,4.4644333 L27.1221708,4.4644333 C32.7327862,4.45238355 39.4812188,5.46757519 47.714548,7.55218237 C46.359429,9.1186502 42.3061441,13.8150412 39.9792024,16.5141858 C39.9792024,16.5141858 38.5184505,18.2041636 38.4037634,18.3487606 C33.2488784,20.4152932 26.4461203,21.6564177 20.6031125,21.5750818 Z M20.5276604,53.452702 C20.3767563,53.3050926 20.3073404,53.0972343 20.3073404,52.8291274 C20.3073404,52.0669805 20.950192,50.8680301 22.2358951,49.2383011 C24.6171623,46.2318879 27.3696535,43.2254746 31.1905461,39.0532478 C36.0768217,33.712195 42.7588565,26.4040201 52.6732577,14.7247975 C53.5847186,14.095198 56.2919386,11.9382923 57.8130522,10.3838742 C58.7939291,10.6941553 59.7597155,11.076735 60.7979359,11.5165509 C51.9368455,22.6444974 33.6110483,45.6143381 24.6594154,51.8862342 C22.6825713,53.2809931 20.9773547,53.9105926 20.5276604,53.452702 Z M43.6129738,39.872631 C46.1210004,37.8904467 49.2266074,36.7939192 52.5525344,36.6523346 C53.2014221,36.6252227 53.6994057,36.2516804 53.8080567,35.6883544 C53.9046353,35.149128 53.6118813,34.4231304 52.7064566,34.028501 C51.5807118,33.5404861 50.0988332,33.3808268 48.2668571,33.760394 C49.6310304,32.1276526 51.5082778,29.7628887 53.636026,27.0878436 C57.4901174,22.2348058 61.6490352,16.9088152 64.9508175,13.167367 C67.4286633,14.4024667 68.0443521,14.7247975 68.7143664,15.2790862 C69.0705002,15.5712927 69.6892071,16.0080962 70.160028,16.2912654 C71.5030747,17.0744993 72.462825,16.8817032 72.9125193,16.2249917 C73.0543691,16.0080962 73.1207669,15.5592429 73.1207669,15.2459493 C73.1207669,14.6916607 72.867248,14.2006333 72.1308359,13.6312825 C70.9447294,12.6853769 69.2546032,11.6400609 67.2385241,10.7062051 C72.3239932,5.03077166 77.1348167,4.32284871 79.0362087,4.32284871 C83.6448208,4.32284871 84.3299255,7.9648864 84.3299255,10.1398667 C84.3299255,13.6794815 81.3299515,18.5325193 73.9779024,21.4154226 C70.2958417,22.855368 67.8270502,22.6926964 65.883405,22.3342162 C64.386436,21.8462013 62.9437926,21.5991813 61.6007458,21.5991813 C60.2607172,21.5991813 59.1229001,21.9215122 58.317072,22.5601491 C57.583678,23.1204626 57.1188933,23.9036965 57.1007848,24.7110299 C57.0706039,25.8617813 58.0122457,27.0516943 59.9679632,27.0516943 C60.5564893,27.0516943 61.0001474,26.9281844 61.5102034,26.7805749 C62.3130133,26.5516296 63.3512337,26.2744853 65.4518192,26.2744853 C71.4457311,26.2744853 73.0181521,30.1786051 73.0181521,32.4831203 C73.0181521,40.9872331 59.2798404,52.8984134 45.9429336,52.8984134 C40.9842239,52.8984134 39.2216637,50.2625301 39.2216637,47.8104054 C39.2216637,44.8521912 40.9268804,41.9783252 43.6129738,39.872631 Z M130.962319,47.1326069 C130.536769,47.1326069 130.207798,47.0241591 130.014641,46.8283506 C129.806393,46.6114551 129.694724,46.2077884 129.730941,45.737848 C129.848647,43.4514075 132.921055,37.8362228 137.324437,33.1127198 C141.196637,29.0248413 145.198614,26.6811645 148.304221,26.6811645 C149.085905,26.6811645 149.764973,26.9191471 150.166378,27.3408884 C150.36859,27.5517591 150.474223,27.7807044 150.474223,28.0337492 L150.474223,28.0819482 C150.326337,30.7810927 146.677475,36.6131729 140.194634,42.1289471 C136.494464,45.2558579 133.03876,47.1326069 130.962319,47.1326069 L130.962319,47.1326069 Z" id="Fill-23" fill="#FFFFFF"></path>
                            <path d="M276.956026,44.0478702 C274.76188,46.2981615 272.751837,47.3043158 271.713617,47.3043158 C271.583839,47.3043158 271.508387,47.2922661 271.47217,47.2802163 C271.490279,47.1928556 271.556677,46.9578855 271.942991,46.3674476 C272.564716,45.3884052 272.769946,44.885328 272.769946,44.279828 C272.769946,42.7796338 271.342393,41.6077953 269.522489,41.6077953 C269.163337,41.6077953 268.837384,41.6439446 268.514449,41.7252804 C270.041599,40.381733 271.873575,38.6827179 273.80213,36.9204416 C276.977153,33.9893393 280.53849,30.7118067 283.149132,28.6392492 C283.115933,36.8210312 278.848364,42.1168974 276.956026,44.0478702 Z M240.672638,26.5034306 L240.672638,26.5034306 C241.403014,26.3106346 241.940233,26.3166594 242.124336,26.5395799 C242.193752,26.6118784 242.223932,26.7293635 242.223932,26.8709481 C242.223932,27.117968 242.13339,27.455361 241.964377,27.846978 C240.548897,30.9046027 235.04995,35.9956231 227.08523,38.119392 C231.271311,31.5583018 237.585139,27.3228138 240.672638,26.5034306 Z M316.56836,26.3588336 C316.791698,26.3588336 316.984855,26.4281196 317.108597,26.5516296 C317.174994,26.6329654 317.220266,26.7233386 317.220266,26.8167242 C317.10256,29.139314 311.286715,35.6642549 302.042329,38.1374666 C306.644904,30.9166525 314.066369,26.3588336 316.56836,26.3588336 Z M360.653492,24.8646643 C360.212852,23.8404353 358.945257,23.2108357 357.339637,23.2108357 C352.537868,23.2108357 350.108311,26.0154156 347.530869,30.8594161 C346.3176,31.6998864 345.037933,32.6879661 343.706958,33.739307 C345.116403,31.3775555 345.780381,29.4254956 345.780381,27.7475675 C345.780381,25.0815598 343.712994,23.2108357 340.746219,23.2108357 C336.24324,23.2108357 329.404265,29.256799 322.78561,35.1069539 C320.057263,37.5410039 317.461712,39.8304569 315.086481,41.6559944 C309.723349,45.7739973 306.011107,47.5332611 302.636891,47.5332611 C301.453802,47.5332611 300.657029,47.2591293 300.231479,46.6747163 C299.950797,46.2981615 299.814984,45.7800221 299.814984,45.1142733 C299.814984,44.4063504 299.974942,43.5176811 300.291841,42.4241661 C306.741483,41.1619545 312.611654,38.971912 316.849042,36.2486679 C320.875164,33.642909 323.21116,30.6756574 323.21116,28.1271347 C323.21116,25.2833932 320.452632,23.2981964 316.520071,23.2981964 C310.879274,23.2981964 302.872301,27.1872541 295.115829,33.712195 C295.046413,33.7754562 289.828148,38.4206358 286.752722,40.9420465 C287.105838,39.2852056 287.169218,37.5651034 287.169218,36.5770237 C287.169218,35.2846877 287.057549,34.1218866 286.933807,32.9169114 C286.797994,31.4769659 286.641053,30.0099086 286.641053,28.0759233 C286.641053,26.705264 286.773849,26.6630898 287.836214,26.3467838 C287.836214,26.3467838 287.848286,26.3467838 287.872431,26.3287092 C288.144058,26.2744853 291.696342,25.5153509 291.696342,22.807169 C291.696342,21.2166017 290.464964,20.1863479 288.554518,20.1863479 C286.544475,20.1863479 284.754752,21.5027833 283.239674,24.0814304 C278.347362,28.0759233 274.556651,31.5161276 271.224688,34.5526653 L267.74182,37.7006631 C264.038633,40.9872331 258.805278,45.2799574 254.872716,47.0633208 C253.7017,47.5965223 252.409961,47.7863059 252.084008,47.4489129 C251.942158,47.2922661 252.032701,46.8735372 252.3164,46.3192486 C253.475344,44.1623429 270.301154,24.3736368 270.476203,24.1748159 L271.055675,23.4819552 L260.525585,24.0693806 L260.425988,24.1446916 C255.923009,27.5939332 252.569919,30.6485455 249.325481,33.615797 L245.924102,36.682459 L245.441208,37.1102252 C241.055934,41.0113326 233.706903,47.5332611 227.679793,47.5332611 C226.496704,47.5332611 225.663713,47.2139427 225.211001,46.590368 C224.933337,46.198751 224.80356,45.6715744 224.80356,45.0329375 C224.80356,44.3159772 224.981627,43.448395 225.316634,42.4332034 C239.676671,39.6316359 248.235953,32.9681228 248.235953,28.1180974 C248.235953,24.2983259 243.868787,23.2981964 241.556936,23.2981964 C235.849742,23.2981964 228.047999,27.0878436 220.146658,33.712195 L217.837825,35.7004042 C216.675864,36.7246332 215.67386,37.6042651 214.753345,38.2549517 C211.795624,40.2913599 209.667876,40.8245614 208.542131,40.9420465 C214.152747,35.3840982 217.871024,29.7809633 217.871024,26.8619107 C217.871024,25.1869951 217.004835,23.927796 215.525974,23.4156815 C213.745305,22.7951193 211.572286,23.4518308 210.362035,24.9700996 C209.230254,26.3738958 208.85903,28.0036248 208.424426,29.8833862 C208.074328,31.3323689 207.684996,32.9681228 206.89124,34.7936603 C203.535132,42.5838253 194.987922,46.9729476 190.28575,47.4730124 C189.093607,47.6055596 188.281743,47.4639751 188.046332,47.0874203 C187.862229,46.8163009 187.961826,46.3162361 188.320978,45.7197734 C189.446723,43.8550742 192.606655,40.1437504 196.608633,35.4473594 C199.439594,32.1276526 202.662906,28.3470427 205.982797,24.2621766 L206.538124,23.5873905 L196.427548,24.0754055 L196.309842,24.2169901 C186.329043,36.7848819 176.302973,45.8493082 170.752719,47.3284153 C169.442872,47.6808706 169.150118,47.5091616 169.089756,47.4489129 C168.640062,46.9729476 169.82315,45.4366042 170.628978,44.4153877 L170.647087,44.3702011 C173.692332,40.4721062 181.089652,31.7360356 185.067485,27.0516943 L187.985971,23.5873905 L187.0896,23.6265522 L177.670165,24.0934801 L177.576604,24.1748159 C175.319078,25.92203 159.863478,39.3876285 159.208554,39.9539668 C157.581807,41.3035391 156.108983,42.4874273 154.799135,43.4845443 L160.497275,43.4845443 C161.589821,42.6079248 163.189405,41.3035391 164.728627,39.9901161 C163.663244,41.7252804 163.005302,43.3489846 163.005302,44.9787136 C163.005302,48.6267762 165.670268,51.0758884 169.623957,51.0758884 C172.642039,51.0758884 176.957897,48.8376468 182.136927,44.6081837 C182.136927,44.6413205 182.124854,44.6865071 182.124854,44.7136191 C182.124854,46.3192486 182.662073,47.8616169 183.62786,48.9732066 C184.768695,50.2926545 186.458821,50.9855152 188.529226,50.9855152 C193.038241,50.9855152 198.666965,48.6840125 204.820835,44.3189897 C207.657833,44.6744574 213.114526,43.9273727 217.566198,40.553442 C217.536017,40.8667356 217.523945,41.1679794 217.523945,41.4601859 C217.523945,43.791813 218.308646,46.1174152 219.730163,47.8405298 C220.961541,49.3166245 223.225103,51.0758884 227.08523,51.0758884 C231.742132,51.0758884 236.305472,49.0153807 242.860748,43.9605095 C244.315464,42.7977084 246.032753,41.3848749 247.946217,39.7370713 C246.88687,41.4692232 246.053879,43.2796985 246.053879,44.9787136 C246.053879,48.6267762 248.682629,51.0758884 252.569919,51.0758884 C255.923009,51.0758884 259.589979,48.7984851 265.384698,44.3159772 C265.200595,44.7738678 265.088926,45.2679077 265.088926,45.7950843 C265.088926,48.2261219 267.141222,51.0758884 272.893687,51.0758884 C279.542523,51.0758884 284.31713,47.5181989 292.51726,40.7372007 C292.499151,40.9992828 292.487079,41.2583525 292.487079,41.5144098 C292.487079,43.8550742 293.271781,46.1264525 294.726496,47.8616169 C295.96391,49.3166245 298.227472,51.0758884 302.060437,51.0758884 C307.906463,51.0758884 313.317885,47.4489129 317.380224,44.2918777 C319.172965,42.9031437 321.572341,40.7643127 324.101494,38.5200463 C329.754363,33.4832497 336.792531,27.2234033 339.834758,26.8619107 C340.287471,26.8046744 340.441393,26.8920351 340.459501,26.9191471 C340.471574,26.9522839 340.471574,27.0757938 340.341796,27.2505153 C339.342811,28.7205851 334.1336,34.6159265 329.087366,40.312447 C325.643734,44.1924673 322.390241,47.8736666 320.458668,50.1510699 L319.861088,50.8680301 L330.391178,50.0396097 L330.478702,49.9371868 C334.788524,45.7679724 339.662728,41.1740043 343.725067,37.878397 C343.465512,38.5531831 343.323662,39.1948324 343.323662,39.8003325 C343.323662,40.4389694 343.477584,41.0444694 343.752229,41.5716461 C344.536931,42.9935169 346.287419,43.7797632 348.66265,43.7797632 C352.118354,43.7797632 356.856744,40.8305863 358.012669,38.9809493 C358.519707,38.1615661 358.477454,37.3602576 357.888928,36.8210312 C357.28833,36.2727674 356.304435,36.2064938 355.694782,36.6764341 L354.846701,37.3301332 C353.120358,38.6947677 350.956392,40.3967952 348.517782,40.3967952 C347.159645,40.3967952 347.159645,39.5864494 347.159645,39.3183424 C347.159645,36.9294789 349.830648,34.0887498 352.335656,32.6247049 C357.653518,29.6122667 359.014673,28.6392492 359.874826,27.7114183 C361.073005,26.4040201 360.87683,25.3587041 360.653492,24.8646643 L360.653492,24.8646643 Z" id="Fill-24" fill="#FFFFFF"></path>
                            <path d="M269.296133,12.8721481 C269.296133,10.5013593 272.187456,8.08839636 274.897694,8.08839636 C276.919809,8.08839636 278.564664,9.3325333 278.564664,11.5165509 C278.564664,13.7427427 276.041547,16.3153649 273.098917,16.3153649 C270.829319,16.3153649 269.296133,14.8633697 269.296133,12.8721481" id="Fill-25" fill="#FFFFFF"></path>
                            <path d="M316.56836,26.3588336 C316.791698,26.3588336 316.984855,26.4281196 317.108597,26.5516296 C317.174994,26.6329654 317.220266,26.7233386 317.220266,26.8167242 C317.10256,29.139314 311.286715,35.6642549 302.042329,38.1374666 C306.644904,30.9166525 314.066369,26.3588336 316.56836,26.3588336 Z M267.74182,37.7006631 C265.831374,39.4026906 263.504432,41.3698127 261.1624,43.1140144 L272.450029,43.1140144 C271.933937,42.2193203 270.823283,41.6077953 269.522489,41.6077953 C269.163337,41.6077953 268.837384,41.6439446 268.514449,41.7252804 C270.041599,40.381733 271.873575,38.6827179 273.80213,36.9204416 C276.977153,33.9893393 280.53849,30.7118067 283.149132,28.6392492 C283.115933,35.7486032 279.883566,40.6859893 277.810144,43.1140144 L289.610846,43.1140144 C290.531362,42.3759671 291.497148,41.5716461 292.51726,40.7372007 C292.499151,40.9992828 292.487079,41.2583525 292.487079,41.5144098 C292.487079,42.0566486 292.529332,42.5838253 292.616857,43.1140144 L300.10472,43.1140144 C300.162063,42.8971189 300.228461,42.6681736 300.291841,42.4241661 C306.741483,41.1619545 312.611654,38.971912 316.849042,36.2486679 C320.875164,33.642909 323.21116,30.6756574 323.21116,28.1271347 C323.21116,25.2833932 320.452632,23.2981964 316.520071,23.2981964 C310.879274,23.2981964 302.872301,27.1872541 295.115829,33.712195 C295.046413,33.7754562 289.828148,38.4206358 286.752722,40.9420465 C287.105838,39.2852056 287.169218,37.5651034 287.169218,36.5770237 C287.169218,35.2846877 287.057549,34.1218866 286.933807,32.9169114 C286.797994,31.4769659 286.641053,30.0099086 286.641053,28.0759233 C286.641053,26.705264 286.773849,26.6630898 287.836214,26.3467838 C287.836214,26.3467838 287.848286,26.3467838 287.872431,26.3287092 C288.144058,26.2744853 291.696342,25.5153509 291.696342,22.807169 C291.696342,21.2166017 290.464964,20.1863479 288.554518,20.1863479 C286.544475,20.1863479 284.754752,21.5027833 283.239674,24.0814304 C278.347362,28.0759233 274.556651,31.5161276 271.224688,34.5526653 L267.74182,37.7006631 L267.74182,37.7006631 Z" id="Fill-26" fill="#FFFFFF"></path>
                            <path d="M80.7323711,43.1140144 C81.677031,42.3639173 82.6367812,41.5927332 83.6116219,40.8064868 C83.6116219,40.8064868 84.4325404,40.1558002 85.2262961,39.508126 C84.2424012,41.0836311 83.7685622,42.2434198 83.5512602,43.1140144 L91.8690958,43.1140144 C95.38818,38.6827179 101.973636,30.9287022 105.281455,27.042657 L108.323682,23.4518308 L107.427311,23.4849676 L97.7875556,23.927796 L97.6758866,24.0272065 C92.3067177,29.6122667 84.6890774,35.8118644 80.7172807,38.9417876 L80.7323711,43.1140144" id="Fill-27" fill="#FFFFFF"></path>
                            <path d="M245.441208,37.1102252 C243.479455,38.8604518 240.908048,41.137855 238.125376,43.1140144 L243.89595,43.1140144 C245.112237,42.1379845 246.46132,41.0113326 247.946217,39.7370713 C247.258094,40.8516734 246.684658,41.9963999 246.349651,43.1140144 L254.706722,43.1140144 C259.653359,36.9053794 270.328317,24.3314627 270.476203,24.1748159 L271.055675,23.4819552 L260.525585,24.0693806 L260.425988,24.1446916 C255.923009,27.5939332 252.569919,30.6485455 249.325481,33.615797 L245.924102,36.682459 L245.441208,37.1102252" id="Fill-28" fill="#FFFFFF"></path>
                            <path d="M240.672638,26.5034306 L240.672638,26.5034306 C241.403014,26.3106346 241.940233,26.3166594 242.124336,26.5395799 C242.193752,26.6118784 242.223932,26.7293635 242.223932,26.8709481 C242.223932,27.117968 242.13339,27.455361 241.964377,27.846978 C240.548897,30.9046027 235.04995,35.9956231 227.08523,38.119392 C231.271311,31.5583018 237.585139,27.3228138 240.672638,26.5034306 Z M200.133753,43.1140144 L212.867043,43.1140144 C214.454555,42.5145392 216.069229,41.6921436 217.566198,40.553442 C217.536017,40.8667356 217.523945,41.1679794 217.523945,41.4601859 C217.523945,42.0204994 217.572234,42.5687631 217.653722,43.1140144 L225.099332,43.1140144 C225.174784,42.8971189 225.235146,42.6681736 225.316634,42.4332034 C239.676671,39.6316359 248.235953,32.9681228 248.235953,28.1180974 C248.235953,24.2983259 243.868787,23.2981964 241.556936,23.2981964 C235.849742,23.2981964 228.047999,27.0878436 220.146658,33.712195 L217.837825,35.7004042 C216.675864,36.7246332 215.67386,37.6042651 214.753345,38.2549517 C211.795624,40.2913599 209.667876,40.8245614 208.542131,40.9420465 C214.152747,35.3840982 217.871024,29.7809633 217.871024,26.8619107 C217.871024,25.1869951 217.004835,23.927796 215.525974,23.4156815 C213.745305,22.7951193 211.572286,23.4518308 210.362035,24.9700996 C209.230254,26.3738958 208.85903,28.0036248 208.424426,29.8833862 C208.074328,31.3323689 207.684996,32.9681228 206.89124,34.7936603 C205.400307,38.2609766 202.889262,41.0444694 200.133753,43.1140144 L200.133753,43.1140144 Z" id="Fill-30" fill="#FFFFFF"></path>
                            <path d="M177.576604,24.1748159 C176.121888,25.3044802 169.201425,31.2751326 164.284969,35.5437574 C163.925817,35.7998146 163.593828,36.0920211 163.289001,36.3631406 L159.181391,39.8063574 C157.569735,41.1438799 156.214616,42.23137 155.070762,43.1140144 L160.956023,43.1140144 C162.012352,42.2645069 163.394634,41.137855 164.728627,39.9901161 C164.067667,41.0715814 163.572701,42.1078601 163.279947,43.1140144 L171.652108,43.1140144 C175.09574,38.8243025 181.478985,31.2841699 185.067485,27.0516943 L187.985971,23.5873905 L187.0896,23.6265522 L177.670165,24.0934801 L177.576604,24.1748159" id="Fill-31" fill="#FFFFFF"></path>
                            <path d="M178.095714,43.1140144 L190.201243,43.1140144 C191.758574,41.137855 194.010064,38.5019716 196.608633,35.4473594 C199.439594,32.1276526 202.662906,28.3470427 205.982797,24.2621766 L206.538124,23.5873905 L196.427548,24.0754055 L196.309842,24.2169901 C189.854164,32.3475606 183.365286,39.0170986 178.095714,43.1140144" id="Fill-32" fill="#FFFFFF"></path>
                            <path d="M98.240268,43.1140144 L110.496701,43.1140144 C110.496701,43.1019647 110.502737,43.1019647 110.511792,43.0808776 L110.541973,43.0447283 C110.541973,43.0447283 110.82869,42.7073353 111.227077,42.2404074 L126.872817,23.439781 L116.750168,23.927796 L116.641517,24.0693806 C110.113405,32.2873118 103.555111,39.0321608 98.240268,43.1140144" id="Fill-33" fill="#FFFFFF"></path>
                            <path d="M23.6906109,21.8763256 C23.6906109,21.8763256 26.6060787,21.7377535 28.9088756,21.2678131 C31.2026184,20.8099226 32.7508947,20.5659151 34.8756248,19.9302906 C37.0124273,19.2886413 38.6301195,18.6741039 38.6301195,18.6741039 L39.8252802,20.3279325 C39.8252802,20.3279325 37.7910926,21.1834649 35.9530803,21.686542 C34.1060138,22.1685321 31.0396419,22.9457412 28.9813096,23.2379477 C28.9813096,23.2379477 25.7459251,23.783199 23.1986635,23.8585099 L23.6906109,21.8763256" id="Fill-53" fill="#FFFFFF"></path>
                            <path d="M102.118504,26.0786768 L102.106432,26.0907266 L102.097378,26.1057888 C102.043052,26.1570002 97.1235775,31.7360356 93.9938259,35.3961479 C93.9213919,35.4774838 87.0009286,43.7195145 88.1357276,47.1988805 C88.3711381,47.9098159 88.9204291,48.3737314 89.795673,48.584602 L89.828872,48.4159055 C89.0290801,48.2261219 88.5099699,47.8104054 88.2896499,47.1476691 C88.2141978,46.8916118 88.1779808,46.6114551 88.1779808,46.2981615 C88.1779808,42.5778004 94.0602237,35.5768942 94.1296396,35.4955584 C97.2080838,31.8836451 102.037016,26.4040201 102.209047,26.2292987 C102.230173,26.217249 107.448438,23.8705597 107.448438,23.8705597 L102.118504,26.0786768" id="Fill-77" fill="#FFFFFF"></path>
                            <path d="M118.277318,43.0266537 C112.564088,47.8616169 108.779412,51.0578137 105.809619,49.4461593 L105.740203,49.5877439 C108.809593,51.2596471 112.618413,48.0212761 118.392005,43.1501637 C120.193801,41.6138202 122.152536,39.9539668 124.443261,38.1495164 L124.518713,37.8904467 C122.237042,39.6979096 120.094204,41.4933227 118.277318,43.0266537" id="Fill-78" fill="#FFFFFF"></path>
                            <path d="M125.997573,23.8585099 L120.703856,26.0395151 L120.691784,26.0515649 C120.646513,26.1118136 115.995648,31.7992968 112.841751,35.4473594 C112.096285,36.3300038 105.495738,44.156318 106.618465,47.3495024 C106.856894,48.0453756 107.427311,48.4701294 108.323682,48.632801 L108.583237,48.4821791 L108.356881,48.4731418 C107.517854,48.316495 106.989689,47.9218657 106.763333,47.2922661 C106.681845,47.0603083 106.651664,46.7982262 106.651664,46.5030073 C106.651664,43.0387035 112.27737,36.366153 112.977565,35.5648445 C116.0711,31.958956 120.646513,26.3738958 120.812507,26.1780873 C120.836652,26.1570002 125.007642,24.2621766 125.997573,23.8585099" id="Fill-79" fill="#FFFFFF"></path>
                            <path d="M127.141427,49.1027414 L127.04183,49.2383011 C127.826531,49.8438012 132.163516,52.5248711 143.245915,42.6079248 L143.423982,42.2675193 C132.429107,52.0940925 127.901983,49.6992041 127.141427,49.1027414" id="Fill-80" fill="#FFFFFF"></path>
                            <path d="M144.963204,25.4972763 C141.115149,26.3166594 136.844562,29.2929483 132.263113,34.3538443 C129.936171,36.9204416 127.023721,42.0626735 127.826531,45.4908281 C128.131358,46.8434128 128.994529,47.8104054 130.385865,48.3496319 L130.696728,48.2803458 L130.434155,48.2110597 C129.118271,47.6748457 128.279244,46.7440023 127.98649,45.448654 C127.201788,42.0837606 130.084057,36.9957526 132.389872,34.4653046 C142.741895,23.0511765 148.84144,25.4701643 149.949076,26.0696395 C149.949076,26.0786768 149.885697,25.9461295 149.885697,25.9461295 C149.137212,25.5394504 147.543665,24.9490125 144.963204,25.4972763" id="Fill-81" fill="#FFFFFF"></path>
                            <path d="M172.789925,7.74196597 L172.771817,7.75100329 L169.98009,11.4532897 C164.737681,18.4150342 153.833349,32.8958243 148.566795,40.6739395 C146.626168,43.5447931 146.493372,45.0449872 146.608059,46.1324774 C146.671439,46.6566416 147.024554,47.2139427 147.498393,47.5633855 C147.806238,47.7772686 148.298185,47.9218657 148.916892,47.7863059 L148.916892,47.7531691 C148.352511,47.8857164 147.869618,47.6206218 147.591954,47.4218009 C147.154332,47.1145322 146.831397,46.5994053 146.777072,46.1053655 C146.761981,45.9517311 146.746891,45.7679724 146.746891,45.5812012 C146.746891,44.5509474 147.096988,43.1381139 148.69959,40.7763624 C153.975199,32.9952348 164.873495,18.5144447 170.115904,11.5496878 C170.115904,11.5496878 172.838214,7.92271226 172.865377,7.886563 C172.910648,7.87150081 176.957897,6.18453547 178.032335,5.78689363 L172.789925,7.74196597" id="Fill-82" fill="#FFFFFF"></path>
                            <path d="M87.5411654,49.5967812 C91.6970651,51.9675701 101.140645,44.2135543 104.385084,41.0745938 C104.385084,41.0745938 103.938408,41.2583525 103.890119,41.3035391 C100.558155,44.5057608 91.6004864,51.7627243 87.6075632,49.4461593 L87.5411654,49.5967812" id="Fill-83" fill="#FFFFFF"></path>
                            <path d="M37.7820383,52.7809283 L37.7609118,52.7628537 C39.5325262,54.8052868 41.8896487,56.1307595 47.9137415,56.1307595 C49.3322403,56.1307595 50.7688476,55.9650754 52.1420751,55.769267 C54.9941631,55.5764709 65.2465896,54.1726748 77.874247,43.6773403 C77.8863193,43.6803528 83.650857,39.3876285 88.1025287,35.6763047 L88.3560477,35.3358992 C88.1900531,35.4714589 88.002932,35.6130435 87.8309013,35.7486032 C83.4969348,39.2761682 77.8833012,43.4664697 77.8833012,43.4664697 C65.225463,54.0521772 54.9700185,55.4047619 52.1179305,55.6065953 C50.7416848,55.8054162 49.3322403,55.9711003 47.9137415,55.9711003 C41.9500103,55.9711003 39.6200506,54.6576773 37.8816351,52.6604308 L37.8665447,52.6574184 L37.8665447,52.6393438 L37.7820383,52.7809283" id="Fill-84" fill="#FFFFFF"></path>
                            <path d="M3.11332407,14.0138621 C3.64752468,8.8264437 11.3949426,3.25343317 27.2066771,3.25343317 C34.4530933,3.24138342 42.9882307,5.18440601 50.4157319,7.10332909 L50.7990284,7.03705545 L50.5032563,6.96475694 C43.069719,5.04583386 34.4772379,3.07569932 27.2066771,3.09076151 C19.9180077,3.09076151 13.7581012,4.27766213 9.36377303,6.51289122 C5.51571778,8.470976 3.22499312,11.1309589 2.94732953,13.9957875 L2.94431145,14.0379617 C2.91413062,14.3392055 2.89300404,15.33331 3.27328244,16.5202107 C3.45738548,17.1196859 3.74108524,17.7372357 4.19983379,18.4150342 C4.46240697,18.791589 5.10525855,19.5326488 5.96843016,20.2556339 C7.46238103,21.5027833 9.33661029,22.3281914 10.7551091,22.710771 C13.3898952,23.4277313 16.4804117,23.9458706 20.0417491,23.975995 C26.5155362,24.0272065 34.003399,22.6716093 39.5928879,20.4574673 C39.5898698,20.4634922 40.0154194,20.3158827 40.0154194,20.3158827 L39.8132079,20.3158827 L39.2880615,20.4634922 C33.7196992,22.6716093 26.4913915,23.8585099 20.0417491,23.8103109 C15.6534571,23.783199 12.2701865,23.054189 10.3778488,22.4456765 C9.01669354,22.002848 7.74909887,21.3611987 6.91007192,20.7918479 C5.18674678,19.6019349 4.2843401,18.2493501 4.12438172,17.9963053 C4.08212857,17.939069 3.87991704,17.5504645 3.80748306,17.4088799 C3.38193342,16.5894967 2.9865646,15.2549867 3.1072879,14.0439865 L3.11332407,14.0138621" id="Fill-85" fill="#FFFFFF"></path>
                            <path d="M64.0635012,11.5918619 C57.293942,19.279604 49.2326435,29.5279185 46.2055067,33.395889 L44.7809718,35.197327 L45.0224184,35.1400907 L46.3322662,33.4952995 C49.3533668,29.6393787 57.3784484,19.4211886 64.1419714,11.7485087 C66.9004988,13.1071183 68.0232255,13.9024019 68.9135599,14.5440513 C69.3179829,14.824208 69.6650624,15.0862901 70.0906121,15.33331 C70.8119338,15.7490265 71.3099174,15.9508599 71.7596117,15.7791509 C71.7807383,15.7791509 72.0101126,15.6375663 72.2153422,15.4688698 L72.0312391,15.5381558 C71.8622265,15.5923797 71.6901958,15.6255165 71.6901958,15.6255165 C71.3099174,15.7791509 70.8451327,15.58033 70.1721003,15.1857006 C69.758623,14.947718 69.4145616,14.700698 69.0131566,14.4145164 C68.1047137,13.7578049 66.9668966,12.9474591 64.1630979,11.5587251 L64.1087724,11.5496878 L64.0635012,11.5918619" id="Fill-86" fill="#FFFFFF"></path>
                            <path d="M57.6108407,9.27529698 C59.1983521,9.65486418 60.7013572,10.2513269 61.8361563,10.7423543 C62.2164347,10.8899638 62.5393695,11.0315484 62.8230693,11.1460211 C62.1228741,11.2303693 62.0987295,11.2363942 61.4709683,11.3478544 L63.1852392,11.2785683 L63.3270891,11.1791579 L63.2003296,11.1128842 C62.8592863,10.9893743 62.4156281,10.8056155 61.899536,10.5857076 C60.7375742,10.0826304 59.1742075,9.4590557 57.5263344,9.07647606 L57.4056111,9.05840143 L57.6108407,9.27529698" id="Fill-87" fill="#FFFFFF"></path>
                            <path d="M79.2535107,2.92206498 C75.8611859,2.86482865 71.3099174,3.48237847 64.6640996,10.7875409 L64.5614848,11.1580708 C71.1710856,3.88905762 75.8792944,3.02448787 79.2535107,3.0817242 L79.2535107,2.92206498" id="Fill-88" fill="#FFFFFF"></path>
                            <path d="M55.2507002,6.57615242 C51.0917824,11.4954639 45.2668831,17.5685391 39.4963092,24.0151567 C30.5416583,33.9893393 22.9602349,43.5869672 19.7248504,47.8435423 C17.8657116,50.2926545 17.3737641,53.1062717 18.430093,54.5763415 L18.5568525,54.4829559 C18.2127911,53.9979533 18.0437785,53.3984782 18.0437785,52.7357418 C18.0437785,51.410269 18.6594673,49.5094205 19.8576461,47.95199 C23.0839763,43.6984274 30.677472,34.1007995 39.6200506,24.1266169 C45.3936425,17.6799993 51.2185419,11.6039116 55.3623692,6.68761263 L61.422679,2.17196789 L55.2507002,6.57615242" id="Fill-89" fill="#FFFFFF"></path>
                            <path d="M35.7689773,45.4787783 L35.759923,45.4848032 C35.759923,45.4848032 35.3041926,45.7800221 34.8756248,46.1806764 C34.769992,46.274062 34.6643591,46.3553978 34.5707985,46.4548083 L34.5074188,46.5090322 L32.0416453,48.8105349 C29.2378466,51.4644929 27.3998344,53.2056821 23.8626416,54.8625231 C22.1061176,55.7090182 20.5155881,55.8295157 19.417006,55.2451027 C18.6685215,54.8474609 18.2127911,54.160625 18.0890497,53.2448438 C18.0890497,53.2448438 18.02567,52.6815179 18.02567,52.6724806 L17.8657116,52.7357418 L17.9230552,53.2629184 C18.0558508,54.2419608 18.5477982,54.964946 19.3385359,55.3927122 C20.4914434,56.0072496 22.1242261,55.8716899 23.9380937,55.0221823 C27.4873588,53.3412418 29.3434795,51.5910153 32.1533144,48.9310324 L34.6130517,46.6325421 L34.6824676,46.5753058 C34.8635525,46.4035968 35.2257224,46.0752411 35.6331636,45.7800221 C35.6210912,45.7800221 35.6090189,45.7830346 35.6090189,45.7830346 C35.759923,45.6745868 35.9379899,45.5510769 36.1100206,45.448654 C36.1492557,45.4456415 36.1703823,45.4366042 36.1854727,45.4245544 C36.3695757,45.3311689 36.5506607,45.249833 36.7257095,45.2136838 C37.2387835,45.0720992 37.1633314,45.0449872 37.1633314,45.0449872 C36.7558903,44.933527 36.2639428,45.1564475 35.7689773,45.4787783" id="Fill-90" fill="#FFFFFF"></path>
                            <path d="M73.6308229,28.9555552 C72.3722825,26.8528734 69.4960498,24.9911867 64.3200382,25.0092613 C61.205377,25.021311 60.3844586,25.3406295 58.7456398,25.7563459 L58.5886995,25.5394504 C60.2456268,25.1116842 61.0816356,24.7893533 64.2687308,24.7893533 C69.5352849,24.7652538 72.4869696,26.6389903 73.7575824,28.7356473 L73.6308229,28.9555552" id="Fill-91" fill="#FFFFFF"></path>
                            <path d="M37.2086027,48.000189 C37.2086027,43.3610343 40.5375477,39.164708 44.7025016,37.0319018 C47.1924197,35.7486032 49.8543686,35.0075434 52.68533,35.4835086 L53.0776807,35.5286952 L52.5947875,35.7365534 C49.8302239,35.2756504 47.2226006,36.0076729 44.7749356,37.2608471 C40.6914699,39.3484668 37.4289227,43.4604448 37.4289227,48.0122388 C37.4289227,50.6270351 39.0466149,53.6545354 42.9278691,54.3684832 L42.813182,54.5642917 C38.8474215,53.8352817 37.2086027,50.6782465 37.2086027,48.000189" id="Fill-92" fill="#FFFFFF"></path>
                            <path d="M79.2535107,3.0817242 C81.3631504,3.11184858 84.016045,4.14511486 84.6287157,5.63024685 L84.7796198,5.55794834 C84.1397863,4.02160489 81.4114397,2.95821424 79.2535107,2.92206498 L79.2535107,3.0817242" id="Fill-93" fill="#FFFFFF"></path>
                            <path d="M70.7244094,25.0122737 L72.2726857,25.997341 L72.2575953,25.997341 C73.0392787,26.4763187 73.962812,27.1119431 73.9779024,27.117968 C76.6006161,29.3531971 77.8048311,31.7902595 77.7535237,34.6189389 C77.6690174,40.5413923 71.7988468,45.8252087 69.2606394,47.8616169 L69.3632542,47.9760895 C71.9195701,45.9396814 77.8350119,40.6076659 77.9195182,34.6189389 C77.9708256,31.7480854 76.7485022,29.256799 74.0774991,26.9974705 C74.0563725,26.9824083 73.1358574,26.3467838 72.3511559,25.8587688 C72.3511559,25.8587688 71.1952303,25.1116842 71.1801399,25.0936096 L70.7244094,25.0122737" id="Fill-94" fill="#FFFFFF"></path>
                            <path d="M85.5673394,3.651075 L85.4767969,3.78060984 C88.1357276,5.46757519 88.8147962,7.49494605 88.6035304,10.5013593 C88.2353244,15.7490265 83.726309,22.6716093 70.9447294,24.9821493 L70.7244094,25.0122737 L71.1801399,25.0936096 C83.8802312,22.7318581 88.404337,15.7791509 88.769525,10.5194339 C88.7906516,10.272414 88.7966877,10.0133443 88.7966877,9.77234927 C88.7966877,7.10332909 88.0482032,5.2235677 85.5673394,3.651075" id="Fill-95" fill="#FFFFFF"></path>
                            <path d="M181.491057,26.0395151 L181.472949,26.0515649 L181.457858,26.0636146 C181.385424,26.1539878 173.933778,34.9653693 170.444875,39.556325 C167.149129,43.93641 167.049532,46.0963282 167.532425,47.1446566 C167.858378,47.8405298 168.555555,48.2562463 169.454944,48.3014329 C169.059575,48.2863707 168.105861,47.9760895 167.686348,47.0723581 C167.568642,46.8163009 167.481118,46.4849327 167.481118,46.0631913 C167.481118,44.8431539 168.169241,42.8579572 170.577671,39.6677852 C174.012249,35.1280409 181.273755,26.5365674 181.575563,26.190137 C181.605744,26.16905 187.095636,23.8585099 187.095636,23.8585099 L181.491057,26.0395151" id="Fill-96" fill="#FFFFFF"></path>
                            <path d="M184.385398,41.0866436 C178.207383,46.4548083 173.782874,49.2654131 170.716502,49.78054 C170.272844,49.8498261 170.18532,49.8799504 169.762788,49.9371868 L169.454944,50.021535 C172.563569,50.193244 177.377411,47.3856517 184.491031,41.213166 C185.230461,40.5835664 185.888403,39.7792454 185.716373,39.9328798 C185.888403,39.7611708 185.127847,40.4540315 184.385398,41.0866436" id="Fill-97" fill="#FFFFFF"></path>
                            <path d="M205.659862,23.8585099 L200.157898,25.9280549 L200.145825,25.9401047 C200.064337,26.04554 191.758574,36.4053147 189.431632,39.2611061 C186.081561,43.3489846 185.927638,45.5902385 186.389405,46.7560521 C186.736485,47.6537587 187.602674,48.2261219 188.806889,48.4038558 L188.82198,48.2261219 C188.022188,48.123699 186.971895,47.7682313 186.537291,46.7018282 C186.434676,46.4276963 186.359224,46.0903033 186.359224,45.6745868 C186.359224,44.4063504 187.059419,42.4121163 189.555374,39.3665414 C191.858171,36.5529242 199.946632,26.4492067 200.263531,26.0636146 C200.305784,26.04554 205.659862,23.8585099 205.659862,23.8585099" id="Fill-98" fill="#FFFFFF"></path>
                            <path d="M248.106175,37.6615014 C245.082057,40.2702728 241.321526,43.5176811 239.700815,44.5780593 L239.399007,44.7859176 C234.253176,48.2381717 230.20291,49.8377763 227.302532,49.53352 L227.293478,49.6811295 C230.208946,49.9974355 234.32561,48.3857811 239.483513,44.9184648 L239.78834,44.7136191 C241.415086,43.6381786 245.181653,40.3967952 248.211808,37.7910362 C250.080001,36.1763694 251.465301,34.9533195 252.298292,34.32372 L252.591046,33.9170408 C251.773146,34.5586901 249.968332,36.0468346 248.106175,37.6615014" id="Fill-99" fill="#FFFFFF"></path>
                            <path d="M244.970387,24.8646643 C245.670583,25.0936096 246.102168,25.7442962 246.250054,26.5516296 C246.536772,28.1602716 245.601167,30.865441 242.112263,33.6850831 C236.522774,38.1886781 230.652604,40.381733 222.512835,41.0233824 L222.482654,41.1890664 C230.664676,40.5444047 236.598226,38.3423124 242.21186,33.8116055 C245.755089,30.9497893 246.708803,28.1723213 246.406995,26.5245177 C246.256091,25.6509106 245.743017,25.0815598 244.988496,24.8224901 L244.970387,24.8646643" id="Fill-100" fill="#FFFFFF"></path>
                            <path d="M242.341638,25.6960972 C242.257131,25.6388609 242.193752,25.605724 242.139426,25.584637 C240.838632,25.1809703 236.634443,24.6628309 229.632492,30.7509684 C222.829734,36.6643844 221.408217,41.9331387 222.346841,44.885328 C222.989692,46.9398108 224.74018,48.220097 227.275369,48.4851916 L227.293478,48.3285448 C224.827705,48.0634502 223.131542,46.8283506 222.494727,44.8401415 C221.580248,41.9331387 223.007801,36.7366829 229.738125,30.8774908 C238.074069,23.6235398 242.341638,25.7744206 242.513668,25.873831 C242.513668,25.873831 242.41709,25.7563459 242.341638,25.6960972" id="Fill-101" fill="#FFFFFF"></path>
                            <path d="M320.008974,24.8978011 C320.799712,25.4159404 321.035122,25.7232091 321.219225,26.5636794 C321.572341,28.1452094 320.528084,30.865441 317.033145,33.6850831 C311.449692,38.1886781 305.579521,40.381733 297.445789,41.0233824 L297.457861,41.186054 C305.636865,40.5444047 311.510053,38.3423124 317.138777,33.8116055 C320.694079,30.9497893 321.641757,28.1723213 321.342966,26.5245177 C321.207153,25.7563459 320.67597,25.1357837 320.150824,24.9098508 C320.057263,24.8887638 319.927486,24.8646643 319.909377,24.8646643 C319.903341,24.8646643 320.008974,24.8978011 320.008974,24.8978011" id="Fill-102" fill="#FFFFFF"></path>
                            <path d="M304.559409,30.7509684 C297.714398,36.7065585 296.332116,42.1379845 297.309975,45.2317584 C297.946791,47.2591293 299.591645,48.5605025 301.924623,48.8828334 C302.02422,48.8978956 302.350173,48.8286095 302.350173,48.8286095 C302.247558,48.8286095 302.042329,48.7382364 301.954804,48.7201618 C299.673134,48.4038558 298.08864,47.1476691 297.463897,45.180547 C296.501129,42.1379845 297.880393,36.7728322 304.665042,30.8774908 C311.974838,24.5152214 316.544215,25.5515002 317.522074,25.8979305 C317.709195,25.9642042 317.609598,25.9461295 317.645815,25.9461295 L317.597526,25.8467191 C317.422477,25.7533335 312.976842,23.4277313 304.559409,30.7509684" id="Fill-103" fill="#FFFFFF"></path>
                            <path d="M283.761803,26.2473734 C281.051564,27.7686546 275.356443,33.1579064 274.17939,34.371919 C273.047609,35.5226703 269.468164,38.6224692 267.092933,40.6950266 L265.417897,42.1560591 C259.843498,47.0572959 252.268111,51.7627243 249.292282,48.9099454 L249.174576,49.0304429 C252.243966,51.9675701 259.894806,47.2199676 265.520512,42.2765566 L267.198565,40.8125117 C269.579833,38.7580289 273.159278,35.6431679 274.291059,34.4833792 C275.498292,33.2482796 281.305083,27.7294929 283.909689,26.2865351 C284.259786,26.0907266 284.383528,26.0214405 284.588757,25.997341 C284.341274,26.0154156 284.193388,26.0033659 283.761803,26.2473734" id="Fill-104" fill="#FFFFFF"></path>
                            <path d="M264.835407,25.9551669 L264.805226,25.9642042 L264.805226,25.9762539 C264.741846,26.0515649 258.482343,33.3115408 256.146347,36.1673321 C252.084008,41.1318301 248.724882,45.8041217 251.972339,48.4851916 L252.084008,48.3616816 C251.205746,47.6326716 250.834522,46.7681019 250.834522,45.7800221 C250.834522,43.1923378 253.375747,39.8063574 256.270089,36.2727674 C258.557795,33.4651751 264.645268,26.4040201 264.910859,26.1027763 C265.11307,26.0154156 265.052709,26.0334903 270.165341,23.7590995 L264.835407,25.9551669" id="Fill-105" fill="#FFFFFF"></path>
                            <path d="M157.684422,43.8731488 C151.258924,49.169015 148.563777,49.6208808 147.124151,49.8618758 L147.024554,49.8799504 C146.019533,50.0456345 145.301229,50.0094853 145.292175,50.0094853 C145.292175,50.0094853 145.421953,50.1631196 145.61511,50.1510699 C146.052732,50.1088957 146.348504,50.1570947 147.048699,50.0396097 L147.14226,50.0275599 C148.618102,49.78054 151.32834,49.3166245 157.796091,44.0026837 C164.291005,38.6435562 168.108879,35.5196579 168.169241,35.4714589 L168.468031,35.100929 C168.410687,35.1611778 164.197444,38.5200463 157.684422,43.8731488" id="Fill-106" fill="#FFFFFF"></path>
                            <path d="M204.171948,43.1170268 C200.429525,46.3162361 193.816906,49.3166245 190.038267,49.5636444 L190.050339,49.732341 C193.835015,49.4672464 200.51705,46.4548083 204.283617,43.2435492 L204.190056,43.1019647 L204.171948,43.1170268" id="Fill-107" fill="#FFFFFF"></path>
                            <path d="M213.856974,23.515092 C214.164819,23.5934154 214.312705,23.7922363 214.523971,24.0814304 C214.994792,24.7441667 215.094388,25.8467191 214.795598,27.0336197 C213.585347,31.7751973 210.585373,36.4956879 205.167915,42.1650964 L205.457651,42.0626735 C210.887181,36.3842276 213.733233,31.8474958 214.955556,27.069769 C215.278491,25.8437067 215.15475,24.6899429 214.653748,23.9910572 C214.418338,23.6446268 214.152747,23.4277313 213.651745,23.4247188 L213.856974,23.515092" id="Fill-108" fill="#FFFFFF"></path>
                            <path d="M270.41886,42.1078601 C270.687469,42.2855939 271.076802,43.3429597 270.934952,44.1713802 C270.8595,44.6413205 270.557691,45.2438082 269.652267,45.4667286 C269.015451,45.6203629 268.67139,46.0511416 268.755896,46.5843431 C268.897746,47.4459004 269.923894,48.268296 271.644201,48.0453756 L271.620056,47.9670522 C269.857496,48.1086368 269.027523,47.2259924 268.918873,46.5662685 C268.861529,46.1053655 269.139193,45.7619475 269.685465,45.6263878 C270.705577,45.3884052 271.007386,44.7136191 271.09491,44.1954797 C271.242796,43.3158478 270.88968,42.3850044 270.542601,42.1650964 L270.41886,42.1078601" id="Fill-109" fill="#FFFFFF"></path>
                            <path d="M289.782877,20.8671589 C289.927745,21.1322534 289.906619,21.2497385 289.906619,21.4636216 C289.906619,21.5570072 289.894546,21.6503928 289.882474,21.7377535 C289.728552,22.2739675 289.191333,22.7619825 288.300999,23.1415497 L287.917702,23.3042213 C287.087729,23.6386019 285.974057,24.1055299 285.518327,25.0122737 C285.147102,25.5515002 285.053542,26.5034306 285.002234,28.286794 L285.002234,28.8049333 C285.002234,29.5881672 285.035433,30.4165877 285.083723,31.2841699 C285.147102,32.2511625 285.201428,33.2603293 285.201428,34.3056453 C285.201428,36.8330809 284.866421,39.556325 283.420759,42.3850044 L283.061607,43.0447283 C283.007282,43.1260642 282.986155,43.180288 282.962011,43.2164373 L282.962011,43.2013751 C282.530425,43.9424349 281.812121,44.8732783 281.54653,45.2046465 L282.083749,44.8070046 C282.34934,44.4696116 282.660202,44.032808 283.115933,43.2917483 C283.115933,43.2857234 283.203457,43.1170268 283.203457,43.1170268 L283.568645,42.4663402 C285.633014,38.4206358 285.424766,34.6249638 285.26179,31.2751326 C285.201428,30.2177668 285.147102,29.2236622 285.153139,28.286794 C285.2135,26.581754 285.307061,25.6177738 285.660176,25.0936096 C286.085726,24.2290398 287.142055,23.804286 287.990136,23.4638805 L288.373433,23.2981964 C289.303002,22.8915173 289.882474,22.3613282 290.024324,21.7769152 C290.142029,21.3672236 289.982071,20.8671589 289.692335,20.5749524 C289.692335,20.5749524 289.758733,20.8400469 289.782877,20.8671589" id="Fill-110" fill="#FFFFFF"></path>
                            <path d="M284.540468,45.0871614 C284.516323,45.0992111 284.471052,45.1443977 284.471052,45.1443977 C277.951994,50.1329952 273.394689,50.2384306 270.446022,49.78054 L270.041599,49.8799504 C272.99932,50.4101395 277.725637,50.5155749 284.570649,45.2679077 C284.564612,45.2799574 284.646101,45.2136838 284.646101,45.2136838 C287.051512,43.5538304 290.624922,40.5835664 293.643005,37.9356333 C290.501181,40.2823226 286.94588,43.4212831 284.540468,45.0871614" id="Fill-111" fill="#FFFFFF"></path>
                            <path d="M357.252113,36.7125834 C357.252113,36.7246332 357.327565,36.8842924 357.339637,37.0650387 C357.357746,37.2789218 357.221932,37.6494517 356.681695,38.2097651 C356.639442,38.2609766 352.435253,42.842895 348.03187,42.3368054 C347.090229,42.23137 345.780381,41.9210889 345.385012,41.2553401 C345.82867,41.9662755 346.984596,42.3850044 348.01678,42.5024895 C352.501651,43.014604 356.757147,38.3664119 356.7994,38.3212254 C357.276257,37.8422477 357.499595,37.4235188 357.469415,37.0650387 C357.451306,36.805969 357.252113,36.7246332 357.252113,36.7125834" id="Fill-112" fill="#FFFFFF"></path>
                            <path d="M343.359879,24.8797265 C346.009755,27.042657 341.407179,33.4139637 339.946427,35.3087872 C339.285467,36.1763694 337.764354,37.9597328 335.648678,40.3485962 C335.642642,40.3485962 335.524936,40.6197156 335.524936,40.6197156 C337.734173,38.119392 339.403172,36.3059043 340.082241,35.4081977 C341.549029,33.4832497 346.25422,26.9824083 343.287445,24.7110299 L343.359879,24.8797265" id="Fill-113" fill="#FFFFFF"></path>
                            <path d="M337.287497,41.186054 C337.287497,41.1800291 327.448547,49.3316867 327.448547,49.3316867 C327.436475,49.3316867 326.94151,49.7474032 326.94151,49.7474032 L327.750356,49.292525 L337.399166,41.3035391 C344.856848,35.3599987 345.197891,35.4292848 346.009755,34.7785981 L346.242147,34.5345906 C346.17575,34.591827 344.766305,35.224439 337.287497,41.186054" id="Fill-114" fill="#FFFFFF"></path>
                            <path d="M357.958344,23.4759303 C358.118302,23.5813656 358.872823,24.2802513 358.890931,25.2351942 C358.915076,26.1118136 358.236008,27.0336197 356.868816,27.9614507 C351.152568,31.8595456 350.856796,32.5644561 350.868868,32.8897994 L350.886977,32.9440233 L350.920175,32.9169114 C350.908103,32.8897994 350.844723,32.2632123 356.956341,28.0939979 C358.377857,27.139055 359.081071,26.16905 359.056926,25.2291693 C359.044854,24.4218359 358.48349,23.804286 357.958344,23.4759303" id="Fill-115" fill="#FFFFFF"></path>
                            <path d="M275.935914,8.56737402 C275.923842,8.56737402 276.071728,8.67280935 276.071728,8.67280935 C276.382591,8.93790391 276.542549,9.31747111 276.624037,9.78439902 C276.741742,10.4139986 276.560658,11.0887847 276.098891,11.7123594 C275.04558,13.1643546 273.618027,12.6130784 273.560683,12.5950038 L273.500322,12.5709043 L270.784048,15.4959817 C270.784048,15.4959817 273.482213,12.8420237 273.560683,12.7606879 C273.829293,12.8480486 275.214593,13.2065287 276.228668,11.8087574 C276.717598,11.1550584 276.913773,10.4139986 276.790032,9.75427464 C276.696471,9.24216016 276.340338,8.81439395 275.954023,8.55833671 L275.935914,8.56737402" id="Fill-116" fill="#FFFFFF"></path>
                            <path d="M340.405176,25.7563459 C340.362923,25.7533335 340.341796,25.7442962 340.269362,25.7322464 C338.902171,25.4972763 337.999764,25.9099803 335.358942,27.4915103 C332.153738,29.4164583 327.913332,33.2302049 323.805722,36.9294789 C320.416415,39.9780663 317.220266,42.842895 314.669986,44.6413205 L314.540208,44.7196439 C308.673056,48.8496966 304.535265,49.7504156 302.096654,49.78054 C300.992036,49.7925897 299.283801,49.5877439 298.936722,49.1569653 L298.81298,49.2654131 C299.25362,49.7986146 301.218392,49.9582738 302.096654,49.9462241 C304.559409,49.9160997 308.733418,49.0093558 314.639805,44.8552036 L314.763546,44.7678429 C317.328917,42.9814671 320.516012,40.0955514 323.905319,37.0439516 C328.015947,33.3717895 332.253335,29.5490055 335.446466,27.6391198 C338.223102,25.9702291 339.068165,25.605724 340.429321,25.7804455 L340.405176,25.7563459" id="Fill-117" fill="#FFFFFF"></path>
                            <path d="M218.350899,38.2880885 C212.719157,43.1893254 207.027054,43.3489846 204.555244,43.1260642 C204.479792,43.1260642 204.32587,43.1140144 204.202128,43.1019647 L204.283617,43.2495741 C204.449611,43.2736736 204.461683,43.2736736 204.543172,43.2796985 C207.027054,43.4845443 212.649741,43.3489846 218.242248,38.5953572 C218.372026,38.483897 218.580274,38.0892676 218.580274,38.0892676 L218.350899,38.2880885" id="Fill-118" fill="#FFFFFF"></path>
                            <path d="M342.143591,48.467117 C342.403146,48.4791667 342.58725,48.4128931 342.58725,48.1116493 C342.58725,47.8104054 342.249224,47.8104054 342.025886,47.8104054 L341.443396,47.8104054 L341.443396,48.467117 L342.143591,48.467117 Z M342.976582,49.828739 L342.433327,49.828739 L341.908181,48.8286095 L341.443396,48.8286095 L341.443396,49.828739 L340.975593,49.828739 L340.975593,47.4489129 L342.131519,47.4489129 C342.339767,47.4489129 342.599322,47.4579502 342.774371,47.5694104 C342.985636,47.7079825 343.052034,47.9399403 343.052034,48.1899726 C343.052034,48.6147264 342.816624,48.7954727 342.403146,48.8286095 L342.976582,49.828739 Z M343.670741,48.6207513 C343.670741,47.6417089 342.867931,46.8464252 341.884036,46.8464252 C340.888069,46.8464252 340.097331,47.6417089 340.097331,48.6207513 C340.097331,49.6238932 340.888069,50.4161644 341.884036,50.4161644 C342.867931,50.4161644 343.670741,49.6238932 343.670741,48.6207513 Z M339.680836,48.6207513 C339.680836,47.4187885 340.664731,46.4337212 341.884036,46.4337212 C343.100324,46.4337212 344.090255,47.4187885 344.090255,48.6207513 C344.090255,49.8438012 343.100324,50.8288684 341.884036,50.8288684 C340.664731,50.8288684 339.680836,49.8438012 339.680836,48.6207513 L339.680836,48.6207513 Z" id="Fill-119" fill="#FFFFFF"></path>
                        </g>
                    </g>
                </g>
            </g>
        </g>
    </g>
</svg>