<svg xmlns="http://www.w3.org/2000/svg" viewBox="0 0 484.38 117.75"><defs><style>.cls-1{fill:#404752;}.cls-2{fill:#f5835b;}</style></defs><title>Middel 1</title><g id="Laag_2" data-name="Laag 2"><g id="Laag_1-2" data-name="Laag 1"><rect class="cls-1" x="26.55" y="79.84" width="46.6" height="11.66"/><rect class="cls-1" x="26.55" y="53.04" width="46.6" height="11.66"/><rect class="cls-1" x="26.55" y="28.25" width="46.6" height="11.66"/><polygon class="cls-1" points="0 91.5 11.88 91.5 11.88 11.66 59.78 11.66 59.78 0 0 0 0 91.5"/><path class="cls-2" d="M81.24,0H74.63V11.66H81a6.94,6.94,0,0,1,7,6.88h0V98.37a7.78,7.78,0,0,1-7.85,7.71H.37v11.67H81.13A18.59,18.59,0,0,0,99.88,99.33v-81A18.48,18.48,0,0,0,81.25,0Z"/><path class="cls-1" d="M152.82,28.32h22.35a49.69,49.69,0,0,1,12.38,1.6,32.09,32.09,0,0,1,11.22,5.3,27.8,27.8,0,0,1,8.11,9.71q3.12,6,3.12,14.92a30.45,30.45,0,0,1-3.12,14.25,29.19,29.19,0,0,1-8.11,9.79,33.83,33.83,0,0,1-11.22,5.66,43.64,43.64,0,0,1-12.38,1.82H152.82Zm20.57,53.26a37.72,37.72,0,0,0,8.73-1,22.62,22.62,0,0,0,7.88-3.5,18.41,18.41,0,0,0,5.75-6.64A22.54,22.54,0,0,0,198,59.85a23.93,23.93,0,0,0-2.22-11.05A18,18,0,0,0,190,42.12a21.23,21.23,0,0,0-7.88-3.29,43.39,43.39,0,0,0-8.73-.89H164V81.58Z"/><path class="cls-1" d="M213.38,69.82a22.63,22.63,0,0,1,1.83-9.22,21.44,21.44,0,0,1,4.94-7.08A21.83,21.83,0,0,1,227.54,49a26.63,26.63,0,0,1,18.17,0,21.78,21.78,0,0,1,7.39,4.54A21.5,21.5,0,0,1,258,60.6a24.24,24.24,0,0,1,0,18.48,21.81,21.81,0,0,1-4.94,7.17,22.58,22.58,0,0,1-7.39,4.68,25.3,25.3,0,0,1-18.17,0,22.58,22.58,0,0,1-7.39-4.68,21.81,21.81,0,0,1-4.94-7.17A23,23,0,0,1,213.38,69.82Zm10.86,0a17.27,17.27,0,0,0,.76,5,13.79,13.79,0,0,0,2.27,4.45,11.87,11.87,0,0,0,3.83,3.21,13,13,0,0,0,11.05,0A11.85,11.85,0,0,0,246,79.26a13.81,13.81,0,0,0,2.28-4.45,17.26,17.26,0,0,0,.75-5,16.58,16.58,0,0,0-.75-4.94,13.87,13.87,0,0,0-2.28-4.4,11.44,11.44,0,0,0-3.82-3.16,13.32,13.32,0,0,0-11.05,0,11.48,11.48,0,0,0-3.83,3.16,14.18,14.18,0,0,0-2.3,4.41A16.92,16.92,0,0,0,224.24,69.82Z"/><path class="cls-1" d="M295,60.47a9.52,9.52,0,0,0-3.74-3,11.64,11.64,0,0,0-5.08-1.21A10.75,10.75,0,0,0,281,57.49a11.12,11.12,0,0,0-3.69,3.16,13.47,13.47,0,0,0-2.18,4.41,17.22,17.22,0,0,0-.72,4.94,16.87,16.87,0,0,0,.76,4.94,13.6,13.6,0,0,0,2.27,4.41,11.34,11.34,0,0,0,3.79,3.16,11.15,11.15,0,0,0,5.29,1.2,13.39,13.39,0,0,0,5-1,9.49,9.49,0,0,0,4-2.84l6.68,6.76A17.66,17.66,0,0,1,295.39,91a25.07,25.07,0,0,1-8.95,1.56,26,26,0,0,1-9-1.51,20.87,20.87,0,0,1-12.38-11.58A23.67,23.67,0,0,1,263.25,70a23.1,23.1,0,0,1,1.83-9.35A21.44,21.44,0,0,1,270,53.52,22.1,22.1,0,0,1,277.28,49a24.79,24.79,0,0,1,18,.18,17.23,17.23,0,0,1,7,4.9Z"/><path class="cls-1" d="M347.31,32.5c-6.76.86-7.33,1.24-8.67,9l-6.86,37.15c-2.19,11.53-5.71,18.57-13.43,23a24.38,24.38,0,0,1-10.19,3.53l-.67-3.34c4.38-1,8.29-3.81,10.48-10.67a96.41,96.41,0,0,0,3.33-13.91l6.7-35.8c1.43-7.62.67-8.2-6.86-9l.67-2.95H348Z"/><path class="cls-1" d="M388,82.23c-6.2,7-12.29,10.29-15.53,10.29-2.76,0-3.81-2.86-2.19-9.91.47-2.38,1-4.48,1.43-6.76h-.19a60,60,0,0,1-14.67,14.38,13.2,13.2,0,0,1-7,2.29c-2.77,0-6.2-1.81-3.53-13.24,1.43-6.29,3-12.58,4.48-19.06.67-2.76.67-3.9-.1-3.9s-3.43,2.09-6.09,4.19l-1.15-2.67c5.91-5.71,12.29-9.52,15.63-9.52,2.57,0,3.24,2.19,1.62,9.24-1.53,6.85-3.15,14.09-4.77,21-1,4.48-.57,6.1.86,6.1,4.67,0,13.62-11.53,16.2-16.29,1.33-5.52,2.66-11.53,3.9-17.43l9.1-2.62h1.14c-2.48,9.81-4.86,20.1-7.15,31.72-.57,3.14-.47,4,.19,4,.86,0,4-2,6.39-4.38Z"/><path class="cls-1" d="M392.56,58c5.33-5.62,11.52-9.71,14.76-9.71,2.76,0,3.33,3.52,1.72,11l-.86,4.38h.38c4.57-8.77,9.72-15.43,13.81-15.43a5.29,5.29,0,0,1,4.38,2.47c1.05,1.53.86,3.43-.28,5.24a13.07,13.07,0,0,1-3.05,3.53,1.65,1.65,0,0,1-2.29.09,5.5,5.5,0,0,0-3.62-1.71c-1,0-2.19.57-4.19,3.33a47.4,47.4,0,0,0-5.9,11c-1.24,5.52-2.67,12.76-3.62,18.38a46.68,46.68,0,0,0-9.43,1.91l-.67-.86c2.38-10,4.67-20.48,6.57-30.67.57-3.15.48-4.39-.19-4.39-.86,0-4.1,1.91-6.19,3.91Z"/><path class="cls-1" d="M449.61,82.42c-5.43,6.1-12.67,10.1-15.71,10.1-2.48,0-4.29-1.81-2.29-9.91l5.33-22.48c.48-2.29.58-3.24-.09-3.24s-3.53,1.62-6,3.62L429.61,58c6.29-5.9,13.15-9.71,16.29-9.71,2.48,0,2.86,3.43,1.52,8.76l-5.81,23.53c-.57,2.57-.38,3.52.29,3.52,1,0,3.62-1.81,6.29-4Zm1.72-47.63a6.59,6.59,0,0,1-6.48,6.67c-3,0-4.76-2-4.76-5.24a6.51,6.51,0,0,1,6.38-6.58C449.71,29.64,451.33,32,451.33,34.79Z"/><path class="cls-1" d="M452.85,85.09c-.09-1.91,1.43-3.91,3-4.86s2.29-.76,3,.19c3.15,4.09,7.15,6.67,10.29,6.67,2.95,0,5.05-1.91,5.05-4.29,0-2.1-1.24-3.91-5.91-7.43-4.19-3.14-9.14-6.67-9.14-12.19,0-3.24,1.24-6.58,5.62-10.1,3.33-2.76,7.81-4.76,11.33-4.76,4.77,0,8.29,2.85,8.29,5.9A5.88,5.88,0,0,1,481.43,59c-1.14.77-1.91.58-2.48-.28-2-2.57-4.67-5-8.19-5a3.92,3.92,0,0,0-4.18,3.64,2.36,2.36,0,0,0,0,.46c.09,2.85,2.95,5.33,6.57,7.81,5.53,3.81,8.77,7,8.77,11.81,0,8.1-10.48,15.15-18.48,15.15C458.38,92.52,453,89.18,452.85,85.09Z"/></g></g></svg>