<?xml version="1.0" encoding="utf-8"?>
<!-- Generator: Adobe Illustrator 15.1.0, SVG Export Plug-In . SVG Version: 6.00 Build 0)  -->
<!DOCTYPE svg PUBLIC "-//W3C//DTD SVG 1.1//EN" "http://www.w3.org/Graphics/SVG/1.1/DTD/svg11.dtd">
<svg version="1.1" id="Layer_1" xmlns="http://www.w3.org/2000/svg" xmlns:xlink="http://www.w3.org/1999/xlink" x="0px" y="0px"
	 width="755px" height="129px" viewBox="24.5 514.5 755 129" enable-background="new 24.5 514.5 755 129" xml:space="preserve">
<g id="Layer_1_1_">
	<g>
		<path fill="#FFFFFF" d="M192.16,623.067l-16.172-58.005h-0.291v49.968h6.78v8.037H158.17v-8.037h3.68
			c1.453,0,2.809-1.743,2.809-3.001v-45.418c0-1.258-1.356-3.004-2.809-3.004h-3.68v-8.328h28.567l12.784,45.706h0.291
			l12.877-45.706h28.372v8.328h-3.776c-1.452,0-2.806,1.743-2.806,3.004v45.415c0,1.258,1.354,3.001,2.806,3.001h3.776v8.038
			h-28.375v-8.038h6.681v-49.965h-0.291l-16.462,58.005H192.16z"/>
		<path fill="#FFFFFF" d="M258.28,600.311c0.581,10.071,5.037,14.72,13.171,14.72c6.294,0,8.52-2.229,11.137-5.52h8.038v9.296
			c-4.163,2.519-9.682,4.938-20.334,4.938c-17.624,0-26.437-9.876-26.437-25.856c0-16.363,10.167-26.435,25.467-26.435
			c15.204,0,23.146,7.745,23.146,24.982c0,1.743-0.195,3.39-0.195,3.875H258.28z M258.474,592.272h19.852
			c-0.482-8.909-3.195-12.395-9.005-12.395C263.413,579.878,259.541,583.559,258.474,592.272z"/>
		<path fill="#FFFFFF" d="M296.099,615.03h3.39c1.162,0,2.42-1.354,2.42-2.42v-29.247c0-1.065-1.258-2.614-2.42-2.614h-3.776v-8.521
			h17.334c1.644,0,2.71,1.453,2.904,7.358c3.391-4.165,7.358-7.843,14.042-7.843c1.066,0,2.13,0.194,3.098,0.484v10.461h-2.42
			c-7.358,0-11.814,1.549-14.624,3.097v29.244h7.071v8.037h-27.019L296.099,615.03L296.099,615.03z"/>
		<path fill="#FFFFFF" d="M334.353,597.792c0-16.363,10.554-26.339,27.019-26.339c8.232,0,13.752,1.162,17.139,2.615v11.619h-8.52
			c-1.743-3.486-3.971-5.229-8.909-5.229c-7.649,0-12.3,5.423-12.3,17.432c0,12.107,3.971,17.046,12.203,17.046
			c6.293,0,8.812-2.809,10.845-5.423h6.876v9.975c-3.776,2.13-9.392,4.259-18.011,4.259
			C343.067,623.744,334.353,614.06,334.353,597.792z"/>
		<path fill="#FFFFFF" d="M388.42,611.157v-27.988c0-1.162-1.356-2.42-2.42-2.42h-3.291v-8.521h19.852v34.473
			c0,5.52,2.711,7.068,7.167,7.068c3.68,0,7.553-1.162,10.651-2.42v-30.601h-6.681v-8.521h20.819v40.189
			c0,1.066,1.258,2.612,2.42,2.612h3.291v8.037H423.38c-1.646,0-2.519-1.258-2.904-6.295c-4.648,4.357-10.267,6.972-18.4,6.972
			C395.005,623.744,388.42,621.034,388.42,611.157z"/>
		<path fill="#FFFFFF" d="M443.566,615.03h3.391c1.161,0,2.419-1.354,2.419-2.42v-29.247c0-1.065-1.258-2.614-2.419-2.614h-3.777
			v-8.521h17.334c1.645,0,2.71,1.453,2.905,7.358c3.39-4.165,7.358-7.843,14.042-7.843c1.066,0,2.129,0.194,3.097,0.484v10.461
			h-2.42c-7.358,0-11.814,1.549-14.623,3.097v29.244h7.067v8.037h-27.019v-8.037H443.566z"/>
		<path fill="#FFFFFF" d="M491.591,638.754v-7.456c5.424-1.645,10.266-4.553,13.752-8.907l-16.753-38.929
			c-0.68-1.646-1.646-2.713-3.004-2.713h-1.838v-8.521h24.596v8.521h-6.682l10.942,26.243l8.137-19.853
			c1.452-3.681,1.935-6.391-2.324-6.391h-1.551v-8.521h22.371v8.521h-2.13c-1.356,0-2.713,1.162-3.488,3.004l-16.654,37.474
			c-3.971,8.714-9.005,14.431-13.848,17.527H491.591L491.591,638.754z"/>
		<path fill="#FFFFFF" d="M555.121,619.579h4.456c1.646,0,3.294-1.743,3.294-3.294v-54.051c0-1.551-1.647-3.39-3.294-3.39h-4.456
			v-3.582h49.789v16.468h-4.166l-0.871-12.691h-30.998v28.77h17.92l0.776-9.008h3.971v21.986h-3.971l-0.776-9.202h-17.92v27.994
			h9.299v3.488h-23.053V619.579z"/>
		<path fill="#FFFFFF" d="M614.395,611.152v-32.063c0-1.453-1.452-2.905-2.809-2.905h-4.552v-3.681h12.981v37.002
			c0,7.847,4.165,9.784,9.396,9.784c7.266,0,14.142-3.876,19.567-8.329v-34.776h-8.04v-3.681h13.56v44.171
			c0,1.453,1.452,2.905,2.905,2.905h4.746v3.488h-11.526c-1.066,0-1.551-0.581-1.647-3.195v-5.327
			c-5.908,4.843-12.69,9.106-21.214,9.106C620.692,623.648,614.395,620.741,614.395,611.152z"/>
		<path fill="#FFFFFF" d="M666.209,619.579h4.262c1.452,0,2.809-1.356,2.809-2.809v-37.682c0-1.357-1.356-2.905-2.809-2.905h-4.747
			v-3.681h11.431c1.162,0,1.647,0.677,1.743,3.294v5.618c5.52-4.843,13.27-9.397,21.505-9.397c7.556,0,13.56,2.519,13.56,12.593
			v32.16c0,1.452,1.452,2.809,2.81,2.809h3.778v3.488h-20.923v-3.488h8.717v-33.321c0-8.041-4.066-9.688-9.783-9.688
			c-7.265,0-13.949,3.68-19.663,8.331v34.678h8.718v3.488h-21.409v-3.488H666.209z"/>
		<path fill="#FFFFFF" d="M721.997,598.365c0-19.762,12.012-26.348,22.763-26.348c8.235,0,13.754,3.391,17.049,7.266v-20.438h-8.523
			v-3.582h12.784c0.971,0,1.356,0.677,1.356,1.743v59.668c0,1.453,1.453,2.905,2.81,2.905h4.357v3.488h-11.335
			c-0.968,0-1.356-1.065-1.452-3.195v-6.198c-3.776,5.231-9.976,9.783-18.6,9.783C732.748,623.454,721.997,617.836,721.997,598.365z
			 M761.809,609.699v-26.541c-4.166-4.357-8.329-6.879-16.178-6.879c-8.331,0-17.923,4.456-17.923,21.891
			c0,17.436,8.721,21.505,16.178,21.505C752.12,619.678,757.643,615.123,761.809,609.699z"/>
	</g>
	<path fill="#FFFFFF" d="M135.358,576.701c-3.428-20.698-18.885-37.043-39.373-41.633l-0.822,2.693
		c12.812,5.007,22.82,15.281,27.652,27.888c-6.41-6.339-16.396-10.896-46.777-12.601c-37.21-2.804-42.683-32.93-42.683-32.93
		c-4.651,8.183-9.833,44.532,38.345,49.759c42.129,3.003,47.671,11.951,53.837,19.844c-0.31,2.179-0.754,4.327-1.362,6.432
		c-3.749-6.64-14.796-17.199-46.503-19.688c-42.037-2.896-46.468-22.118-48.854-27.035c-4.648,35.492,25.3,43.18,49.959,44.612
		c23.85,1.308,34.944,8.562,39.762,14.64c-0.507,0.798-1.028,1.587-1.584,2.365c-0.455,0.633-0.921,1.253-1.403,1.861
		c-4.755-5.427-14.952-11.858-36.742-13.218c-34.637-1.082-43.349-13.582-45.224-17.692c-2.148,19.6,13.703,30.608,40.247,32.277
		c17.635,1.428,26.602,5.196,31.162,8.518c-5.769,3.963-12.387,6.648-19.504,7.832c-1.027,0.164-2.047,0.302-3.072,0.405
		l-0.003,0.003c-5.158,0.521-10.343,0.208-15.404-0.929l-0.825,2.699c7.498,2.93,15.695,4.053,23.705,3.247
		c1.083-0.109,2.17-0.257,3.267-0.438c13.505-2.233,25.333-9.589,33.305-20.715C134.429,603.761,137.589,590.212,135.358,576.701z"
		/>
</g>
<g id="Layer_2">
</g>
</svg>
