<?xml version="1.0" encoding="iso-8859-1"?>
<!-- Generator: Adobe Illustrator 18.0.0, SVG Export Plug-In . SVG Version: 6.00 Build 0)  -->
<!DOCTYPE svg PUBLIC "-//W3C//DTD SVG 1.1//EN" "http://www.w3.org/Graphics/SVG/1.1/DTD/svg11.dtd">
<svg version="1.1" xmlns="http://www.w3.org/2000/svg" xmlns:xlink="http://www.w3.org/1999/xlink" x="0px" y="0px"
	 viewBox="0 0 289 84.333" style="enable-background:new 0 0 289 84.333;" xml:space="preserve">
<g id="Layer_1">
	<g>
		<path style="fill:#FFFFFF;" d="M70.119,46.57l-5.901-21.166h-0.106v18.233h2.474v2.933h-8.87v-2.933h1.343
			c0.53,0,1.025-0.636,1.025-1.095V25.969c0-0.459-0.495-1.096-1.025-1.096h-1.343v-3.039h10.424l4.665,16.678h0.106l4.699-16.678
			h10.353v3.039h-1.378c-0.53,0-1.024,0.636-1.024,1.096v16.572c0,0.459,0.494,1.095,1.024,1.095h1.378v2.933H77.609v-2.933h2.438
			V25.404h-0.106L73.934,46.57H70.119z"/>
		<path style="fill:#FFFFFF;" d="M94.246,38.266c0.212,3.675,1.838,5.371,4.806,5.371c2.297,0,3.109-0.813,4.064-2.014h2.933v3.392
			c-1.519,0.919-3.533,1.802-7.42,1.802c-6.431,0-9.647-3.604-9.647-9.435c0-5.971,3.71-9.646,9.293-9.646
			c5.548,0,8.446,2.826,8.446,9.116c0,0.636-0.071,1.237-0.071,1.414H94.246z M94.317,35.333h7.244
			c-0.176-3.251-1.166-4.523-3.286-4.523C96.119,30.81,94.706,32.153,94.317,35.333z"/>
		<path style="fill:#FFFFFF;" d="M108.046,43.637h1.237c0.424,0,0.883-0.494,0.883-0.883V32.082c0-0.389-0.459-0.954-0.883-0.954
			h-1.378v-3.109h6.325c0.6,0,0.989,0.53,1.06,2.685c1.237-1.52,2.685-2.862,5.124-2.862c0.389,0,0.777,0.071,1.13,0.177v3.817
			h-0.883c-2.685,0-4.311,0.565-5.336,1.13v10.671h2.58v2.933h-9.859V43.637z"/>
		<path style="fill:#FFFFFF;" d="M122.005,37.347c0-5.971,3.851-9.611,9.859-9.611c3.004,0,5.018,0.424,6.254,0.954v4.24h-3.109
			c-0.636-1.272-1.449-1.908-3.251-1.908c-2.791,0-4.488,1.979-4.488,6.361c0,4.418,1.449,6.22,4.453,6.22
			c2.296,0,3.215-1.025,3.957-1.979h2.509v3.64c-1.378,0.777-3.427,1.554-6.572,1.554C125.185,46.817,122.005,43.283,122.005,37.347
			z"/>
		<path style="fill:#FFFFFF;" d="M141.734,42.224V32.011c0-0.424-0.495-0.883-0.883-0.883h-1.201v-3.109h7.244v12.579
			c0,2.014,0.989,2.579,2.615,2.579c1.343,0,2.756-0.424,3.887-0.883V31.128h-2.438v-3.109h7.597v14.665
			c0,0.389,0.459,0.953,0.883,0.953h1.201v2.933h-6.148c-0.601,0-0.919-0.459-1.06-2.297c-1.696,1.59-3.746,2.544-6.714,2.544
			C144.137,46.817,141.734,45.828,141.734,42.224z"/>
		<path style="fill:#FFFFFF;" d="M161.857,43.637h1.237c0.424,0,0.883-0.494,0.883-0.883V32.082c0-0.389-0.459-0.954-0.883-0.954
			h-1.378v-3.109h6.325c0.6,0,0.989,0.53,1.06,2.685c1.237-1.52,2.685-2.862,5.124-2.862c0.389,0,0.777,0.071,1.13,0.177v3.817
			h-0.883c-2.685,0-4.311,0.565-5.336,1.13v10.671h2.579v2.933h-9.859V43.637z"/>
		<path style="fill:#FFFFFF;" d="M179.381,52.294v-2.721c1.979-0.6,3.746-1.661,5.018-3.25l-6.113-14.205
			c-0.248-0.601-0.601-0.99-1.096-0.99h-0.671v-3.109h8.975v3.109h-2.438l3.993,9.576l2.969-7.244
			c0.53-1.343,0.706-2.332-0.848-2.332h-0.566v-3.109h8.163v3.109h-0.777c-0.495,0-0.99,0.424-1.273,1.096l-6.077,13.674
			c-1.449,3.18-3.286,5.266-5.053,6.396H179.381z"/>
		<path style="fill:#FFFFFF;" d="M202.563,45.297h1.626c0.601,0,1.202-0.636,1.202-1.202V24.372c0-0.566-0.601-1.237-1.202-1.237
			h-1.626v-1.307h18.168v6.009h-1.52l-0.318-4.631h-11.311v10.498h6.539l0.283-3.287h1.449v8.023h-1.449l-0.283-3.358h-6.539v10.215
			h3.393v1.273h-8.412V45.297z"/>
		<path style="fill:#FFFFFF;" d="M224.192,42.222v-11.7c0-0.53-0.53-1.06-1.025-1.06h-1.661v-1.343h4.737v13.502
			c0,2.863,1.52,3.57,3.429,3.57c2.651,0,5.16-1.414,7.14-3.039v-12.69h-2.934v-1.343h4.948v16.118c0,0.53,0.53,1.06,1.06,1.06
			h1.732v1.273h-4.206c-0.389,0-0.566-0.212-0.601-1.166v-1.944c-2.156,1.767-4.631,3.323-7.741,3.323
			C226.49,46.782,224.192,45.721,224.192,42.222z"/>
		<path style="fill:#FFFFFF;" d="M243.099,45.297h1.555c0.53,0,1.025-0.495,1.025-1.025v-13.75c0-0.495-0.495-1.06-1.025-1.06
			h-1.732v-1.343h4.171c0.424,0,0.601,0.247,0.636,1.202v2.05c2.014-1.767,4.842-3.429,7.847-3.429c2.757,0,4.948,0.919,4.948,4.595
			v11.735c0,0.53,0.53,1.025,1.025,1.025h1.379v1.273h-7.635v-1.273h3.181V33.138c0-2.934-1.484-3.535-3.57-3.535
			c-2.651,0-5.09,1.343-7.175,3.04v12.654h3.181v1.273h-7.812V45.297z"/>
		<path style="fill:#FFFFFF;" d="M263.456,37.556c0-7.211,4.383-9.614,8.306-9.614c3.005,0,5.019,1.237,6.221,2.651v-7.458h-3.11
			v-1.307h4.665c0.354,0,0.495,0.247,0.495,0.636v21.773c0,0.53,0.53,1.06,1.025,1.06h1.59v1.273h-4.136
			c-0.353,0-0.495-0.389-0.53-1.166v-2.262c-1.378,1.909-3.64,3.57-6.787,3.57C267.379,46.711,263.456,44.661,263.456,37.556z
			 M277.983,41.692v-9.685c-1.52-1.59-3.039-2.51-5.903-2.51c-3.04,0-6.54,1.626-6.54,7.988s3.182,7.847,5.903,7.847
			C274.448,45.333,276.463,43.671,277.983,41.692z"/>
	</g>
	<path style="fill:#FFFFFF;" d="M49.392,29.651c-1.251-7.553-6.891-13.517-14.367-15.192l-0.3,0.983
		c4.675,1.827,8.327,5.576,10.09,10.176c-2.339-2.313-5.983-3.976-17.069-4.598C14.168,19.997,12.171,9.004,12.171,9.004
		c-1.697,2.986-3.588,16.25,13.992,18.157c15.373,1.096,17.395,4.361,19.645,7.241c-0.113,0.795-0.275,1.579-0.497,2.347
		c-1.368-2.423-5.399-6.276-16.969-7.184c-15.339-1.057-16.956-8.071-17.827-9.865c-1.696,12.951,9.232,15.756,18.23,16.279
		c8.703,0.477,12.751,3.124,14.509,5.342c-0.185,0.291-0.375,0.579-0.578,0.863c-0.166,0.231-0.336,0.457-0.512,0.679
		c-1.735-1.98-5.456-4.327-13.407-4.823c-12.639-0.395-15.818-4.956-16.502-6.456c-0.784,7.152,5,11.169,14.686,11.778
		c6.435,0.521,9.707,1.896,11.371,3.108c-2.105,1.446-4.52,2.426-7.117,2.858c-0.375,0.06-0.747,0.11-1.121,0.148l-0.001,0.001
		c-1.882,0.19-3.774,0.076-5.621-0.339l-0.301,0.985c2.736,1.069,5.727,1.479,8.65,1.185c0.395-0.04,0.792-0.094,1.192-0.16
		c4.928-0.815,9.244-3.499,12.153-7.559C49.053,39.525,50.206,34.581,49.392,29.651z"/>
	<g>
		<path style="fill:#FFFFFF;" d="M125.858,62.297c-0.038,0.077-0.099,0.115-0.181,0.115c-0.06,0-0.139-0.034-0.235-0.103
			c-0.096-0.069-0.223-0.145-0.379-0.231c-0.157-0.085-0.349-0.162-0.577-0.231c-0.229-0.068-0.507-0.103-0.837-0.103
			c-0.296,0-0.567,0.042-0.811,0.127c-0.245,0.085-0.453,0.198-0.626,0.341c-0.173,0.142-0.308,0.308-0.404,0.497
			c-0.096,0.189-0.144,0.388-0.144,0.595c0,0.257,0.066,0.471,0.198,0.641c0.131,0.17,0.304,0.315,0.519,0.436
			c0.214,0.12,0.457,0.225,0.729,0.312c0.272,0.087,0.551,0.175,0.837,0.263c0.286,0.088,0.564,0.186,0.836,0.292
			c0.272,0.107,0.515,0.241,0.729,0.4c0.215,0.16,0.388,0.355,0.52,0.585c0.131,0.231,0.197,0.511,0.197,0.84
			c0,0.357-0.064,0.689-0.193,0.997c-0.129,0.308-0.316,0.574-0.561,0.799s-0.545,0.404-0.902,0.536
			c-0.357,0.131-0.764,0.198-1.22,0.198c-0.577,0-1.074-0.093-1.491-0.276c-0.418-0.184-0.791-0.424-1.12-0.721l0.189-0.28
			c0.027-0.044,0.058-0.077,0.091-0.099c0.034-0.022,0.08-0.034,0.14-0.034c0.072,0,0.16,0.044,0.264,0.132
			c0.104,0.088,0.24,0.182,0.408,0.284c0.168,0.102,0.376,0.196,0.626,0.284c0.249,0.088,0.559,0.131,0.927,0.131
			c0.346,0,0.651-0.048,0.915-0.144c0.263-0.096,0.483-0.227,0.659-0.391c0.176-0.165,0.309-0.359,0.4-0.581
			c0.091-0.222,0.136-0.457,0.136-0.704c0-0.275-0.066-0.503-0.198-0.684s-0.305-0.335-0.519-0.461
			c-0.215-0.127-0.457-0.233-0.729-0.321c-0.272-0.088-0.552-0.176-0.84-0.264c-0.288-0.088-0.569-0.184-0.84-0.288
			c-0.272-0.104-0.515-0.236-0.729-0.396c-0.214-0.159-0.388-0.353-0.519-0.581c-0.132-0.228-0.198-0.512-0.198-0.853
			c0-0.291,0.063-0.571,0.19-0.84c0.126-0.269,0.306-0.506,0.539-0.709c0.234-0.203,0.518-0.365,0.853-0.486
			c0.335-0.121,0.711-0.181,1.129-0.181c0.5,0,0.943,0.072,1.33,0.217c0.388,0.145,0.743,0.366,1.067,0.664L125.858,62.297z"/>
		<path style="fill:#FFFFFF;" d="M130.935,69.605c-0.555,0-0.986-0.154-1.294-0.462c-0.307-0.307-0.461-0.782-0.461-1.425v-5.603
			h-1.178c-0.06,0-0.11-0.017-0.148-0.05c-0.038-0.033-0.058-0.08-0.058-0.14v-0.304l1.401-0.099l0.196-2.933
			c0.005-0.05,0.025-0.094,0.061-0.132c0.035-0.038,0.082-0.058,0.143-0.058h0.367v3.131h2.579v0.585h-2.579v5.561
			c0,0.225,0.029,0.419,0.087,0.581c0.058,0.162,0.137,0.295,0.239,0.399c0.102,0.105,0.221,0.182,0.359,0.231
			c0.137,0.049,0.285,0.074,0.445,0.074c0.198,0,0.368-0.029,0.511-0.086c0.143-0.058,0.266-0.121,0.371-0.19
			c0.105-0.068,0.19-0.131,0.255-0.189c0.066-0.058,0.118-0.086,0.156-0.086c0.044,0,0.088,0.027,0.132,0.082l0.214,0.346
			c-0.209,0.231-0.473,0.416-0.795,0.556C131.614,69.535,131.281,69.605,130.935,69.605z"/>
		<path style="fill:#FFFFFF;" d="M140.027,69.473c-0.165,0-0.267-0.077-0.305-0.231l-0.115-1.047
			c-0.225,0.22-0.449,0.418-0.672,0.593c-0.222,0.176-0.455,0.325-0.696,0.445c-0.242,0.121-0.503,0.213-0.782,0.276
			c-0.28,0.063-0.588,0.095-0.923,0.095c-0.28,0-0.552-0.042-0.815-0.124c-0.264-0.082-0.497-0.209-0.701-0.379
			s-0.366-0.388-0.49-0.655c-0.123-0.266-0.185-0.586-0.185-0.959c0-0.347,0.099-0.668,0.296-0.964
			c0.198-0.296,0.507-0.554,0.927-0.774c0.42-0.22,0.961-0.396,1.623-0.528c0.662-0.131,1.457-0.209,2.386-0.231v-0.857
			c0-0.758-0.164-1.341-0.49-1.751c-0.327-0.409-0.812-0.613-1.454-0.613c-0.396,0-0.732,0.055-1.01,0.164
			c-0.277,0.11-0.512,0.231-0.704,0.363c-0.192,0.132-0.349,0.253-0.47,0.363c-0.121,0.11-0.222,0.165-0.304,0.165
			c-0.11,0-0.192-0.05-0.247-0.149l-0.14-0.239c0.428-0.428,0.879-0.752,1.351-0.972c0.473-0.219,1.008-0.329,1.607-0.329
			c0.439,0,0.823,0.07,1.153,0.21c0.329,0.14,0.603,0.341,0.82,0.601c0.217,0.261,0.38,0.577,0.49,0.947
			c0.109,0.371,0.164,0.784,0.164,1.24v5.339H140.027z M136.731,69.036c0.318,0,0.611-0.034,0.878-0.103
			c0.266-0.068,0.514-0.165,0.742-0.288s0.441-0.27,0.638-0.441c0.198-0.17,0.393-0.355,0.585-0.552v-2.133
			c-0.78,0.022-1.452,0.081-2.015,0.177c-0.563,0.096-1.027,0.227-1.392,0.392c-0.365,0.164-0.635,0.361-0.808,0.589
			s-0.259,0.487-0.259,0.778c0,0.275,0.046,0.512,0.136,0.713c0.091,0.2,0.21,0.365,0.359,0.495
			c0.148,0.129,0.321,0.224,0.519,0.284C136.311,69.006,136.517,69.036,136.731,69.036z"/>
		<path style="fill:#FFFFFF;" d="M142.946,69.473v-8.198h0.412c0.093,0,0.161,0.019,0.202,0.058c0.042,0.039,0.064,0.105,0.07,0.198
			l0.066,1.731c0.263-0.664,0.615-1.185,1.055-1.562c0.439-0.376,0.98-0.564,1.623-0.564c0.247,0,0.475,0.026,0.684,0.078
			c0.209,0.052,0.407,0.128,0.593,0.227l-0.107,0.544c-0.016,0.088-0.071,0.132-0.164,0.132c-0.034,0-0.08-0.011-0.14-0.033
			c-0.061-0.022-0.136-0.047-0.227-0.074s-0.202-0.052-0.334-0.074c-0.131-0.021-0.283-0.033-0.453-0.033
			c-0.621,0-1.13,0.192-1.528,0.577c-0.398,0.385-0.721,0.939-0.968,1.665v5.33H142.946z"/>
		<path style="fill:#FFFFFF;" d="M152.273,69.605c-0.555,0-0.986-0.154-1.294-0.462c-0.307-0.307-0.461-0.782-0.461-1.425v-5.603
			h-1.178c-0.06,0-0.11-0.017-0.148-0.05c-0.038-0.033-0.058-0.08-0.058-0.14v-0.304l1.401-0.099l0.196-2.933
			c0.005-0.05,0.025-0.094,0.061-0.132c0.035-0.038,0.082-0.058,0.143-0.058h0.367v3.131h2.579v0.585h-2.579v5.561
			c0,0.225,0.029,0.419,0.086,0.581c0.058,0.162,0.137,0.295,0.239,0.399c0.102,0.105,0.221,0.182,0.359,0.231
			c0.137,0.049,0.285,0.074,0.445,0.074c0.198,0,0.368-0.029,0.511-0.086c0.143-0.058,0.266-0.121,0.371-0.19
			c0.105-0.068,0.19-0.131,0.255-0.189s0.118-0.086,0.156-0.086c0.044,0,0.088,0.027,0.132,0.082l0.214,0.346
			c-0.209,0.231-0.473,0.416-0.795,0.556C152.953,69.535,152.619,69.605,152.273,69.605z"/>
		<path style="fill:#FFFFFF;" d="M156.595,61.275v5.241c0,0.769,0.176,1.372,0.529,1.808c0.353,0.436,0.89,0.655,1.612,0.655
			c0.534,0,1.033-0.136,1.497-0.408c0.463-0.272,0.879-0.649,1.248-1.132v-6.163h0.782v8.198h-0.431
			c-0.152,0-0.231-0.071-0.236-0.214l-0.075-1.22c-0.38,0.473-0.818,0.852-1.316,1.137c-0.498,0.286-1.052,0.428-1.663,0.428
			c-0.456,0-0.855-0.072-1.196-0.215s-0.624-0.349-0.85-0.618c-0.226-0.27-0.396-0.593-0.512-0.972
			c-0.116-0.379-0.174-0.808-0.174-1.285v-5.241H156.595z"/>
		<path style="fill:#FFFFFF;" d="M164.977,72.373V61.275h0.428c0.071,0,0.129,0.015,0.173,0.046c0.044,0.03,0.068,0.084,0.074,0.161
			l0.074,1.269c0.363-0.494,0.786-0.887,1.273-1.178c0.486-0.291,1.031-0.436,1.636-0.436c1.01,0,1.796,0.349,2.356,1.046
			c0.56,0.698,0.84,1.744,0.84,3.139c0,0.599-0.078,1.157-0.235,1.676c-0.156,0.52-0.386,0.97-0.688,1.352
			c-0.302,0.382-0.675,0.683-1.116,0.902c-0.443,0.22-0.951,0.33-1.528,0.33c-0.561,0-1.044-0.102-1.45-0.305
			c-0.406-0.203-0.758-0.506-1.055-0.906v4.004H164.977z M168.413,61.77c-0.544,0-1.037,0.141-1.479,0.424
			c-0.442,0.283-0.833,0.677-1.174,1.182v4.3c0.313,0.473,0.66,0.805,1.042,0.997c0.382,0.192,0.817,0.288,1.306,0.288
			c0.483,0,0.906-0.088,1.269-0.263c0.363-0.176,0.666-0.424,0.911-0.746c0.245-0.321,0.428-0.706,0.552-1.153
			c0.123-0.448,0.185-0.941,0.185-1.479c0-1.22-0.224-2.116-0.671-2.69C169.905,62.057,169.258,61.77,168.413,61.77z"/>
		<path style="fill:#FFFFFF;" d="M180.589,69.473h-0.692l-3.46-8.198h0.618c0.076,0,0.139,0.021,0.185,0.062
			c0.047,0.041,0.081,0.086,0.103,0.135l2.702,6.468c0.055,0.127,0.097,0.247,0.123,0.363c0.028,0.115,0.055,0.231,0.083,0.346
			c0.027-0.115,0.055-0.232,0.086-0.35c0.03-0.118,0.07-0.237,0.119-0.359l2.718-6.468c0.028-0.06,0.064-0.108,0.111-0.144
			c0.047-0.036,0.103-0.054,0.169-0.054h0.594L180.589,69.473z"/>
		<path style="fill:#FFFFFF;" d="M188.706,61.143c0.461,0,0.889,0.08,1.282,0.239c0.393,0.16,0.734,0.392,1.022,0.697
			c0.288,0.304,0.514,0.679,0.675,1.124c0.162,0.445,0.244,0.955,0.244,1.532c0,0.121-0.019,0.204-0.054,0.247
			c-0.036,0.044-0.093,0.066-0.169,0.066h-5.916v0.157c0,0.615,0.072,1.156,0.215,1.623c0.143,0.467,0.346,0.858,0.61,1.174
			c0.263,0.316,0.582,0.553,0.955,0.713c0.374,0.159,0.791,0.239,1.252,0.239c0.413,0,0.77-0.046,1.071-0.136
			c0.302-0.091,0.557-0.192,0.762-0.305c0.207-0.112,0.37-0.214,0.491-0.304c0.121-0.091,0.209-0.136,0.264-0.136
			c0.071,0,0.126,0.027,0.164,0.082l0.215,0.264c-0.131,0.165-0.306,0.318-0.523,0.461s-0.459,0.266-0.725,0.367
			c-0.266,0.102-0.551,0.183-0.857,0.243c-0.304,0.06-0.61,0.091-0.919,0.091c-0.559,0-1.07-0.098-1.531-0.292
			c-0.463-0.195-0.858-0.479-1.188-0.853c-0.331-0.373-0.586-0.831-0.767-1.372c-0.18-0.541-0.27-1.161-0.27-1.858
			c0-0.588,0.083-1.13,0.251-1.627s0.409-0.925,0.725-1.285c0.315-0.359,0.703-0.641,1.161-0.845
			C187.603,61.245,188.124,61.143,188.706,61.143z M188.718,61.728c-0.422,0-0.801,0.066-1.134,0.198
			c-0.335,0.132-0.624,0.321-0.869,0.569c-0.244,0.247-0.441,0.544-0.591,0.89c-0.152,0.346-0.251,0.734-0.3,1.162h5.396
			c0-0.44-0.06-0.833-0.181-1.183c-0.121-0.349-0.29-0.644-0.51-0.886c-0.22-0.241-0.483-0.426-0.79-0.556
			C189.431,61.793,189.09,61.728,188.718,61.728z"/>
		<path style="fill:#FFFFFF;" d="M194.102,69.473v-8.198h0.429c0.142,0,0.225,0.069,0.247,0.207l0.074,1.236
			c0.374-0.473,0.81-0.853,1.306-1.141c0.497-0.288,1.051-0.432,1.66-0.432c0.451,0,0.847,0.071,1.191,0.214
			c0.343,0.143,0.628,0.349,0.853,0.618c0.225,0.269,0.396,0.593,0.511,0.972c0.115,0.379,0.173,0.807,0.173,1.285v5.24h-0.783
			v-5.24c0-0.769-0.176-1.372-0.527-1.808c-0.351-0.437-0.89-0.655-1.615-0.655c-0.539,0-1.038,0.139-1.499,0.416
			c-0.461,0.278-0.874,0.658-1.236,1.141v6.146H194.102z"/>
		<path style="fill:#FFFFFF;" d="M205.267,69.605c-0.554,0-0.986-0.154-1.293-0.462c-0.308-0.307-0.461-0.782-0.461-1.425v-5.603
			h-1.179c-0.06,0-0.11-0.017-0.149-0.05c-0.038-0.033-0.058-0.08-0.058-0.14v-0.304l1.401-0.099l0.196-2.933
			c0.005-0.05,0.025-0.094,0.06-0.132c0.036-0.038,0.083-0.058,0.143-0.058h0.366v3.131h2.579v0.585h-2.579v5.561
			c0,0.225,0.03,0.419,0.087,0.581c0.058,0.162,0.137,0.295,0.239,0.399c0.102,0.105,0.221,0.182,0.358,0.231
			c0.138,0.049,0.286,0.074,0.445,0.074c0.198,0,0.367-0.029,0.511-0.086c0.142-0.058,0.267-0.121,0.37-0.19
			c0.105-0.068,0.19-0.131,0.256-0.189s0.118-0.086,0.157-0.086c0.043,0,0.087,0.027,0.131,0.082l0.215,0.346
			c-0.209,0.231-0.475,0.416-0.795,0.556C205.946,69.535,205.613,69.605,205.267,69.605z"/>
		<path style="fill:#FFFFFF;" d="M209.589,61.275v5.241c0,0.769,0.177,1.372,0.53,1.808c0.353,0.436,0.89,0.655,1.612,0.655
			c0.535,0,1.034-0.136,1.497-0.408c0.463-0.272,0.878-0.649,1.248-1.132v-6.163h0.782v8.198h-0.43
			c-0.152,0-0.231-0.071-0.236-0.214l-0.075-1.22c-0.379,0.473-0.818,0.852-1.315,1.137c-0.497,0.286-1.053,0.428-1.663,0.428
			c-0.456,0-0.856-0.072-1.196-0.215s-0.624-0.349-0.85-0.618c-0.225-0.27-0.396-0.593-0.511-0.972
			c-0.115-0.379-0.173-0.808-0.173-1.285v-5.241H209.589z"/>
		<path style="fill:#FFFFFF;" d="M217.971,69.473v-8.198h0.413c0.093,0,0.16,0.019,0.201,0.058c0.042,0.039,0.064,0.105,0.07,0.198
			l0.066,1.731c0.264-0.664,0.616-1.185,1.055-1.562s0.98-0.564,1.623-0.564c0.248,0,0.475,0.026,0.684,0.078
			c0.209,0.052,0.406,0.128,0.594,0.227l-0.107,0.544c-0.017,0.088-0.072,0.132-0.165,0.132c-0.034,0-0.08-0.011-0.141-0.033
			c-0.06-0.022-0.135-0.047-0.227-0.074c-0.09-0.027-0.201-0.052-0.333-0.074c-0.133-0.021-0.283-0.033-0.453-0.033
			c-0.621,0-1.13,0.192-1.529,0.577c-0.398,0.385-0.721,0.939-0.968,1.665v5.33H217.971z"/>
		<path style="fill:#FFFFFF;" d="M227.496,61.143c0.461,0,0.889,0.08,1.282,0.239c0.393,0.16,0.734,0.392,1.022,0.697
			c0.288,0.304,0.514,0.679,0.675,1.124c0.162,0.445,0.244,0.955,0.244,1.532c0,0.121-0.019,0.204-0.054,0.247
			c-0.036,0.044-0.093,0.066-0.169,0.066h-5.916v0.157c0,0.615,0.072,1.156,0.215,1.623c0.143,0.467,0.346,0.858,0.61,1.174
			c0.263,0.316,0.582,0.553,0.955,0.713c0.374,0.159,0.791,0.239,1.252,0.239c0.413,0,0.77-0.046,1.071-0.136
			c0.302-0.091,0.557-0.192,0.762-0.305c0.207-0.112,0.37-0.214,0.491-0.304s0.209-0.136,0.264-0.136
			c0.071,0,0.126,0.027,0.164,0.082l0.215,0.264c-0.131,0.165-0.306,0.318-0.523,0.461c-0.217,0.143-0.459,0.266-0.725,0.367
			c-0.266,0.102-0.551,0.183-0.857,0.243c-0.304,0.06-0.61,0.091-0.919,0.091c-0.559,0-1.07-0.098-1.531-0.292
			c-0.463-0.195-0.858-0.479-1.188-0.853c-0.331-0.373-0.586-0.831-0.767-1.372c-0.18-0.541-0.27-1.161-0.27-1.858
			c0-0.588,0.083-1.13,0.251-1.627c0.168-0.497,0.409-0.925,0.725-1.285c0.315-0.359,0.703-0.641,1.161-0.845
			C226.394,61.245,226.914,61.143,227.496,61.143z M227.508,61.728c-0.422,0-0.801,0.066-1.134,0.198
			c-0.335,0.132-0.624,0.321-0.869,0.569c-0.244,0.247-0.441,0.544-0.591,0.89c-0.152,0.346-0.251,0.734-0.3,1.162h5.396
			c0-0.44-0.06-0.833-0.181-1.183c-0.121-0.349-0.29-0.644-0.51-0.886c-0.22-0.241-0.483-0.426-0.79-0.556
			C228.221,61.793,227.881,61.728,227.508,61.728z"/>
		<path style="fill:#FFFFFF;" d="M241.997,62.371c-0.028,0.027-0.054,0.051-0.079,0.07c-0.024,0.019-0.059,0.029-0.103,0.029
			c-0.055,0-0.13-0.037-0.225-0.111c-0.097-0.074-0.224-0.155-0.384-0.243s-0.358-0.169-0.598-0.243
			c-0.239-0.074-0.528-0.111-0.869-0.111c-0.472,0-0.89,0.084-1.257,0.251c-0.365,0.168-0.673,0.408-0.923,0.721
			c-0.249,0.313-0.441,0.693-0.573,1.137c-0.131,0.445-0.197,0.945-0.197,1.5c0,0.577,0.067,1.088,0.201,1.532
			c0.134,0.445,0.326,0.82,0.573,1.124c0.247,0.305,0.547,0.537,0.898,0.697c0.351,0.159,0.742,0.239,1.169,0.239
			c0.396,0,0.727-0.046,0.994-0.14c0.266-0.093,0.485-0.194,0.658-0.304c0.173-0.11,0.311-0.212,0.412-0.305
			c0.102-0.093,0.184-0.14,0.244-0.14c0.071,0,0.126,0.027,0.165,0.082l0.213,0.264c-0.126,0.165-0.286,0.318-0.477,0.461
			c-0.193,0.143-0.409,0.267-0.65,0.371c-0.243,0.105-0.504,0.186-0.787,0.243c-0.283,0.058-0.578,0.086-0.886,0.086
			c-0.522,0-0.998-0.095-1.429-0.284c-0.43-0.19-0.802-0.464-1.112-0.824c-0.311-0.359-0.552-0.801-0.725-1.322
			c-0.173-0.522-0.259-1.115-0.259-1.779c0-0.626,0.082-1.197,0.247-1.714c0.165-0.516,0.405-0.961,0.721-1.335
			c0.315-0.373,0.703-0.663,1.161-0.869c0.459-0.207,0.984-0.309,1.577-0.309c0.534,0,1.007,0.085,1.421,0.255
			c0.416,0.17,0.776,0.401,1.084,0.692L241.997,62.371z"/>
		<path style="fill:#FFFFFF;" d="M249.653,69.473c-0.165,0-0.267-0.077-0.306-0.231l-0.115-1.047
			c-0.225,0.22-0.448,0.418-0.67,0.593c-0.223,0.176-0.455,0.325-0.696,0.445c-0.243,0.121-0.503,0.213-0.783,0.276
			s-0.587,0.095-0.923,0.095c-0.28,0-0.552-0.042-0.817-0.124c-0.263-0.082-0.496-0.209-0.7-0.379
			c-0.202-0.17-0.366-0.388-0.489-0.655c-0.125-0.266-0.186-0.586-0.186-0.959c0-0.347,0.099-0.668,0.298-0.964
			c0.197-0.296,0.506-0.554,0.927-0.774c0.42-0.22,0.961-0.396,1.623-0.528c0.662-0.131,1.458-0.209,2.386-0.231v-0.857
			c0-0.758-0.164-1.341-0.491-1.751c-0.326-0.409-0.811-0.613-1.454-0.613c-0.396,0-0.732,0.055-1.01,0.164
			c-0.278,0.11-0.512,0.231-0.704,0.363c-0.193,0.132-0.349,0.253-0.469,0.363c-0.121,0.11-0.223,0.165-0.306,0.165
			c-0.11,0-0.192-0.05-0.247-0.149l-0.139-0.239c0.428-0.428,0.878-0.752,1.35-0.972c0.472-0.219,1.008-0.329,1.606-0.329
			c0.44,0,0.825,0.07,1.153,0.21c0.33,0.14,0.603,0.341,0.821,0.601c0.217,0.261,0.379,0.577,0.489,0.947
			c0.11,0.371,0.165,0.784,0.165,1.24v5.339H249.653z M246.357,69.036c0.319,0,0.611-0.034,0.878-0.103
			c0.266-0.068,0.512-0.165,0.74-0.288s0.441-0.27,0.64-0.441c0.197-0.17,0.392-0.355,0.585-0.552v-2.133
			c-0.78,0.022-1.452,0.081-2.014,0.177c-0.563,0.096-1.027,0.227-1.393,0.392c-0.365,0.164-0.634,0.361-0.807,0.589
			c-0.173,0.228-0.259,0.487-0.259,0.778c0,0.275,0.044,0.512,0.135,0.713c0.091,0.2,0.211,0.365,0.358,0.495
			c0.149,0.129,0.322,0.224,0.519,0.284C245.937,69.006,246.142,69.036,246.357,69.036z"/>
		<path style="fill:#FFFFFF;" d="M252.571,72.373V61.275H253c0.071,0,0.129,0.015,0.173,0.046c0.044,0.03,0.068,0.084,0.074,0.161
			l0.074,1.269c0.363-0.494,0.787-0.887,1.274-1.178c0.485-0.291,1.031-0.436,1.635-0.436c1.011,0,1.797,0.349,2.356,1.046
			c0.561,0.698,0.841,1.744,0.841,3.139c0,0.599-0.078,1.157-0.235,1.676c-0.157,0.52-0.386,0.97-0.688,1.352
			c-0.302,0.382-0.674,0.683-1.117,0.902c-0.441,0.22-0.951,0.33-1.527,0.33c-0.561,0-1.043-0.102-1.451-0.305
			c-0.406-0.203-0.758-0.506-1.054-0.906v4.004H252.571z M256.006,61.77c-0.543,0-1.037,0.141-1.478,0.424
			c-0.443,0.283-0.834,0.677-1.175,1.182v4.3c0.312,0.473,0.66,0.805,1.042,0.997c0.382,0.192,0.817,0.288,1.306,0.288
			c0.483,0,0.906-0.088,1.269-0.263c0.363-0.176,0.666-0.424,0.911-0.746c0.244-0.321,0.429-0.706,0.552-1.153
			c0.123-0.448,0.185-0.941,0.185-1.479c0-1.22-0.224-2.116-0.672-2.69C257.499,62.057,256.852,61.77,256.006,61.77z"/>
		<path style="fill:#FFFFFF;" d="M262.829,58.449c0,0.099-0.02,0.19-0.062,0.276s-0.095,0.161-0.161,0.227
			c-0.066,0.066-0.142,0.118-0.231,0.157c-0.087,0.038-0.181,0.058-0.28,0.058c-0.098,0-0.192-0.019-0.28-0.058
			c-0.087-0.039-0.165-0.091-0.231-0.157c-0.066-0.066-0.118-0.141-0.156-0.227c-0.039-0.085-0.058-0.177-0.058-0.276
			c0-0.099,0.019-0.194,0.058-0.284c0.038-0.091,0.09-0.169,0.156-0.235c0.066-0.066,0.143-0.119,0.231-0.157
			c0.089-0.038,0.182-0.058,0.28-0.058c0.099,0,0.193,0.019,0.28,0.058c0.089,0.038,0.165,0.091,0.231,0.157
			c0.066,0.066,0.119,0.144,0.161,0.235S262.829,58.35,262.829,58.449z M262.483,61.275v8.198H261.7v-8.198H262.483z"/>
		<path style="fill:#FFFFFF;" d="M267.638,69.605c-0.554,0-0.986-0.154-1.293-0.462c-0.308-0.307-0.461-0.782-0.461-1.425v-5.603
			h-1.179c-0.06,0-0.11-0.017-0.149-0.05c-0.038-0.033-0.058-0.08-0.058-0.14v-0.304l1.401-0.099l0.196-2.933
			c0.005-0.05,0.025-0.094,0.06-0.132c0.036-0.038,0.083-0.058,0.143-0.058h0.366v3.131h2.579v0.585h-2.579v5.561
			c0,0.225,0.029,0.419,0.087,0.581c0.058,0.162,0.137,0.295,0.239,0.399c0.102,0.105,0.221,0.182,0.358,0.231
			c0.138,0.049,0.286,0.074,0.445,0.074c0.198,0,0.367-0.029,0.511-0.086c0.142-0.058,0.267-0.121,0.37-0.19
			c0.105-0.068,0.19-0.131,0.256-0.189s0.118-0.086,0.157-0.086c0.043,0,0.087,0.027,0.131,0.082l0.215,0.346
			c-0.209,0.231-0.475,0.416-0.795,0.556C268.318,69.535,267.984,69.605,267.638,69.605z"/>
		<path style="fill:#FFFFFF;" d="M276.731,69.473c-0.165,0-0.267-0.077-0.306-0.231l-0.115-1.047
			c-0.225,0.22-0.448,0.418-0.671,0.593c-0.223,0.176-0.455,0.325-0.696,0.445c-0.243,0.121-0.503,0.213-0.783,0.276
			c-0.28,0.063-0.587,0.095-0.923,0.095c-0.28,0-0.552-0.042-0.817-0.124c-0.263-0.082-0.496-0.209-0.7-0.379
			c-0.202-0.17-0.366-0.388-0.489-0.655c-0.125-0.266-0.186-0.586-0.186-0.959c0-0.347,0.099-0.668,0.298-0.964
			c0.197-0.296,0.506-0.554,0.927-0.774c0.42-0.22,0.961-0.396,1.623-0.528c0.662-0.131,1.458-0.209,2.386-0.231v-0.857
			c0-0.758-0.164-1.341-0.491-1.751c-0.326-0.409-0.811-0.613-1.454-0.613c-0.396,0-0.732,0.055-1.01,0.164
			c-0.278,0.11-0.512,0.231-0.704,0.363c-0.193,0.132-0.349,0.253-0.469,0.363c-0.121,0.11-0.223,0.165-0.306,0.165
			c-0.11,0-0.192-0.05-0.247-0.149l-0.139-0.239c0.428-0.428,0.878-0.752,1.35-0.972c0.472-0.219,1.008-0.329,1.606-0.329
			c0.44,0,0.825,0.07,1.153,0.21c0.33,0.14,0.603,0.341,0.821,0.601c0.217,0.261,0.38,0.577,0.489,0.947s0.165,0.784,0.165,1.24
			v5.339H276.731z M273.435,69.036c0.319,0,0.611-0.034,0.878-0.103c0.266-0.068,0.512-0.165,0.74-0.288s0.441-0.27,0.64-0.441
			c0.197-0.17,0.392-0.355,0.585-0.552v-2.133c-0.78,0.022-1.452,0.081-2.014,0.177c-0.563,0.096-1.027,0.227-1.393,0.392
			c-0.365,0.164-0.634,0.361-0.807,0.589c-0.173,0.228-0.259,0.487-0.259,0.778c0,0.275,0.044,0.512,0.135,0.713
			c0.091,0.2,0.211,0.365,0.358,0.495c0.149,0.129,0.322,0.224,0.519,0.284C273.015,69.006,273.22,69.036,273.435,69.036z"/>
		<path style="fill:#FFFFFF;" d="M280.55,57.485v11.988h-0.783V57.485H280.55z"/>
	</g>
</g>
<g id="Layer_2">
</g>
</svg>
