<?xml version="1.0" encoding="utf-8"?>
<!-- Generator: Adobe Illustrator 23.0.3, SVG Export Plug-In . SVG Version: 6.00 Build 0)  -->
<svg version="1.1" id="Layer_1" xmlns="http://www.w3.org/2000/svg" xmlns:xlink="http://www.w3.org/1999/xlink" x="0px" y="0px"
	 viewBox="0 0 1265 371" style="enable-background:new 0 0 1265 371;" xml:space="preserve">
<style type="text/css">
	.st0{fill:#304762;}
	.st1{fill:#EE384D;}
	.st2{fill:#F7D829;}
	.st3{fill:#77C37D;}
	.st4{fill:#00A5BB;}
</style>
<g>
	<g id="Name_2_">
		<g>
			<path class="st0" d="M388.6,238.8c-2.1,1.6-4.8,2.8-7.9,3.6c-3.1,0.8-6.4,1.2-9.7,1.2c-9,0-16-2.3-20.8-6.9
				c-4.8-4.6-7.3-11.3-7.3-20.1v-77.9h21.8v30.2h18.6v16.8h-18.6v30.6c0,3.2,0.8,5.6,2.4,7.3c1.6,1.7,3.9,2.6,6.9,2.6
				c3.4,0,6.3-0.9,8.9-2.8L388.6,238.8z"/>
			<path class="st0" d="M462.2,174.5c5.7,5.6,8.6,13.9,8.6,24.9v43.1H449v-39.7c0-6-1.3-10.4-3.9-13.4c-2.6-2.9-6.4-4.4-11.3-4.4
				c-5.5,0-9.9,1.7-13.1,5.1c-3.3,3.4-4.9,8.5-4.9,15.2v37.2h-21.8V138.7h21.8v36.4c2.9-2.9,6.4-5.1,10.5-6.6
				c4.1-1.5,8.6-2.3,13.4-2.3C449,166.1,456.5,168.9,462.2,174.5z"/>
			<path class="st0" d="M484.7,153.3c-2.5-2.3-3.8-5.2-3.8-8.7c0-3.4,1.3-6.3,3.8-8.7c2.5-2.3,5.8-3.5,9.8-3.5c4,0,7.3,1.1,9.8,3.4
				c2.5,2.2,3.8,5,3.8,8.4c0,3.6-1.3,6.6-3.8,9c-2.5,2.4-5.8,3.6-9.8,3.6C490.4,156.7,487.2,155.6,484.7,153.3z M483.5,167.2h21.8
				v75.2h-21.8V167.2z"/>
			<path class="st0" d="M587,174.5c5.7,5.6,8.6,13.9,8.6,24.9v43.1h-21.8v-39.7c0-6-1.3-10.4-3.9-13.4c-2.6-2.9-6.4-4.4-11.3-4.4
				c-5.5,0-9.9,1.7-13.1,5.1c-3.3,3.4-4.9,8.5-4.9,15.2v37.2h-21.8v-75.2h20.8v8.8c2.9-3.2,6.5-5.6,10.8-7.3c4.3-1.7,9-2.6,14.1-2.6
				C573.7,166.1,581.2,168.9,587,174.5z"/>
			<path class="st0" d="M640.6,213l-10.5,10.3v19.2h-21.8V138.7h21.8v58.7l31.9-30.2h26l-31.3,31.9l34.1,43.3h-26.4L640.6,213z"/>
			<path class="st0" d="M738.7,224.4c3-1.2,5.9-3,8.5-5.5l11.6,12.6c-7.1,8.1-17.4,12.2-31,12.2c-8.5,0-16-1.7-22.5-5
				c-6.5-3.3-11.6-7.9-15.1-13.8c-3.5-5.9-5.3-12.5-5.3-20c0-7.4,1.7-14,5.2-19.9c3.5-5.9,8.3-10.5,14.4-13.8c6.1-3.3,13-5,20.6-5
				c7.2,0,13.7,1.5,19.6,4.5c5.9,3,10.6,7.4,14.1,13.1c3.5,5.7,5.2,12.5,5.2,20.3l-55.7,10.8c1.6,3.7,4.1,6.5,7.5,8.4
				c3.4,1.9,7.6,2.8,12.5,2.8C732.2,226.1,735.6,225.5,738.7,224.4z M711.6,187.9c-3.5,3.5-5.3,8.4-5.5,14.7l36.6-7.1
				c-1-3.9-3.1-7-6.3-9.4c-3.2-2.3-7-3.5-11.5-3.5C719.5,182.6,715.1,184.4,711.6,187.9z"/>
			<path class="st0" d="M803,168.9c4.4-1.9,9.5-2.8,15.3-2.8v20.1c-2.4-0.2-4.1-0.3-4.9-0.3c-6.2,0-11.1,1.7-14.7,5.2
				c-3.5,3.5-5.3,8.7-5.3,15.7v35.5h-21.8v-75.2h20.8v9.9C795,173.5,798.6,170.8,803,168.9z"/>
			<path class="st0" d="M820.8,194.4h39.6v17.5h-39.6V194.4z"/>
			<path class="st0" d="M915.9,238.8c-2.1,1.6-4.8,2.8-7.9,3.6c-3.1,0.8-6.4,1.2-9.7,1.2c-9,0-16-2.3-20.8-6.9
				c-4.8-4.6-7.3-11.3-7.3-20.1v-77.9H892v30.2h18.6v16.8H892v30.6c0,3.2,0.8,5.6,2.4,7.3c1.6,1.7,3.9,2.6,6.9,2.6
				c3.4,0,6.3-0.9,8.9-2.8L915.9,238.8z"/>
			<path class="st0" d="M922.3,153.3c-2.5-2.3-3.8-5.2-3.8-8.7c0-3.4,1.3-6.3,3.8-8.7c2.5-2.3,5.8-3.5,9.8-3.5c4,0,7.3,1.1,9.8,3.4
				c2.5,2.2,3.8,5,3.8,8.4c0,3.6-1.3,6.6-3.8,9c-2.5,2.4-5.8,3.6-9.8,3.6C928.1,156.7,924.9,155.6,922.3,153.3z M921.2,167.2H943
				v75.2h-21.8V167.2z"/>
			<path class="st0" d="M1024.6,174.5c5.7,5.6,8.6,13.9,8.6,24.9v43.1h-21.8v-39.7c0-6-1.3-10.4-3.9-13.4c-2.6-2.9-6.4-4.4-11.3-4.4
				c-5.5,0-9.9,1.7-13.1,5.1c-3.3,3.4-4.9,8.5-4.9,15.2v37.2h-21.8v-75.2h20.8v8.8c2.9-3.2,6.5-5.6,10.8-7.3c4.3-1.7,9-2.6,14.1-2.6
				C1011.4,166.1,1018.9,168.9,1024.6,174.5z"/>
			<path class="st0" d="M1078.3,213l-10.5,10.3v19.2H1046V138.7h21.8v58.7l31.9-30.2h26l-31.3,31.9l34.1,43.3H1102L1078.3,213z"/>
			<path class="st0" d="M1176.4,224.4c3-1.2,5.9-3,8.5-5.5l11.6,12.6c-7.1,8.1-17.4,12.2-31,12.2c-8.5,0-16-1.7-22.5-5
				c-6.5-3.3-11.6-7.9-15.1-13.8c-3.5-5.9-5.3-12.5-5.3-20c0-7.4,1.7-14,5.2-19.9c3.5-5.9,8.3-10.5,14.4-13.8c6.1-3.3,13-5,20.6-5
				c7.2,0,13.7,1.5,19.6,4.5c5.9,3,10.6,7.4,14.1,13.1c3.5,5.7,5.2,12.5,5.2,20.3l-55.7,10.8c1.6,3.7,4.1,6.5,7.5,8.4
				c3.4,1.9,7.6,2.8,12.5,2.8C1169.9,226.1,1173.3,225.5,1176.4,224.4z M1149.3,187.9c-3.5,3.5-5.3,8.4-5.5,14.7l36.6-7.1
				c-1-3.9-3.1-7-6.3-9.4c-3.2-2.3-7-3.5-11.5-3.5C1157.2,182.6,1152.7,184.4,1149.3,187.9z"/>
			<path class="st0" d="M1240.7,168.9c4.4-1.9,9.5-2.8,15.3-2.8v20.1c-2.4-0.2-4.1-0.3-4.9-0.3c-6.2,0-11.1,1.7-14.7,5.2
				c-3.5,3.5-5.3,8.7-5.3,15.7v35.5h-21.8v-75.2h20.8v9.9C1232.7,173.5,1236.3,170.8,1240.7,168.9z"/>
		</g>
	</g>
	<g id="Symbol_3_">
		<path class="st0" d="M147.7,255.6c-41.1,0-74.6-33.4-74.6-74.6s33.4-74.6,74.6-74.6s74.6,33.4,74.6,74.6S188.9,255.6,147.7,255.6z
			 M147.7,121.2c-33,0-59.8,26.8-59.8,59.8s26.8,59.8,59.8,59.8c33,0,59.8-26.8,59.8-59.8S180.7,121.2,147.7,121.2z"/>
		<path class="st0" d="M187.6,160.1c-2.7,3.5-6.9,5.7-11.6,5.7c-8.1,0-14.7-6.6-14.7-14.7c0-4.4,2-8.3,5-11c-5.7-2.6-11.9-4-18.6-4
			c-24.9,0-45,20.2-45,45s20.2,45,45,45c24.9,0,45-20.2,45-45C192.8,173.4,190.9,166.3,187.6,160.1z"/>
		<path class="st1" d="M73.2,342.4c0,6.1,4.9,11,11,11c6.1,0,11-4.9,11-11V309H73.2V342.4z"/>
		<path class="st2" d="M115.2,359.8c0,6.1,4.9,11,11,11c6.1,0,11-4.9,11-11V309h-21.9V359.8z"/>
		<path class="st3" d="M158.5,351c0,6.1,4.9,11,11,11s11-4.9,11-11v-42h-21.9V351z"/>
		<path class="st4" d="M200.3,342.4c0,6.1,4.9,11,10.9,11c0,0,0,0,0,0c6,0,11-4.9,11-10.9l0-33.4h-21.9L200.3,342.4z"/>
		<path class="st0" d="M266.7,241.1v-65.5c0-63.7-51.8-115.5-115.5-115.5h-9C78.6,60,26.8,111.8,26.8,175.5v65.5
			C11.5,244.5,0,258.3,0,274.6c0,19,15.4,34.4,34.4,34.4h15.5h21.9h36h21.9h36h21.9h36h21.9h13.5c19,0,34.4-15.4,34.4-34.4
			C293.5,258.3,282,244.5,266.7,241.1z M259.1,290.7H34.4c-8.9,0-16.1-7.2-16.1-16.1s7.2-16.1,16.1-16.1c0.3,0,0.5,0,0.8,0
			c0.2,0,0.5,0,0.8,0c5,0,9.1-4.1,9.1-9.1v-73.8c0-53.6,43.6-97.2,97.2-97.2h9c53.6,0,97.2,43.6,97.2,97.2v73.8c0,5,4.1,9.1,9.1,9.1
			h1.5c8.9,0,16.1,7.2,16.1,16.1S268,290.7,259.1,290.7z"/>
		<path class="st0" d="M147.7,44.7c-4.2,0-7.7-3.4-7.7-7.7V13c0-4.2,3.4-7.7,7.7-7.7s7.7,3.4,7.7,7.7v24
			C155.4,41.2,152,44.7,147.7,44.7z"/>
		<path class="st0" d="M204,56.1c-1,0-2-0.2-3-0.6c-3.9-1.7-5.7-6.2-4.1-10.1l9.4-22.1c1.7-3.9,6.2-5.7,10.1-4.1
			c3.9,1.7,5.7,6.2,4.1,10.1l-9.4,22.1C209.8,54.4,207,56.1,204,56.1z"/>
		<path class="st0" d="M91.5,56.1c-3,0-5.8-1.8-7.1-4.7L75,29.3c-1.7-3.9,0.2-8.4,4.1-10.1c3.9-1.7,8.4,0.2,10.1,4.1l9.4,22.1
			c1.7,3.9-0.2,8.4-4.1,10.1C93.5,55.9,92.5,56.1,91.5,56.1z"/>
	</g>
</g>
</svg>
