<?xml version="1.0" encoding="utf-8"?>
<!-- Generator: Adobe Illustrator 22.1.0, SVG Export Plug-In . SVG Version: 6.00 Build 0)  -->
<svg version="1.1" id="Layer_1" xmlns="http://www.w3.org/2000/svg" xmlns:xlink="http://www.w3.org/1999/xlink" x="0px" y="0px"
	 viewBox="0 0 154 153" style="enable-background:new 0 0 154 153;" xml:space="preserve">
<style type="text/css">
	.st0{fill:#002361;}
</style>
<g id="g2152" transform="translate(394.5637,693.0347)">
	<path id="path2154" class="st0" d="M-270.1-619l7-12.1l-12.1-7l-7,12.1L-270.1-619z"/>
</g>
<g id="g2156" transform="translate(393.3019,714.0454)">
	<path id="path2158" class="st0" d="M-271.4-682.6L-271.4-682.6L-271.4-682.6v14h14v-14H-271.4z"/>
</g>
<g id="g2160" transform="translate(385.1496,657.9048)">
	<path id="path2162" class="st0" d="M-279.8-512.7l16.5-9.5l-2.6-4.4l-16.5,9.5L-279.8-512.7z"/>
</g>
<path id="path2164" class="st0" d="M145.4,86.1h5.1V67.1h-5.1V86.1z"/>
<g id="g2166" transform="translate(398.009,670.7637)">
	<path id="path2168" class="st0" d="M-266.6-551.6l4.4,2.6l9.5-16.5l-4.4-2.6L-266.6-551.6z"/>
</g>
<g id="g2170" transform="translate(379.1838,670.7637)">
	<path id="path2172" class="st0" d="M-285.9-551.6L-285.9-551.6L-285.9-551.6v19.1l0,0h5.1v-19.1H-285.9z"/>
</g>
<g id="g2174" transform="translate(392.0412,664.7964)">
	<path id="path2176" class="st0" d="M-272.7-533.5l12.1-12.1l-7-7l-12.1,12.1L-272.7-533.5z"/>
</g>
<g id="g2178" transform="translate(392.0412,683.6216)">
	<path id="path2180" class="st0" d="M-272.7-590.5l12.1-12.1l-7-7l-12.1,12.1L-272.7-590.5z"/>
</g>
<g id="g2182" transform="translate(388.5959,677.6543)">
	<path id="path2184" class="st0" d="M-276.3-572.4L-276.3-572.4l-9.5-2.6l-4.4,16.5l9.5,2.6L-276.3-572.4z"/>
</g>
<g id="g2186" transform="translate(402.715,678.9146)">
	<path id="path2188" class="st0" d="M-261.7-576.3l4.4-16.5l-9.5-2.6l-4.4,16.5L-261.7-576.3z"/>
</g>
<g id="g2190" transform="translate(400.1926,707.1538)">
	<path id="path2192" class="st0" d="M-264.3-661.8l-4.4,16.5l9.5,2.6l4.4-16.5L-264.3-661.8z"/>
</g>
<g id="g2194" transform="translate(385.1496,709.3379)">
	<path id="path2196" class="st0" d="M-279.8-668.4l-2.6,9.5l16.5,4.4l2.6-9.5L-279.8-668.4L-279.8-668.4L-279.8-668.4z"/>
</g>
<path id="path2198" class="st0" d="M50.6,36.5h-14v14h14V36.5z"/>
<g id="g2200" transform="translate(340.6096,699.9253)">
	<path id="path2202" class="st0" d="M-325.6-639.9l12.1-7l-7-12.1l-12.1,7L-325.6-639.9L-325.6-639.9L-325.6-639.9z"/>
</g>
<g id="g2204" transform="translate(393.3019,720.9351)">
	<path id="path2206" class="st0" d="M-271.4-703.5L-288-713l-2.6,4.4l16.5,9.5L-271.4-703.5z"/>
</g>
<g id="g2208" transform="translate(356.9113,725.6416)">
	<path id="path2210" class="st0" d="M-308.8-717.7l-16.5,9.5l2.6,4.4l16.5-9.5L-308.8-717.7z"/>
</g>
<path id="path2212" class="st0" d="M86.3,2.8H67.2v5.1h19.1V2.8z"/>
<g id="g2214" transform="translate(392.0412,716.228)">
	<path id="path2216" class="st0" d="M-272.7-689.2l-16.5,9.5l2.6,4.4l0,0l16.5-9.5l0,0L-272.7-689.2z"/>
</g>
<g id="g2218" transform="translate(383.8889,723.4565)">
	<path id="path2220" class="st0" d="M-281.1-711.1l-16.5-4.4l-2.6,9.5l16.5,4.4L-281.1-711.1z"/>
</g>
<g id="g2222" transform="translate(367.5851,714.0444)">
	<path id="path2224" class="st0" d="M-297.9-682.6l-16.5-4.4l-2.6,9.5l16.5,4.4L-297.9-682.6z"/>
</g>
<g id="g2226" transform="translate(374.4767,714.0444)">
	<path id="path2228" class="st0" d="M-290.8-682.6L-290.8-682.6l2.6,9.5l16.5-4.4l-2.6-9.5L-290.8-682.6z"/>
</g>
<g id="g2230" transform="translate(366.3234,725.6416)">
	<path id="path2232" class="st0" d="M-299.2-717.7l-16.5,4.4l2.6,9.5l16.5-4.4L-299.2-717.7z"/>
</g>
<g id="g2234" transform="translate(350.0197,716.2285)">
	<path id="path2236" class="st0" d="M-315.9-689.2l-16.5,4.4l2.6,9.5l16.5-4.4L-315.9-689.2z"/>
</g>
<g id="g2238" transform="translate(348.7609,695.2183)">
	<path id="path2240" class="st0" d="M-317.2-625.6l9.5-2.6l-4.4-16.5l-9.5,2.6L-317.2-625.6L-317.2-625.6z"/>
</g>
<g id="g2242" transform="translate(360.3566,670.7637)">
	<path id="path2244" class="st0" d="M-305.3-551.6l7,12.1l12.1-7l-7-12.1L-305.3-551.6z"/>
</g>
<g id="g2246" transform="translate(379.1818,661.3511)">
	<path id="path2248" class="st0" d="M-285.9-523.1l-12.1-7l-7,12.1l12.1,7L-285.9-523.1L-285.9-523.1z"/>
</g>
<path id="path2250" class="st0" d="M8,67H2.9v19.1H8V67z"/>
<g id="g2252" transform="translate(348.7609,662.6118)">
	<path id="path2254" class="st0" d="M-317.2-526.9l16.5,9.5l2.6-4.4l-16.5-9.5L-317.2-526.9z"/>
</g>
<g id="g2256" transform="translate(337.1642,677.6538)">
	<path id="path2258" class="st0" d="M-329.2-572.4l9.5,16.5l4.4-2.6l-9.5-16.5L-329.2-572.4z"/>
</g>
<g id="g2260" transform="translate(348.7609,695.2183)">
	<path id="path2262" class="st0" d="M-317.2-625.6L-317.2-625.6L-317.2-625.6l-16.5-9.5l0,0l-2.6,4.4l16.5,9.5L-317.2-625.6z"/>
</g>
<g id="g2264" transform="translate(344.0539,680.1763)">
	<path id="path2266" class="st0" d="M-322-580.1l-4.4-16.5l-9.5,2.5l4.4,16.5L-322-580.1z"/>
</g>
<g id="g2268" transform="translate(353.466,677.6543)">
	<path id="path2270" class="st0" d="M-312.4-572.4l4.4,16.5l9.5-2.6l-4.4-16.5L-312.4-572.4z"/>
</g>
<g id="g2272" transform="translate(353.466,687.0679)">
	<path id="path2274" class="st0" d="M-312.4-601l-12.1-12.1l-7,7l12.1,12.1L-312.4-601z"/>
</g>
<g id="g2276" transform="translate(344.0539,670.7637)">
	<path id="path2278" class="st0" d="M-322-551.6l12.1,12.1l7-7l-12.1-12.1L-322-551.6z"/>
</g>
<g id="g2280" transform="translate(360.3566,661.3511)">
	<path id="path2282" class="st0" d="M-305.3-523.1l12.1,12.1l7-7l-12.1-12.1L-305.3-523.1z"/>
</g>
<g id="g2284" transform="translate(379.1838,670.7637)">
	<path id="path2286" class="st0" d="M-285.9-551.6l-7-7l-12.1,12.1l7,7L-285.9-551.6L-285.9-551.6L-285.9-551.6z"/>
</g>
<g id="g2288" transform="translate(392.0412,683.6216)">
	<path id="path2290" class="st0" d="M-272.7-590.5l-7,12.1l12.1,7l7-12.1L-272.7-590.5z"/>
</g>
<g id="g2292" transform="translate(386.4113,669.5024)">
	<path id="path2294" class="st0" d="M-278.5-547.8l-9.5,16.5l4.4,2.6l9.5-16.5L-278.5-547.8z"/>
</g>
<g id="g2296" transform="translate(398.008,689.5894)">
	<path id="path2298" class="st0" d="M-266.6-608.6l4.4,2.6l9.5-16.5l-4.4-2.6L-266.6-608.6z"/>
</g>
<path id="path2300" class="st0" d="M83.7,17.4h-14v14h14L83.7,17.4L83.7,17.4z"/>
<path id="path2302" class="st0" d="M100.2,27h19.1v-5.1h-19.1V27z"/>
<path id="path2304" class="st0" d="M53.2,21.8H34.1V27h19.1L53.2,21.8L53.2,21.8z"/>
<g id="g2306" transform="translate(353.466,677.6543)">
	<path id="path2308" class="st0" d="M-312.4-572.4l-7-12.1l-12.1,7l7,12.1L-312.4-572.4z"/>
</g>
<g id="g2310" transform="translate(344.0539,689.5898)">
	<path id="path2312" class="st0" d="M-322-608.6l-9.5-16.5l-4.4,2.6l9.5,16.5L-322-608.6z"/>
</g>
<g id="g2314" transform="translate(353.466,668.2417)">
	<path id="path2316" class="st0" d="M-312.4-544l9.5,16.5l4.4-2.6l-9.5-16.5L-312.4-544z"/>
</g>
<g id="g2374" transform="translate(397.549,665.0552)">
	<path id="path2376" class="st0" d="M-267.1-534.3h1.6v4.1h0.6v-4.1h1.6v-0.4h-3.7L-267.1-534.3L-267.1-534.3z"/>
</g>
<g id="g2378" transform="translate(401.3703,665.2544)">
	<path id="path2380" class="st0" d="M-263.2-534.9l-1.3,3.2h-0.1l-1.4-3.2h-0.6v4.5h0.4v-3.6l0,0l1.2,2.9h0.6l1.2-2.9h0.1v3.7h0.4
		v-4.5L-263.2-534.9L-263.2-534.9z"/>
</g>
</svg>
